G04 #@! TF.FileFunction,Copper,L2,Bot,Signal*
%FSLAX46Y46*%
G04 Gerber Fmt 4.6, Leading zero omitted, Abs format (unit mm)*
G04 Created by KiCad (PCBNEW 0.201502181246+5430~21~ubuntu14.04.1-product) date Sun 01 Mar 2015 12:12:24 AM PST*
%MOMM*%
G01*
G04 APERTURE LIST*
%ADD10C,0.100000*%
%ADD11C,1.501140*%
%ADD12C,1.998980*%
%ADD13R,1.998980X1.998980*%
%ADD14R,1.397000X1.397000*%
%ADD15C,1.397000*%
%ADD16C,3.000000*%
%ADD17C,1.524000*%
%ADD18O,2.499360X4.500880*%
%ADD19C,1.270000*%
%ADD20C,0.254000*%
G04 APERTURE END LIST*
D10*
D11*
X113030000Y-58420000D03*
X118110000Y-58420000D03*
X133350000Y-78740000D03*
X135890000Y-78740000D03*
X115570000Y-99060000D03*
X115570000Y-93980000D03*
X119380000Y-81280000D03*
X119380000Y-83820000D03*
D12*
X127000000Y-76200000D03*
D13*
X127000000Y-66040000D03*
D12*
X127000000Y-81280000D03*
D13*
X127000000Y-91440000D03*
D12*
X96520000Y-68580000D03*
D13*
X106680000Y-68580000D03*
D12*
X93980000Y-90170000D03*
D13*
X93980000Y-100330000D03*
D12*
X123190000Y-66040000D03*
X123190000Y-76200000D03*
X123190000Y-81280000D03*
X123190000Y-91440000D03*
X96520000Y-73660000D03*
X106680000Y-73660000D03*
D14*
X111760000Y-68580000D03*
D15*
X111760000Y-71120000D03*
X111760000Y-73660000D03*
X111760000Y-76200000D03*
X119380000Y-76200000D03*
X119380000Y-73660000D03*
X119380000Y-71120000D03*
X119380000Y-68580000D03*
D12*
X97790000Y-100330000D03*
X107950000Y-100330000D03*
D16*
X136855000Y-96560000D03*
X136855000Y-101560000D03*
X129845000Y-101560000D03*
X129845000Y-96560000D03*
X136855000Y-55920000D03*
X136855000Y-60920000D03*
X129845000Y-60920000D03*
X129845000Y-55920000D03*
X89865000Y-96560000D03*
X89865000Y-101560000D03*
X82855000Y-101560000D03*
X82855000Y-96560000D03*
X89865000Y-55920000D03*
X89865000Y-60920000D03*
X82855000Y-60920000D03*
X82855000Y-55920000D03*
D17*
X134620000Y-73660000D03*
X134620000Y-71120000D03*
X134620000Y-68580000D03*
X134620000Y-88900000D03*
X134620000Y-86360000D03*
X134620000Y-83820000D03*
D18*
X102235000Y-79375000D03*
X96647000Y-79375000D03*
X107823000Y-79375000D03*
D11*
X116840000Y-65405000D03*
X114300000Y-65405000D03*
X111125000Y-88900000D03*
X113665000Y-88900000D03*
D19*
X116840000Y-71120000D02*
X119380000Y-73660000D01*
X111760000Y-71120000D02*
X116840000Y-71120000D01*
D20*
G36*
X141478000Y-104013000D02*
X138997723Y-104013000D01*
X138997723Y-61303813D01*
X138997723Y-56303813D01*
X138981497Y-55454613D01*
X138687739Y-54745418D01*
X138368970Y-54585635D01*
X138189365Y-54765240D01*
X138189365Y-54406030D01*
X138029582Y-54087261D01*
X137238813Y-53777277D01*
X136389613Y-53793503D01*
X135680418Y-54087261D01*
X135520635Y-54406030D01*
X136855000Y-55740395D01*
X138189365Y-54406030D01*
X138189365Y-54765240D01*
X137034605Y-55920000D01*
X138368970Y-57254365D01*
X138687739Y-57094582D01*
X138997723Y-56303813D01*
X138997723Y-61303813D01*
X138981497Y-60454613D01*
X138687739Y-59745418D01*
X138368970Y-59585635D01*
X138189365Y-59765240D01*
X138189365Y-59406030D01*
X138189365Y-57433970D01*
X136855000Y-56099605D01*
X136675395Y-56279210D01*
X136675395Y-55920000D01*
X135341030Y-54585635D01*
X135022261Y-54745418D01*
X134712277Y-55536187D01*
X134728503Y-56385387D01*
X135022261Y-57094582D01*
X135341030Y-57254365D01*
X136675395Y-55920000D01*
X136675395Y-56279210D01*
X135520635Y-57433970D01*
X135680418Y-57752739D01*
X136471187Y-58062723D01*
X137320387Y-58046497D01*
X138029582Y-57752739D01*
X138189365Y-57433970D01*
X138189365Y-59406030D01*
X138029582Y-59087261D01*
X137238813Y-58777277D01*
X136389613Y-58793503D01*
X135680418Y-59087261D01*
X135520635Y-59406030D01*
X136855000Y-60740395D01*
X138189365Y-59406030D01*
X138189365Y-59765240D01*
X137034605Y-60920000D01*
X138368970Y-62254365D01*
X138687739Y-62094582D01*
X138997723Y-61303813D01*
X138997723Y-104013000D01*
X138990370Y-104013000D01*
X138990370Y-101137185D01*
X138990370Y-96137185D01*
X138666020Y-95352200D01*
X138189365Y-94874712D01*
X138189365Y-62433970D01*
X136855000Y-61099605D01*
X136675395Y-61279210D01*
X136675395Y-60920000D01*
X135341030Y-59585635D01*
X135022261Y-59745418D01*
X134712277Y-60536187D01*
X134728503Y-61385387D01*
X135022261Y-62094582D01*
X135341030Y-62254365D01*
X136675395Y-60920000D01*
X136675395Y-61279210D01*
X135520635Y-62433970D01*
X135680418Y-62752739D01*
X136471187Y-63062723D01*
X137320387Y-63046497D01*
X138029582Y-62752739D01*
X138189365Y-62433970D01*
X138189365Y-94874712D01*
X138065959Y-94751091D01*
X137287767Y-94427957D01*
X137287767Y-78944966D01*
X137259805Y-78394462D01*
X137102931Y-78015735D01*
X136861930Y-77947675D01*
X136682325Y-78127280D01*
X136682325Y-77768070D01*
X136614265Y-77527069D01*
X136094966Y-77342233D01*
X136017242Y-77346180D01*
X136017242Y-73383339D01*
X135805010Y-72869697D01*
X135412370Y-72476371D01*
X135204487Y-72390050D01*
X135410303Y-72305010D01*
X135803629Y-71912370D01*
X136016757Y-71399100D01*
X136017242Y-70843339D01*
X135805010Y-70329697D01*
X135412370Y-69936371D01*
X135204487Y-69850050D01*
X135410303Y-69765010D01*
X135803629Y-69372370D01*
X136016757Y-68859100D01*
X136017242Y-68303339D01*
X135805010Y-67789697D01*
X135412370Y-67396371D01*
X134899100Y-67183243D01*
X134343339Y-67182758D01*
X133829697Y-67394990D01*
X133436371Y-67787630D01*
X133223243Y-68300900D01*
X133222758Y-68856661D01*
X133434990Y-69370303D01*
X133827630Y-69763629D01*
X134035512Y-69849949D01*
X133829697Y-69934990D01*
X133436371Y-70327630D01*
X133223243Y-70840900D01*
X133222758Y-71396661D01*
X133434990Y-71910303D01*
X133827630Y-72303629D01*
X134035512Y-72389949D01*
X133829697Y-72474990D01*
X133436371Y-72867630D01*
X133223243Y-73380900D01*
X133222758Y-73936661D01*
X133434990Y-74450303D01*
X133827630Y-74843629D01*
X134340900Y-75056757D01*
X134896661Y-75057242D01*
X135410303Y-74845010D01*
X135803629Y-74452370D01*
X136016757Y-73939100D01*
X136017242Y-73383339D01*
X136017242Y-77346180D01*
X135544462Y-77370195D01*
X135165735Y-77527069D01*
X135097675Y-77768070D01*
X135890000Y-78560395D01*
X136682325Y-77768070D01*
X136682325Y-78127280D01*
X136069605Y-78740000D01*
X136861930Y-79532325D01*
X137102931Y-79464265D01*
X137287767Y-78944966D01*
X137287767Y-94427957D01*
X137281541Y-94425372D01*
X136682325Y-94424848D01*
X136682325Y-79711930D01*
X135890000Y-78919605D01*
X135710395Y-79099210D01*
X135710395Y-78740000D01*
X134918070Y-77947675D01*
X134677069Y-78015735D01*
X134618231Y-78181040D01*
X134525314Y-77956163D01*
X134135887Y-77566056D01*
X133626816Y-77354671D01*
X133075602Y-77354190D01*
X132566163Y-77564686D01*
X132176056Y-77954113D01*
X131987723Y-78407668D01*
X131987723Y-61303813D01*
X131987723Y-56303813D01*
X131971497Y-55454613D01*
X131677739Y-54745418D01*
X131358970Y-54585635D01*
X131179365Y-54765240D01*
X131179365Y-54406030D01*
X131019582Y-54087261D01*
X130228813Y-53777277D01*
X129379613Y-53793503D01*
X128670418Y-54087261D01*
X128510635Y-54406030D01*
X129845000Y-55740395D01*
X131179365Y-54406030D01*
X131179365Y-54765240D01*
X130024605Y-55920000D01*
X131358970Y-57254365D01*
X131677739Y-57094582D01*
X131987723Y-56303813D01*
X131987723Y-61303813D01*
X131971497Y-60454613D01*
X131677739Y-59745418D01*
X131358970Y-59585635D01*
X131179365Y-59765240D01*
X131179365Y-59406030D01*
X131179365Y-57433970D01*
X129845000Y-56099605D01*
X129665395Y-56279210D01*
X129665395Y-55920000D01*
X128331030Y-54585635D01*
X128012261Y-54745418D01*
X127702277Y-55536187D01*
X127718503Y-56385387D01*
X128012261Y-57094582D01*
X128331030Y-57254365D01*
X129665395Y-55920000D01*
X129665395Y-56279210D01*
X128510635Y-57433970D01*
X128670418Y-57752739D01*
X129461187Y-58062723D01*
X130310387Y-58046497D01*
X131019582Y-57752739D01*
X131179365Y-57433970D01*
X131179365Y-59406030D01*
X131019582Y-59087261D01*
X130228813Y-58777277D01*
X129379613Y-58793503D01*
X128670418Y-59087261D01*
X128510635Y-59406030D01*
X129845000Y-60740395D01*
X131179365Y-59406030D01*
X131179365Y-59765240D01*
X130024605Y-60920000D01*
X131358970Y-62254365D01*
X131677739Y-62094582D01*
X131987723Y-61303813D01*
X131987723Y-78407668D01*
X131964671Y-78463184D01*
X131964190Y-79014398D01*
X132174686Y-79523837D01*
X132564113Y-79913944D01*
X133073184Y-80125329D01*
X133624398Y-80125810D01*
X134133837Y-79915314D01*
X134523944Y-79525887D01*
X134613378Y-79310503D01*
X134677069Y-79464265D01*
X134918070Y-79532325D01*
X135710395Y-78740000D01*
X135710395Y-79099210D01*
X135097675Y-79711930D01*
X135165735Y-79952931D01*
X135685034Y-80137767D01*
X136235538Y-80109805D01*
X136614265Y-79952931D01*
X136682325Y-79711930D01*
X136682325Y-94424848D01*
X136432185Y-94424630D01*
X136017242Y-94596081D01*
X136017242Y-88623339D01*
X135805010Y-88109697D01*
X135412370Y-87716371D01*
X135204487Y-87630050D01*
X135410303Y-87545010D01*
X135803629Y-87152370D01*
X136016757Y-86639100D01*
X136017242Y-86083339D01*
X135805010Y-85569697D01*
X135412370Y-85176371D01*
X135204487Y-85090050D01*
X135410303Y-85005010D01*
X135803629Y-84612370D01*
X136016757Y-84099100D01*
X136017242Y-83543339D01*
X135805010Y-83029697D01*
X135412370Y-82636371D01*
X134899100Y-82423243D01*
X134343339Y-82422758D01*
X133829697Y-82634990D01*
X133436371Y-83027630D01*
X133223243Y-83540900D01*
X133222758Y-84096661D01*
X133434990Y-84610303D01*
X133827630Y-85003629D01*
X134035512Y-85089949D01*
X133829697Y-85174990D01*
X133436371Y-85567630D01*
X133223243Y-86080900D01*
X133222758Y-86636661D01*
X133434990Y-87150303D01*
X133827630Y-87543629D01*
X134035512Y-87629949D01*
X133829697Y-87714990D01*
X133436371Y-88107630D01*
X133223243Y-88620900D01*
X133222758Y-89176661D01*
X133434990Y-89690303D01*
X133827630Y-90083629D01*
X134340900Y-90296757D01*
X134896661Y-90297242D01*
X135410303Y-90085010D01*
X135803629Y-89692370D01*
X136016757Y-89179100D01*
X136017242Y-88623339D01*
X136017242Y-94596081D01*
X135647200Y-94748980D01*
X135046091Y-95349041D01*
X134720372Y-96133459D01*
X134719630Y-96982815D01*
X135043980Y-97767800D01*
X135644041Y-98368909D01*
X136428459Y-98694628D01*
X137277815Y-98695370D01*
X138062800Y-98371020D01*
X138663909Y-97770959D01*
X138989628Y-96986541D01*
X138990370Y-96137185D01*
X138990370Y-101137185D01*
X138666020Y-100352200D01*
X138065959Y-99751091D01*
X137281541Y-99425372D01*
X136432185Y-99424630D01*
X135647200Y-99748980D01*
X135046091Y-100349041D01*
X134720372Y-101133459D01*
X134719630Y-101982815D01*
X135043980Y-102767800D01*
X135644041Y-103368909D01*
X136428459Y-103694628D01*
X137277815Y-103695370D01*
X138062800Y-103371020D01*
X138663909Y-102770959D01*
X138989628Y-101986541D01*
X138990370Y-101137185D01*
X138990370Y-104013000D01*
X131980370Y-104013000D01*
X131980370Y-101137185D01*
X131980370Y-96137185D01*
X131656020Y-95352200D01*
X131179365Y-94874712D01*
X131179365Y-62433970D01*
X129845000Y-61099605D01*
X129665395Y-61279210D01*
X129665395Y-60920000D01*
X128331030Y-59585635D01*
X128012261Y-59745418D01*
X127702277Y-60536187D01*
X127718503Y-61385387D01*
X128012261Y-62094582D01*
X128331030Y-62254365D01*
X129665395Y-60920000D01*
X129665395Y-61279210D01*
X128510635Y-62433970D01*
X128670418Y-62752739D01*
X129461187Y-63062723D01*
X130310387Y-63046497D01*
X131019582Y-62752739D01*
X131179365Y-62433970D01*
X131179365Y-94874712D01*
X131055959Y-94751091D01*
X130271541Y-94425372D01*
X129422185Y-94424630D01*
X128646930Y-94744959D01*
X128646930Y-92439490D01*
X128646930Y-90440510D01*
X128646930Y-67039490D01*
X128646930Y-65040510D01*
X128599953Y-64798387D01*
X128460163Y-64585583D01*
X128249130Y-64443133D01*
X127999490Y-64393070D01*
X126000510Y-64393070D01*
X125758387Y-64440047D01*
X125545583Y-64579837D01*
X125403133Y-64790870D01*
X125353070Y-65040510D01*
X125353070Y-67039490D01*
X125400047Y-67281613D01*
X125539837Y-67494417D01*
X125750870Y-67636867D01*
X126000510Y-67686930D01*
X127999490Y-67686930D01*
X128241613Y-67639953D01*
X128454417Y-67500163D01*
X128596867Y-67289130D01*
X128646930Y-67039490D01*
X128646930Y-90440510D01*
X128634774Y-90377857D01*
X128634774Y-80956306D01*
X128634774Y-75876306D01*
X128386462Y-75275345D01*
X127927073Y-74815154D01*
X127326547Y-74565794D01*
X126676306Y-74565226D01*
X126075345Y-74813538D01*
X125615154Y-75272927D01*
X125365794Y-75873453D01*
X125365226Y-76523694D01*
X125613538Y-77124655D01*
X126072927Y-77584846D01*
X126673453Y-77834206D01*
X127323694Y-77834774D01*
X127924655Y-77586462D01*
X128384846Y-77127073D01*
X128634206Y-76526547D01*
X128634774Y-75876306D01*
X128634774Y-80956306D01*
X128386462Y-80355345D01*
X127927073Y-79895154D01*
X127326547Y-79645794D01*
X126676306Y-79645226D01*
X126075345Y-79893538D01*
X125615154Y-80352927D01*
X125365794Y-80953453D01*
X125365226Y-81603694D01*
X125613538Y-82204655D01*
X126072927Y-82664846D01*
X126673453Y-82914206D01*
X127323694Y-82914774D01*
X127924655Y-82666462D01*
X128384846Y-82207073D01*
X128634206Y-81606547D01*
X128634774Y-80956306D01*
X128634774Y-90377857D01*
X128599953Y-90198387D01*
X128460163Y-89985583D01*
X128249130Y-89843133D01*
X127999490Y-89793070D01*
X126000510Y-89793070D01*
X125758387Y-89840047D01*
X125545583Y-89979837D01*
X125403133Y-90190870D01*
X125353070Y-90440510D01*
X125353070Y-92439490D01*
X125400047Y-92681613D01*
X125539837Y-92894417D01*
X125750870Y-93036867D01*
X126000510Y-93086930D01*
X127999490Y-93086930D01*
X128241613Y-93039953D01*
X128454417Y-92900163D01*
X128596867Y-92689130D01*
X128646930Y-92439490D01*
X128646930Y-94744959D01*
X128637200Y-94748980D01*
X128036091Y-95349041D01*
X127710372Y-96133459D01*
X127709630Y-96982815D01*
X128033980Y-97767800D01*
X128634041Y-98368909D01*
X129418459Y-98694628D01*
X130267815Y-98695370D01*
X131052800Y-98371020D01*
X131653909Y-97770959D01*
X131979628Y-96986541D01*
X131980370Y-96137185D01*
X131980370Y-101137185D01*
X131656020Y-100352200D01*
X131055959Y-99751091D01*
X130271541Y-99425372D01*
X129422185Y-99424630D01*
X128637200Y-99748980D01*
X128036091Y-100349041D01*
X127710372Y-101133459D01*
X127709630Y-101982815D01*
X128033980Y-102767800D01*
X128634041Y-103368909D01*
X129418459Y-103694628D01*
X130267815Y-103695370D01*
X131052800Y-103371020D01*
X131653909Y-102770959D01*
X131979628Y-101986541D01*
X131980370Y-101137185D01*
X131980370Y-104013000D01*
X124824774Y-104013000D01*
X124824774Y-91116306D01*
X124824774Y-80956306D01*
X124824774Y-75876306D01*
X124824774Y-65716306D01*
X124576462Y-65115345D01*
X124117073Y-64655154D01*
X123516547Y-64405794D01*
X122866306Y-64405226D01*
X122265345Y-64653538D01*
X121805154Y-65112927D01*
X121555794Y-65713453D01*
X121555226Y-66363694D01*
X121803538Y-66964655D01*
X122262927Y-67424846D01*
X122863453Y-67674206D01*
X123513694Y-67674774D01*
X124114655Y-67426462D01*
X124574846Y-66967073D01*
X124824206Y-66366547D01*
X124824774Y-65716306D01*
X124824774Y-75876306D01*
X124576462Y-75275345D01*
X124117073Y-74815154D01*
X123516547Y-74565794D01*
X122866306Y-74565226D01*
X122265345Y-74813538D01*
X121805154Y-75272927D01*
X121555794Y-75873453D01*
X121555226Y-76523694D01*
X121803538Y-77124655D01*
X122262927Y-77584846D01*
X122863453Y-77834206D01*
X123513694Y-77834774D01*
X124114655Y-77586462D01*
X124574846Y-77127073D01*
X124824206Y-76526547D01*
X124824774Y-75876306D01*
X124824774Y-80956306D01*
X124576462Y-80355345D01*
X124117073Y-79895154D01*
X123516547Y-79645794D01*
X122866306Y-79645226D01*
X122265345Y-79893538D01*
X121805154Y-80352927D01*
X121555794Y-80953453D01*
X121555226Y-81603694D01*
X121803538Y-82204655D01*
X122262927Y-82664846D01*
X122863453Y-82914206D01*
X123513694Y-82914774D01*
X124114655Y-82666462D01*
X124574846Y-82207073D01*
X124824206Y-81606547D01*
X124824774Y-80956306D01*
X124824774Y-91116306D01*
X124576462Y-90515345D01*
X124117073Y-90055154D01*
X123516547Y-89805794D01*
X122866306Y-89805226D01*
X122265345Y-90053538D01*
X121805154Y-90512927D01*
X121555794Y-91113453D01*
X121555226Y-91763694D01*
X121803538Y-92364655D01*
X122262927Y-92824846D01*
X122863453Y-93074206D01*
X123513694Y-93074774D01*
X124114655Y-92826462D01*
X124574846Y-92367073D01*
X124824206Y-91766547D01*
X124824774Y-91116306D01*
X124824774Y-104013000D01*
X120777767Y-104013000D01*
X120777767Y-84024966D01*
X120765810Y-83789561D01*
X120765810Y-81005602D01*
X120713731Y-80879561D01*
X120713731Y-75935914D01*
X120511146Y-75445620D01*
X120136353Y-75070173D01*
X119798553Y-74929906D01*
X120134380Y-74791146D01*
X120509827Y-74416353D01*
X120713268Y-73926413D01*
X120713731Y-73395914D01*
X120511146Y-72905620D01*
X120136353Y-72530173D01*
X119982224Y-72466173D01*
X119874554Y-72358503D01*
X120134380Y-72251146D01*
X120509827Y-71876353D01*
X120713268Y-71386413D01*
X120713731Y-70855914D01*
X120511146Y-70365620D01*
X120136353Y-69990173D01*
X119798553Y-69849906D01*
X120134380Y-69711146D01*
X120509827Y-69336353D01*
X120713268Y-68846413D01*
X120713731Y-68315914D01*
X120511146Y-67825620D01*
X120136353Y-67450173D01*
X119646413Y-67246732D01*
X119495810Y-67246600D01*
X119495810Y-58145602D01*
X119285314Y-57636163D01*
X118895887Y-57246056D01*
X118386816Y-57034671D01*
X117835602Y-57034190D01*
X117326163Y-57244686D01*
X116936056Y-57634113D01*
X116724671Y-58143184D01*
X116724190Y-58694398D01*
X116934686Y-59203837D01*
X117324113Y-59593944D01*
X117833184Y-59805329D01*
X118384398Y-59805810D01*
X118893837Y-59595314D01*
X119283944Y-59205887D01*
X119495329Y-58696816D01*
X119495810Y-58145602D01*
X119495810Y-67246600D01*
X119115914Y-67246269D01*
X118625620Y-67448854D01*
X118250173Y-67823647D01*
X118225810Y-67882319D01*
X118225810Y-65130602D01*
X118015314Y-64621163D01*
X117625887Y-64231056D01*
X117116816Y-64019671D01*
X116565602Y-64019190D01*
X116056163Y-64229686D01*
X115666056Y-64619113D01*
X115576621Y-64834496D01*
X115512931Y-64680735D01*
X115271930Y-64612675D01*
X115092325Y-64792280D01*
X115092325Y-64433070D01*
X115024265Y-64192069D01*
X114504966Y-64007233D01*
X114427767Y-64011154D01*
X114427767Y-58624966D01*
X114399805Y-58074462D01*
X114242931Y-57695735D01*
X114001930Y-57627675D01*
X113822325Y-57807280D01*
X113822325Y-57448070D01*
X113754265Y-57207069D01*
X113234966Y-57022233D01*
X112684462Y-57050195D01*
X112305735Y-57207069D01*
X112237675Y-57448070D01*
X113030000Y-58240395D01*
X113822325Y-57448070D01*
X113822325Y-57807280D01*
X113209605Y-58420000D01*
X114001930Y-59212325D01*
X114242931Y-59144265D01*
X114427767Y-58624966D01*
X114427767Y-64011154D01*
X113954462Y-64035195D01*
X113822325Y-64089927D01*
X113822325Y-59391930D01*
X113030000Y-58599605D01*
X112850395Y-58779210D01*
X112850395Y-58420000D01*
X112058070Y-57627675D01*
X111817069Y-57695735D01*
X111632233Y-58215034D01*
X111660195Y-58765538D01*
X111817069Y-59144265D01*
X112058070Y-59212325D01*
X112850395Y-58420000D01*
X112850395Y-58779210D01*
X112237675Y-59391930D01*
X112305735Y-59632931D01*
X112825034Y-59817767D01*
X113375538Y-59789805D01*
X113754265Y-59632931D01*
X113822325Y-59391930D01*
X113822325Y-64089927D01*
X113575735Y-64192069D01*
X113507675Y-64433070D01*
X114300000Y-65225395D01*
X115092325Y-64433070D01*
X115092325Y-64792280D01*
X114479605Y-65405000D01*
X115271930Y-66197325D01*
X115512931Y-66129265D01*
X115571768Y-65963959D01*
X115664686Y-66188837D01*
X116054113Y-66578944D01*
X116563184Y-66790329D01*
X117114398Y-66790810D01*
X117623837Y-66580314D01*
X118013944Y-66190887D01*
X118225329Y-65681816D01*
X118225810Y-65130602D01*
X118225810Y-67882319D01*
X118046732Y-68313587D01*
X118046269Y-68844086D01*
X118248854Y-69334380D01*
X118623647Y-69709827D01*
X118961446Y-69850093D01*
X118625620Y-69988854D01*
X118250173Y-70363647D01*
X118141474Y-70625422D01*
X117738026Y-70221974D01*
X117326008Y-69946673D01*
X116840000Y-69849999D01*
X116839994Y-69850000D01*
X115092325Y-69850000D01*
X115092325Y-66376930D01*
X114300000Y-65584605D01*
X114120395Y-65764210D01*
X114120395Y-65405000D01*
X113328070Y-64612675D01*
X113087069Y-64680735D01*
X112902233Y-65200034D01*
X112930195Y-65750538D01*
X113087069Y-66129265D01*
X113328070Y-66197325D01*
X114120395Y-65405000D01*
X114120395Y-65764210D01*
X113507675Y-66376930D01*
X113575735Y-66617931D01*
X114095034Y-66802767D01*
X114645538Y-66774805D01*
X115024265Y-66617931D01*
X115092325Y-66376930D01*
X115092325Y-69850000D01*
X112738112Y-69850000D01*
X112818199Y-69816827D01*
X112996827Y-69638198D01*
X113093500Y-69404809D01*
X113093500Y-68865750D01*
X113093500Y-68294250D01*
X113093500Y-67755191D01*
X112996827Y-67521802D01*
X112818199Y-67343173D01*
X112584810Y-67246500D01*
X112332191Y-67246500D01*
X112045750Y-67246500D01*
X111887000Y-67405250D01*
X111887000Y-68453000D01*
X112934750Y-68453000D01*
X113093500Y-68294250D01*
X113093500Y-68865750D01*
X112934750Y-68707000D01*
X111887000Y-68707000D01*
X111887000Y-68727000D01*
X111633000Y-68727000D01*
X111633000Y-68707000D01*
X111633000Y-68453000D01*
X111633000Y-67405250D01*
X111474250Y-67246500D01*
X111187809Y-67246500D01*
X110935190Y-67246500D01*
X110701801Y-67343173D01*
X110523173Y-67521802D01*
X110426500Y-67755191D01*
X110426500Y-68294250D01*
X110585250Y-68453000D01*
X111633000Y-68453000D01*
X111633000Y-68707000D01*
X110585250Y-68707000D01*
X110426500Y-68865750D01*
X110426500Y-69404809D01*
X110523173Y-69638198D01*
X110701801Y-69816827D01*
X110935190Y-69913500D01*
X111187809Y-69913500D01*
X111187990Y-69913500D01*
X111005620Y-69988854D01*
X110630173Y-70363647D01*
X110426732Y-70853587D01*
X110426269Y-71384086D01*
X110628854Y-71874380D01*
X111003647Y-72249827D01*
X111341446Y-72390093D01*
X111005620Y-72528854D01*
X110630173Y-72903647D01*
X110426732Y-73393587D01*
X110426269Y-73924086D01*
X110628854Y-74414380D01*
X111003647Y-74789827D01*
X111341446Y-74930093D01*
X111005620Y-75068854D01*
X110630173Y-75443647D01*
X110426732Y-75933587D01*
X110426269Y-76464086D01*
X110628854Y-76954380D01*
X111003647Y-77329827D01*
X111493587Y-77533268D01*
X112024086Y-77533731D01*
X112514380Y-77331146D01*
X112889827Y-76956353D01*
X113093268Y-76466413D01*
X113093731Y-75935914D01*
X112891146Y-75445620D01*
X112516353Y-75070173D01*
X112178553Y-74929906D01*
X112514380Y-74791146D01*
X112889827Y-74416353D01*
X113093268Y-73926413D01*
X113093731Y-73395914D01*
X112891146Y-72905620D01*
X112516353Y-72530173D01*
X112178779Y-72390000D01*
X116313948Y-72390000D01*
X118185851Y-74261903D01*
X118248854Y-74414380D01*
X118623647Y-74789827D01*
X118961446Y-74930093D01*
X118625620Y-75068854D01*
X118250173Y-75443647D01*
X118046732Y-75933587D01*
X118046269Y-76464086D01*
X118248854Y-76954380D01*
X118623647Y-77329827D01*
X119113587Y-77533268D01*
X119644086Y-77533731D01*
X120134380Y-77331146D01*
X120509827Y-76956353D01*
X120713268Y-76466413D01*
X120713731Y-75935914D01*
X120713731Y-80879561D01*
X120555314Y-80496163D01*
X120165887Y-80106056D01*
X119656816Y-79894671D01*
X119105602Y-79894190D01*
X118596163Y-80104686D01*
X118206056Y-80494113D01*
X117994671Y-81003184D01*
X117994190Y-81554398D01*
X118204686Y-82063837D01*
X118594113Y-82453944D01*
X118809496Y-82543378D01*
X118655735Y-82607069D01*
X118587675Y-82848070D01*
X119380000Y-83640395D01*
X120172325Y-82848070D01*
X120104265Y-82607069D01*
X119938959Y-82548231D01*
X120163837Y-82455314D01*
X120553944Y-82065887D01*
X120765329Y-81556816D01*
X120765810Y-81005602D01*
X120765810Y-83789561D01*
X120749805Y-83474462D01*
X120592931Y-83095735D01*
X120351930Y-83027675D01*
X119559605Y-83820000D01*
X120351930Y-84612325D01*
X120592931Y-84544265D01*
X120777767Y-84024966D01*
X120777767Y-104013000D01*
X120172325Y-104013000D01*
X120172325Y-84791930D01*
X119380000Y-83999605D01*
X119200395Y-84179210D01*
X119200395Y-83820000D01*
X118408070Y-83027675D01*
X118167069Y-83095735D01*
X117982233Y-83615034D01*
X118010195Y-84165538D01*
X118167069Y-84544265D01*
X118408070Y-84612325D01*
X119200395Y-83820000D01*
X119200395Y-84179210D01*
X118587675Y-84791930D01*
X118655735Y-85032931D01*
X119175034Y-85217767D01*
X119725538Y-85189805D01*
X120104265Y-85032931D01*
X120172325Y-84791930D01*
X120172325Y-104013000D01*
X116967767Y-104013000D01*
X116967767Y-99264966D01*
X116955810Y-99029561D01*
X116955810Y-93705602D01*
X116745314Y-93196163D01*
X116355887Y-92806056D01*
X115846816Y-92594671D01*
X115295602Y-92594190D01*
X115062767Y-92690395D01*
X115062767Y-89104966D01*
X115034805Y-88554462D01*
X114877931Y-88175735D01*
X114636930Y-88107675D01*
X114457325Y-88287280D01*
X114457325Y-87928070D01*
X114389265Y-87687069D01*
X113869966Y-87502233D01*
X113319462Y-87530195D01*
X112940735Y-87687069D01*
X112872675Y-87928070D01*
X113665000Y-88720395D01*
X114457325Y-87928070D01*
X114457325Y-88287280D01*
X113844605Y-88900000D01*
X114636930Y-89692325D01*
X114877931Y-89624265D01*
X115062767Y-89104966D01*
X115062767Y-92690395D01*
X114786163Y-92804686D01*
X114457325Y-93132950D01*
X114457325Y-89871930D01*
X113665000Y-89079605D01*
X113485395Y-89259210D01*
X113485395Y-88900000D01*
X112693070Y-88107675D01*
X112452069Y-88175735D01*
X112393231Y-88341040D01*
X112300314Y-88116163D01*
X111910887Y-87726056D01*
X111401816Y-87514671D01*
X110850602Y-87514190D01*
X110341163Y-87724686D01*
X109951056Y-88114113D01*
X109739671Y-88623184D01*
X109739190Y-89174398D01*
X109949686Y-89683837D01*
X110339113Y-90073944D01*
X110848184Y-90285329D01*
X111399398Y-90285810D01*
X111908837Y-90075314D01*
X112298944Y-89685887D01*
X112388378Y-89470503D01*
X112452069Y-89624265D01*
X112693070Y-89692325D01*
X113485395Y-88900000D01*
X113485395Y-89259210D01*
X112872675Y-89871930D01*
X112940735Y-90112931D01*
X113460034Y-90297767D01*
X114010538Y-90269805D01*
X114389265Y-90112931D01*
X114457325Y-89871930D01*
X114457325Y-93132950D01*
X114396056Y-93194113D01*
X114184671Y-93703184D01*
X114184190Y-94254398D01*
X114394686Y-94763837D01*
X114784113Y-95153944D01*
X115293184Y-95365329D01*
X115844398Y-95365810D01*
X116353837Y-95155314D01*
X116743944Y-94765887D01*
X116955329Y-94256816D01*
X116955810Y-93705602D01*
X116955810Y-99029561D01*
X116939805Y-98714462D01*
X116782931Y-98335735D01*
X116541930Y-98267675D01*
X116362325Y-98447280D01*
X116362325Y-98088070D01*
X116294265Y-97847069D01*
X115774966Y-97662233D01*
X115224462Y-97690195D01*
X114845735Y-97847069D01*
X114777675Y-98088070D01*
X115570000Y-98880395D01*
X116362325Y-98088070D01*
X116362325Y-98447280D01*
X115749605Y-99060000D01*
X116541930Y-99852325D01*
X116782931Y-99784265D01*
X116967767Y-99264966D01*
X116967767Y-104013000D01*
X116362325Y-104013000D01*
X116362325Y-100031930D01*
X115570000Y-99239605D01*
X115390395Y-99419210D01*
X115390395Y-99060000D01*
X114598070Y-98267675D01*
X114357069Y-98335735D01*
X114172233Y-98855034D01*
X114200195Y-99405538D01*
X114357069Y-99784265D01*
X114598070Y-99852325D01*
X115390395Y-99060000D01*
X115390395Y-99419210D01*
X114777675Y-100031930D01*
X114845735Y-100272931D01*
X115365034Y-100457767D01*
X115915538Y-100429805D01*
X116294265Y-100272931D01*
X116362325Y-100031930D01*
X116362325Y-104013000D01*
X113030000Y-104013000D01*
X109707680Y-104013000D01*
X109707680Y-80502760D01*
X109707680Y-79502000D01*
X109707680Y-79248000D01*
X109707680Y-78247240D01*
X109515616Y-77535671D01*
X109065867Y-76951767D01*
X108426903Y-76584422D01*
X108326930Y-76558624D01*
X108326930Y-69579490D01*
X108326930Y-67580510D01*
X108279953Y-67338387D01*
X108140163Y-67125583D01*
X107929130Y-66983133D01*
X107679490Y-66933070D01*
X105680510Y-66933070D01*
X105438387Y-66980047D01*
X105225583Y-67119837D01*
X105083133Y-67330870D01*
X105033070Y-67580510D01*
X105033070Y-69579490D01*
X105080047Y-69821613D01*
X105219837Y-70034417D01*
X105430870Y-70176867D01*
X105680510Y-70226930D01*
X107679490Y-70226930D01*
X107921613Y-70179953D01*
X108134417Y-70040163D01*
X108276867Y-69829130D01*
X108326930Y-69579490D01*
X108326930Y-76558624D01*
X108314774Y-76555487D01*
X108314774Y-73336306D01*
X108066462Y-72735345D01*
X107607073Y-72275154D01*
X107006547Y-72025794D01*
X106356306Y-72025226D01*
X105755345Y-72273538D01*
X105295154Y-72732927D01*
X105045794Y-73333453D01*
X105045226Y-73983694D01*
X105293538Y-74584655D01*
X105752927Y-75044846D01*
X106353453Y-75294206D01*
X107003694Y-75294774D01*
X107604655Y-75046462D01*
X108064846Y-74587073D01*
X108314206Y-73986547D01*
X108314774Y-73336306D01*
X108314774Y-76555487D01*
X108242595Y-76536862D01*
X107950000Y-76652989D01*
X107950000Y-79248000D01*
X109707680Y-79248000D01*
X109707680Y-79502000D01*
X107950000Y-79502000D01*
X107950000Y-82097011D01*
X108242595Y-82213138D01*
X108426903Y-82165578D01*
X109065867Y-81798233D01*
X109515616Y-81214329D01*
X109707680Y-80502760D01*
X109707680Y-104013000D01*
X109595401Y-104013000D01*
X109595401Y-100594418D01*
X109571341Y-99944623D01*
X109368965Y-99456042D01*
X109102163Y-99357443D01*
X108922557Y-99537048D01*
X108922557Y-99177837D01*
X108823958Y-98911035D01*
X108214418Y-98684599D01*
X107696000Y-98703794D01*
X107696000Y-82097011D01*
X107696000Y-79502000D01*
X107696000Y-79248000D01*
X107696000Y-76652989D01*
X107403405Y-76536862D01*
X107219097Y-76584422D01*
X106580133Y-76951767D01*
X106130384Y-77535671D01*
X105938320Y-78247240D01*
X105938320Y-79248000D01*
X107696000Y-79248000D01*
X107696000Y-79502000D01*
X105938320Y-79502000D01*
X105938320Y-80502760D01*
X106130384Y-81214329D01*
X106580133Y-81798233D01*
X107219097Y-82165578D01*
X107403405Y-82213138D01*
X107696000Y-82097011D01*
X107696000Y-98703794D01*
X107564623Y-98708659D01*
X107076042Y-98911035D01*
X106977443Y-99177837D01*
X107950000Y-100150395D01*
X108922557Y-99177837D01*
X108922557Y-99537048D01*
X108129605Y-100330000D01*
X109102163Y-101302557D01*
X109368965Y-101203958D01*
X109595401Y-100594418D01*
X109595401Y-104013000D01*
X108922557Y-104013000D01*
X108922557Y-101482163D01*
X107950000Y-100509605D01*
X107770395Y-100689210D01*
X107770395Y-100330000D01*
X106797837Y-99357443D01*
X106531035Y-99456042D01*
X106304599Y-100065582D01*
X106328659Y-100715377D01*
X106531035Y-101203958D01*
X106797837Y-101302557D01*
X107770395Y-100330000D01*
X107770395Y-100689210D01*
X106977443Y-101482163D01*
X107076042Y-101748965D01*
X107685582Y-101975401D01*
X108335377Y-101951341D01*
X108823958Y-101748965D01*
X108922557Y-101482163D01*
X108922557Y-104013000D01*
X107494605Y-104013000D01*
X105537000Y-102055395D01*
X105537000Y-74877395D01*
X104192605Y-73533000D01*
X98154602Y-73533000D01*
X98154774Y-73336306D01*
X98154774Y-68256306D01*
X97906462Y-67655345D01*
X97447073Y-67195154D01*
X96846547Y-66945794D01*
X96196306Y-66945226D01*
X95595345Y-67193538D01*
X95135154Y-67652927D01*
X94885794Y-68253453D01*
X94885226Y-68903694D01*
X95133538Y-69504655D01*
X95592927Y-69964846D01*
X96193453Y-70214206D01*
X96843694Y-70214774D01*
X97444655Y-69966462D01*
X97904846Y-69507073D01*
X98154206Y-68906547D01*
X98154774Y-68256306D01*
X98154774Y-73336306D01*
X97906462Y-72735345D01*
X97447073Y-72275154D01*
X96846547Y-72025794D01*
X96196306Y-72025226D01*
X95595345Y-72273538D01*
X95135154Y-72732927D01*
X94885794Y-73333453D01*
X94885619Y-73533000D01*
X92007723Y-73533000D01*
X92007723Y-61303813D01*
X92007723Y-56303813D01*
X91991497Y-55454613D01*
X91697739Y-54745418D01*
X91378970Y-54585635D01*
X91199365Y-54765240D01*
X91199365Y-54406030D01*
X91039582Y-54087261D01*
X90248813Y-53777277D01*
X89399613Y-53793503D01*
X88690418Y-54087261D01*
X88530635Y-54406030D01*
X89865000Y-55740395D01*
X91199365Y-54406030D01*
X91199365Y-54765240D01*
X90044605Y-55920000D01*
X91378970Y-57254365D01*
X91697739Y-57094582D01*
X92007723Y-56303813D01*
X92007723Y-61303813D01*
X91991497Y-60454613D01*
X91697739Y-59745418D01*
X91378970Y-59585635D01*
X91199365Y-59765240D01*
X91199365Y-59406030D01*
X91199365Y-57433970D01*
X89865000Y-56099605D01*
X89685395Y-56279210D01*
X89685395Y-55920000D01*
X88351030Y-54585635D01*
X88032261Y-54745418D01*
X87722277Y-55536187D01*
X87738503Y-56385387D01*
X88032261Y-57094582D01*
X88351030Y-57254365D01*
X89685395Y-55920000D01*
X89685395Y-56279210D01*
X88530635Y-57433970D01*
X88690418Y-57752739D01*
X89481187Y-58062723D01*
X90330387Y-58046497D01*
X91039582Y-57752739D01*
X91199365Y-57433970D01*
X91199365Y-59406030D01*
X91039582Y-59087261D01*
X90248813Y-58777277D01*
X89399613Y-58793503D01*
X88690418Y-59087261D01*
X88530635Y-59406030D01*
X89865000Y-60740395D01*
X91199365Y-59406030D01*
X91199365Y-59765240D01*
X90044605Y-60920000D01*
X91378970Y-62254365D01*
X91697739Y-62094582D01*
X92007723Y-61303813D01*
X92007723Y-73533000D01*
X91199365Y-73533000D01*
X91199365Y-62433970D01*
X89865000Y-61099605D01*
X89685395Y-61279210D01*
X89685395Y-60920000D01*
X88351030Y-59585635D01*
X88032261Y-59745418D01*
X87722277Y-60536187D01*
X87738503Y-61385387D01*
X88032261Y-62094582D01*
X88351030Y-62254365D01*
X89685395Y-60920000D01*
X89685395Y-61279210D01*
X88530635Y-62433970D01*
X88690418Y-62752739D01*
X89481187Y-63062723D01*
X90330387Y-63046497D01*
X91039582Y-62752739D01*
X91199365Y-62433970D01*
X91199365Y-73533000D01*
X84997723Y-73533000D01*
X84997723Y-61303813D01*
X84997723Y-56303813D01*
X84981497Y-55454613D01*
X84687739Y-54745418D01*
X84368970Y-54585635D01*
X84189365Y-54765240D01*
X84189365Y-54406030D01*
X84029582Y-54087261D01*
X83238813Y-53777277D01*
X82389613Y-53793503D01*
X81680418Y-54087261D01*
X81520635Y-54406030D01*
X82855000Y-55740395D01*
X84189365Y-54406030D01*
X84189365Y-54765240D01*
X83034605Y-55920000D01*
X84368970Y-57254365D01*
X84687739Y-57094582D01*
X84997723Y-56303813D01*
X84997723Y-61303813D01*
X84981497Y-60454613D01*
X84687739Y-59745418D01*
X84368970Y-59585635D01*
X84189365Y-59765240D01*
X84189365Y-59406030D01*
X84189365Y-57433970D01*
X82855000Y-56099605D01*
X82675395Y-56279210D01*
X82675395Y-55920000D01*
X81341030Y-54585635D01*
X81022261Y-54745418D01*
X80712277Y-55536187D01*
X80728503Y-56385387D01*
X81022261Y-57094582D01*
X81341030Y-57254365D01*
X82675395Y-55920000D01*
X82675395Y-56279210D01*
X81520635Y-57433970D01*
X81680418Y-57752739D01*
X82471187Y-58062723D01*
X83320387Y-58046497D01*
X84029582Y-57752739D01*
X84189365Y-57433970D01*
X84189365Y-59406030D01*
X84029582Y-59087261D01*
X83238813Y-58777277D01*
X82389613Y-58793503D01*
X81680418Y-59087261D01*
X81520635Y-59406030D01*
X82855000Y-60740395D01*
X84189365Y-59406030D01*
X84189365Y-59765240D01*
X83034605Y-60920000D01*
X84368970Y-62254365D01*
X84687739Y-62094582D01*
X84997723Y-61303813D01*
X84997723Y-73533000D01*
X84189365Y-73533000D01*
X84189365Y-62433970D01*
X82855000Y-61099605D01*
X82675395Y-61279210D01*
X82675395Y-60920000D01*
X81341030Y-59585635D01*
X81022261Y-59745418D01*
X80712277Y-60536187D01*
X80728503Y-61385387D01*
X81022261Y-62094582D01*
X81341030Y-62254365D01*
X82675395Y-60920000D01*
X82675395Y-61279210D01*
X81520635Y-62433970D01*
X81680418Y-62752739D01*
X82471187Y-63062723D01*
X83320387Y-63046497D01*
X84029582Y-62752739D01*
X84189365Y-62433970D01*
X84189365Y-73533000D01*
X80697605Y-73533000D01*
X78232000Y-71067395D01*
X78232000Y-53467000D01*
X141478000Y-53467000D01*
X141478000Y-104013000D01*
X141478000Y-104013000D01*
G37*
X141478000Y-104013000D02*
X138997723Y-104013000D01*
X138997723Y-61303813D01*
X138997723Y-56303813D01*
X138981497Y-55454613D01*
X138687739Y-54745418D01*
X138368970Y-54585635D01*
X138189365Y-54765240D01*
X138189365Y-54406030D01*
X138029582Y-54087261D01*
X137238813Y-53777277D01*
X136389613Y-53793503D01*
X135680418Y-54087261D01*
X135520635Y-54406030D01*
X136855000Y-55740395D01*
X138189365Y-54406030D01*
X138189365Y-54765240D01*
X137034605Y-55920000D01*
X138368970Y-57254365D01*
X138687739Y-57094582D01*
X138997723Y-56303813D01*
X138997723Y-61303813D01*
X138981497Y-60454613D01*
X138687739Y-59745418D01*
X138368970Y-59585635D01*
X138189365Y-59765240D01*
X138189365Y-59406030D01*
X138189365Y-57433970D01*
X136855000Y-56099605D01*
X136675395Y-56279210D01*
X136675395Y-55920000D01*
X135341030Y-54585635D01*
X135022261Y-54745418D01*
X134712277Y-55536187D01*
X134728503Y-56385387D01*
X135022261Y-57094582D01*
X135341030Y-57254365D01*
X136675395Y-55920000D01*
X136675395Y-56279210D01*
X135520635Y-57433970D01*
X135680418Y-57752739D01*
X136471187Y-58062723D01*
X137320387Y-58046497D01*
X138029582Y-57752739D01*
X138189365Y-57433970D01*
X138189365Y-59406030D01*
X138029582Y-59087261D01*
X137238813Y-58777277D01*
X136389613Y-58793503D01*
X135680418Y-59087261D01*
X135520635Y-59406030D01*
X136855000Y-60740395D01*
X138189365Y-59406030D01*
X138189365Y-59765240D01*
X137034605Y-60920000D01*
X138368970Y-62254365D01*
X138687739Y-62094582D01*
X138997723Y-61303813D01*
X138997723Y-104013000D01*
X138990370Y-104013000D01*
X138990370Y-101137185D01*
X138990370Y-96137185D01*
X138666020Y-95352200D01*
X138189365Y-94874712D01*
X138189365Y-62433970D01*
X136855000Y-61099605D01*
X136675395Y-61279210D01*
X136675395Y-60920000D01*
X135341030Y-59585635D01*
X135022261Y-59745418D01*
X134712277Y-60536187D01*
X134728503Y-61385387D01*
X135022261Y-62094582D01*
X135341030Y-62254365D01*
X136675395Y-60920000D01*
X136675395Y-61279210D01*
X135520635Y-62433970D01*
X135680418Y-62752739D01*
X136471187Y-63062723D01*
X137320387Y-63046497D01*
X138029582Y-62752739D01*
X138189365Y-62433970D01*
X138189365Y-94874712D01*
X138065959Y-94751091D01*
X137287767Y-94427957D01*
X137287767Y-78944966D01*
X137259805Y-78394462D01*
X137102931Y-78015735D01*
X136861930Y-77947675D01*
X136682325Y-78127280D01*
X136682325Y-77768070D01*
X136614265Y-77527069D01*
X136094966Y-77342233D01*
X136017242Y-77346180D01*
X136017242Y-73383339D01*
X135805010Y-72869697D01*
X135412370Y-72476371D01*
X135204487Y-72390050D01*
X135410303Y-72305010D01*
X135803629Y-71912370D01*
X136016757Y-71399100D01*
X136017242Y-70843339D01*
X135805010Y-70329697D01*
X135412370Y-69936371D01*
X135204487Y-69850050D01*
X135410303Y-69765010D01*
X135803629Y-69372370D01*
X136016757Y-68859100D01*
X136017242Y-68303339D01*
X135805010Y-67789697D01*
X135412370Y-67396371D01*
X134899100Y-67183243D01*
X134343339Y-67182758D01*
X133829697Y-67394990D01*
X133436371Y-67787630D01*
X133223243Y-68300900D01*
X133222758Y-68856661D01*
X133434990Y-69370303D01*
X133827630Y-69763629D01*
X134035512Y-69849949D01*
X133829697Y-69934990D01*
X133436371Y-70327630D01*
X133223243Y-70840900D01*
X133222758Y-71396661D01*
X133434990Y-71910303D01*
X133827630Y-72303629D01*
X134035512Y-72389949D01*
X133829697Y-72474990D01*
X133436371Y-72867630D01*
X133223243Y-73380900D01*
X133222758Y-73936661D01*
X133434990Y-74450303D01*
X133827630Y-74843629D01*
X134340900Y-75056757D01*
X134896661Y-75057242D01*
X135410303Y-74845010D01*
X135803629Y-74452370D01*
X136016757Y-73939100D01*
X136017242Y-73383339D01*
X136017242Y-77346180D01*
X135544462Y-77370195D01*
X135165735Y-77527069D01*
X135097675Y-77768070D01*
X135890000Y-78560395D01*
X136682325Y-77768070D01*
X136682325Y-78127280D01*
X136069605Y-78740000D01*
X136861930Y-79532325D01*
X137102931Y-79464265D01*
X137287767Y-78944966D01*
X137287767Y-94427957D01*
X137281541Y-94425372D01*
X136682325Y-94424848D01*
X136682325Y-79711930D01*
X135890000Y-78919605D01*
X135710395Y-79099210D01*
X135710395Y-78740000D01*
X134918070Y-77947675D01*
X134677069Y-78015735D01*
X134618231Y-78181040D01*
X134525314Y-77956163D01*
X134135887Y-77566056D01*
X133626816Y-77354671D01*
X133075602Y-77354190D01*
X132566163Y-77564686D01*
X132176056Y-77954113D01*
X131987723Y-78407668D01*
X131987723Y-61303813D01*
X131987723Y-56303813D01*
X131971497Y-55454613D01*
X131677739Y-54745418D01*
X131358970Y-54585635D01*
X131179365Y-54765240D01*
X131179365Y-54406030D01*
X131019582Y-54087261D01*
X130228813Y-53777277D01*
X129379613Y-53793503D01*
X128670418Y-54087261D01*
X128510635Y-54406030D01*
X129845000Y-55740395D01*
X131179365Y-54406030D01*
X131179365Y-54765240D01*
X130024605Y-55920000D01*
X131358970Y-57254365D01*
X131677739Y-57094582D01*
X131987723Y-56303813D01*
X131987723Y-61303813D01*
X131971497Y-60454613D01*
X131677739Y-59745418D01*
X131358970Y-59585635D01*
X131179365Y-59765240D01*
X131179365Y-59406030D01*
X131179365Y-57433970D01*
X129845000Y-56099605D01*
X129665395Y-56279210D01*
X129665395Y-55920000D01*
X128331030Y-54585635D01*
X128012261Y-54745418D01*
X127702277Y-55536187D01*
X127718503Y-56385387D01*
X128012261Y-57094582D01*
X128331030Y-57254365D01*
X129665395Y-55920000D01*
X129665395Y-56279210D01*
X128510635Y-57433970D01*
X128670418Y-57752739D01*
X129461187Y-58062723D01*
X130310387Y-58046497D01*
X131019582Y-57752739D01*
X131179365Y-57433970D01*
X131179365Y-59406030D01*
X131019582Y-59087261D01*
X130228813Y-58777277D01*
X129379613Y-58793503D01*
X128670418Y-59087261D01*
X128510635Y-59406030D01*
X129845000Y-60740395D01*
X131179365Y-59406030D01*
X131179365Y-59765240D01*
X130024605Y-60920000D01*
X131358970Y-62254365D01*
X131677739Y-62094582D01*
X131987723Y-61303813D01*
X131987723Y-78407668D01*
X131964671Y-78463184D01*
X131964190Y-79014398D01*
X132174686Y-79523837D01*
X132564113Y-79913944D01*
X133073184Y-80125329D01*
X133624398Y-80125810D01*
X134133837Y-79915314D01*
X134523944Y-79525887D01*
X134613378Y-79310503D01*
X134677069Y-79464265D01*
X134918070Y-79532325D01*
X135710395Y-78740000D01*
X135710395Y-79099210D01*
X135097675Y-79711930D01*
X135165735Y-79952931D01*
X135685034Y-80137767D01*
X136235538Y-80109805D01*
X136614265Y-79952931D01*
X136682325Y-79711930D01*
X136682325Y-94424848D01*
X136432185Y-94424630D01*
X136017242Y-94596081D01*
X136017242Y-88623339D01*
X135805010Y-88109697D01*
X135412370Y-87716371D01*
X135204487Y-87630050D01*
X135410303Y-87545010D01*
X135803629Y-87152370D01*
X136016757Y-86639100D01*
X136017242Y-86083339D01*
X135805010Y-85569697D01*
X135412370Y-85176371D01*
X135204487Y-85090050D01*
X135410303Y-85005010D01*
X135803629Y-84612370D01*
X136016757Y-84099100D01*
X136017242Y-83543339D01*
X135805010Y-83029697D01*
X135412370Y-82636371D01*
X134899100Y-82423243D01*
X134343339Y-82422758D01*
X133829697Y-82634990D01*
X133436371Y-83027630D01*
X133223243Y-83540900D01*
X133222758Y-84096661D01*
X133434990Y-84610303D01*
X133827630Y-85003629D01*
X134035512Y-85089949D01*
X133829697Y-85174990D01*
X133436371Y-85567630D01*
X133223243Y-86080900D01*
X133222758Y-86636661D01*
X133434990Y-87150303D01*
X133827630Y-87543629D01*
X134035512Y-87629949D01*
X133829697Y-87714990D01*
X133436371Y-88107630D01*
X133223243Y-88620900D01*
X133222758Y-89176661D01*
X133434990Y-89690303D01*
X133827630Y-90083629D01*
X134340900Y-90296757D01*
X134896661Y-90297242D01*
X135410303Y-90085010D01*
X135803629Y-89692370D01*
X136016757Y-89179100D01*
X136017242Y-88623339D01*
X136017242Y-94596081D01*
X135647200Y-94748980D01*
X135046091Y-95349041D01*
X134720372Y-96133459D01*
X134719630Y-96982815D01*
X135043980Y-97767800D01*
X135644041Y-98368909D01*
X136428459Y-98694628D01*
X137277815Y-98695370D01*
X138062800Y-98371020D01*
X138663909Y-97770959D01*
X138989628Y-96986541D01*
X138990370Y-96137185D01*
X138990370Y-101137185D01*
X138666020Y-100352200D01*
X138065959Y-99751091D01*
X137281541Y-99425372D01*
X136432185Y-99424630D01*
X135647200Y-99748980D01*
X135046091Y-100349041D01*
X134720372Y-101133459D01*
X134719630Y-101982815D01*
X135043980Y-102767800D01*
X135644041Y-103368909D01*
X136428459Y-103694628D01*
X137277815Y-103695370D01*
X138062800Y-103371020D01*
X138663909Y-102770959D01*
X138989628Y-101986541D01*
X138990370Y-101137185D01*
X138990370Y-104013000D01*
X131980370Y-104013000D01*
X131980370Y-101137185D01*
X131980370Y-96137185D01*
X131656020Y-95352200D01*
X131179365Y-94874712D01*
X131179365Y-62433970D01*
X129845000Y-61099605D01*
X129665395Y-61279210D01*
X129665395Y-60920000D01*
X128331030Y-59585635D01*
X128012261Y-59745418D01*
X127702277Y-60536187D01*
X127718503Y-61385387D01*
X128012261Y-62094582D01*
X128331030Y-62254365D01*
X129665395Y-60920000D01*
X129665395Y-61279210D01*
X128510635Y-62433970D01*
X128670418Y-62752739D01*
X129461187Y-63062723D01*
X130310387Y-63046497D01*
X131019582Y-62752739D01*
X131179365Y-62433970D01*
X131179365Y-94874712D01*
X131055959Y-94751091D01*
X130271541Y-94425372D01*
X129422185Y-94424630D01*
X128646930Y-94744959D01*
X128646930Y-92439490D01*
X128646930Y-90440510D01*
X128646930Y-67039490D01*
X128646930Y-65040510D01*
X128599953Y-64798387D01*
X128460163Y-64585583D01*
X128249130Y-64443133D01*
X127999490Y-64393070D01*
X126000510Y-64393070D01*
X125758387Y-64440047D01*
X125545583Y-64579837D01*
X125403133Y-64790870D01*
X125353070Y-65040510D01*
X125353070Y-67039490D01*
X125400047Y-67281613D01*
X125539837Y-67494417D01*
X125750870Y-67636867D01*
X126000510Y-67686930D01*
X127999490Y-67686930D01*
X128241613Y-67639953D01*
X128454417Y-67500163D01*
X128596867Y-67289130D01*
X128646930Y-67039490D01*
X128646930Y-90440510D01*
X128634774Y-90377857D01*
X128634774Y-80956306D01*
X128634774Y-75876306D01*
X128386462Y-75275345D01*
X127927073Y-74815154D01*
X127326547Y-74565794D01*
X126676306Y-74565226D01*
X126075345Y-74813538D01*
X125615154Y-75272927D01*
X125365794Y-75873453D01*
X125365226Y-76523694D01*
X125613538Y-77124655D01*
X126072927Y-77584846D01*
X126673453Y-77834206D01*
X127323694Y-77834774D01*
X127924655Y-77586462D01*
X128384846Y-77127073D01*
X128634206Y-76526547D01*
X128634774Y-75876306D01*
X128634774Y-80956306D01*
X128386462Y-80355345D01*
X127927073Y-79895154D01*
X127326547Y-79645794D01*
X126676306Y-79645226D01*
X126075345Y-79893538D01*
X125615154Y-80352927D01*
X125365794Y-80953453D01*
X125365226Y-81603694D01*
X125613538Y-82204655D01*
X126072927Y-82664846D01*
X126673453Y-82914206D01*
X127323694Y-82914774D01*
X127924655Y-82666462D01*
X128384846Y-82207073D01*
X128634206Y-81606547D01*
X128634774Y-80956306D01*
X128634774Y-90377857D01*
X128599953Y-90198387D01*
X128460163Y-89985583D01*
X128249130Y-89843133D01*
X127999490Y-89793070D01*
X126000510Y-89793070D01*
X125758387Y-89840047D01*
X125545583Y-89979837D01*
X125403133Y-90190870D01*
X125353070Y-90440510D01*
X125353070Y-92439490D01*
X125400047Y-92681613D01*
X125539837Y-92894417D01*
X125750870Y-93036867D01*
X126000510Y-93086930D01*
X127999490Y-93086930D01*
X128241613Y-93039953D01*
X128454417Y-92900163D01*
X128596867Y-92689130D01*
X128646930Y-92439490D01*
X128646930Y-94744959D01*
X128637200Y-94748980D01*
X128036091Y-95349041D01*
X127710372Y-96133459D01*
X127709630Y-96982815D01*
X128033980Y-97767800D01*
X128634041Y-98368909D01*
X129418459Y-98694628D01*
X130267815Y-98695370D01*
X131052800Y-98371020D01*
X131653909Y-97770959D01*
X131979628Y-96986541D01*
X131980370Y-96137185D01*
X131980370Y-101137185D01*
X131656020Y-100352200D01*
X131055959Y-99751091D01*
X130271541Y-99425372D01*
X129422185Y-99424630D01*
X128637200Y-99748980D01*
X128036091Y-100349041D01*
X127710372Y-101133459D01*
X127709630Y-101982815D01*
X128033980Y-102767800D01*
X128634041Y-103368909D01*
X129418459Y-103694628D01*
X130267815Y-103695370D01*
X131052800Y-103371020D01*
X131653909Y-102770959D01*
X131979628Y-101986541D01*
X131980370Y-101137185D01*
X131980370Y-104013000D01*
X124824774Y-104013000D01*
X124824774Y-91116306D01*
X124824774Y-80956306D01*
X124824774Y-75876306D01*
X124824774Y-65716306D01*
X124576462Y-65115345D01*
X124117073Y-64655154D01*
X123516547Y-64405794D01*
X122866306Y-64405226D01*
X122265345Y-64653538D01*
X121805154Y-65112927D01*
X121555794Y-65713453D01*
X121555226Y-66363694D01*
X121803538Y-66964655D01*
X122262927Y-67424846D01*
X122863453Y-67674206D01*
X123513694Y-67674774D01*
X124114655Y-67426462D01*
X124574846Y-66967073D01*
X124824206Y-66366547D01*
X124824774Y-65716306D01*
X124824774Y-75876306D01*
X124576462Y-75275345D01*
X124117073Y-74815154D01*
X123516547Y-74565794D01*
X122866306Y-74565226D01*
X122265345Y-74813538D01*
X121805154Y-75272927D01*
X121555794Y-75873453D01*
X121555226Y-76523694D01*
X121803538Y-77124655D01*
X122262927Y-77584846D01*
X122863453Y-77834206D01*
X123513694Y-77834774D01*
X124114655Y-77586462D01*
X124574846Y-77127073D01*
X124824206Y-76526547D01*
X124824774Y-75876306D01*
X124824774Y-80956306D01*
X124576462Y-80355345D01*
X124117073Y-79895154D01*
X123516547Y-79645794D01*
X122866306Y-79645226D01*
X122265345Y-79893538D01*
X121805154Y-80352927D01*
X121555794Y-80953453D01*
X121555226Y-81603694D01*
X121803538Y-82204655D01*
X122262927Y-82664846D01*
X122863453Y-82914206D01*
X123513694Y-82914774D01*
X124114655Y-82666462D01*
X124574846Y-82207073D01*
X124824206Y-81606547D01*
X124824774Y-80956306D01*
X124824774Y-91116306D01*
X124576462Y-90515345D01*
X124117073Y-90055154D01*
X123516547Y-89805794D01*
X122866306Y-89805226D01*
X122265345Y-90053538D01*
X121805154Y-90512927D01*
X121555794Y-91113453D01*
X121555226Y-91763694D01*
X121803538Y-92364655D01*
X122262927Y-92824846D01*
X122863453Y-93074206D01*
X123513694Y-93074774D01*
X124114655Y-92826462D01*
X124574846Y-92367073D01*
X124824206Y-91766547D01*
X124824774Y-91116306D01*
X124824774Y-104013000D01*
X120777767Y-104013000D01*
X120777767Y-84024966D01*
X120765810Y-83789561D01*
X120765810Y-81005602D01*
X120713731Y-80879561D01*
X120713731Y-75935914D01*
X120511146Y-75445620D01*
X120136353Y-75070173D01*
X119798553Y-74929906D01*
X120134380Y-74791146D01*
X120509827Y-74416353D01*
X120713268Y-73926413D01*
X120713731Y-73395914D01*
X120511146Y-72905620D01*
X120136353Y-72530173D01*
X119982224Y-72466173D01*
X119874554Y-72358503D01*
X120134380Y-72251146D01*
X120509827Y-71876353D01*
X120713268Y-71386413D01*
X120713731Y-70855914D01*
X120511146Y-70365620D01*
X120136353Y-69990173D01*
X119798553Y-69849906D01*
X120134380Y-69711146D01*
X120509827Y-69336353D01*
X120713268Y-68846413D01*
X120713731Y-68315914D01*
X120511146Y-67825620D01*
X120136353Y-67450173D01*
X119646413Y-67246732D01*
X119495810Y-67246600D01*
X119495810Y-58145602D01*
X119285314Y-57636163D01*
X118895887Y-57246056D01*
X118386816Y-57034671D01*
X117835602Y-57034190D01*
X117326163Y-57244686D01*
X116936056Y-57634113D01*
X116724671Y-58143184D01*
X116724190Y-58694398D01*
X116934686Y-59203837D01*
X117324113Y-59593944D01*
X117833184Y-59805329D01*
X118384398Y-59805810D01*
X118893837Y-59595314D01*
X119283944Y-59205887D01*
X119495329Y-58696816D01*
X119495810Y-58145602D01*
X119495810Y-67246600D01*
X119115914Y-67246269D01*
X118625620Y-67448854D01*
X118250173Y-67823647D01*
X118225810Y-67882319D01*
X118225810Y-65130602D01*
X118015314Y-64621163D01*
X117625887Y-64231056D01*
X117116816Y-64019671D01*
X116565602Y-64019190D01*
X116056163Y-64229686D01*
X115666056Y-64619113D01*
X115576621Y-64834496D01*
X115512931Y-64680735D01*
X115271930Y-64612675D01*
X115092325Y-64792280D01*
X115092325Y-64433070D01*
X115024265Y-64192069D01*
X114504966Y-64007233D01*
X114427767Y-64011154D01*
X114427767Y-58624966D01*
X114399805Y-58074462D01*
X114242931Y-57695735D01*
X114001930Y-57627675D01*
X113822325Y-57807280D01*
X113822325Y-57448070D01*
X113754265Y-57207069D01*
X113234966Y-57022233D01*
X112684462Y-57050195D01*
X112305735Y-57207069D01*
X112237675Y-57448070D01*
X113030000Y-58240395D01*
X113822325Y-57448070D01*
X113822325Y-57807280D01*
X113209605Y-58420000D01*
X114001930Y-59212325D01*
X114242931Y-59144265D01*
X114427767Y-58624966D01*
X114427767Y-64011154D01*
X113954462Y-64035195D01*
X113822325Y-64089927D01*
X113822325Y-59391930D01*
X113030000Y-58599605D01*
X112850395Y-58779210D01*
X112850395Y-58420000D01*
X112058070Y-57627675D01*
X111817069Y-57695735D01*
X111632233Y-58215034D01*
X111660195Y-58765538D01*
X111817069Y-59144265D01*
X112058070Y-59212325D01*
X112850395Y-58420000D01*
X112850395Y-58779210D01*
X112237675Y-59391930D01*
X112305735Y-59632931D01*
X112825034Y-59817767D01*
X113375538Y-59789805D01*
X113754265Y-59632931D01*
X113822325Y-59391930D01*
X113822325Y-64089927D01*
X113575735Y-64192069D01*
X113507675Y-64433070D01*
X114300000Y-65225395D01*
X115092325Y-64433070D01*
X115092325Y-64792280D01*
X114479605Y-65405000D01*
X115271930Y-66197325D01*
X115512931Y-66129265D01*
X115571768Y-65963959D01*
X115664686Y-66188837D01*
X116054113Y-66578944D01*
X116563184Y-66790329D01*
X117114398Y-66790810D01*
X117623837Y-66580314D01*
X118013944Y-66190887D01*
X118225329Y-65681816D01*
X118225810Y-65130602D01*
X118225810Y-67882319D01*
X118046732Y-68313587D01*
X118046269Y-68844086D01*
X118248854Y-69334380D01*
X118623647Y-69709827D01*
X118961446Y-69850093D01*
X118625620Y-69988854D01*
X118250173Y-70363647D01*
X118141474Y-70625422D01*
X117738026Y-70221974D01*
X117326008Y-69946673D01*
X116840000Y-69849999D01*
X116839994Y-69850000D01*
X115092325Y-69850000D01*
X115092325Y-66376930D01*
X114300000Y-65584605D01*
X114120395Y-65764210D01*
X114120395Y-65405000D01*
X113328070Y-64612675D01*
X113087069Y-64680735D01*
X112902233Y-65200034D01*
X112930195Y-65750538D01*
X113087069Y-66129265D01*
X113328070Y-66197325D01*
X114120395Y-65405000D01*
X114120395Y-65764210D01*
X113507675Y-66376930D01*
X113575735Y-66617931D01*
X114095034Y-66802767D01*
X114645538Y-66774805D01*
X115024265Y-66617931D01*
X115092325Y-66376930D01*
X115092325Y-69850000D01*
X112738112Y-69850000D01*
X112818199Y-69816827D01*
X112996827Y-69638198D01*
X113093500Y-69404809D01*
X113093500Y-68865750D01*
X113093500Y-68294250D01*
X113093500Y-67755191D01*
X112996827Y-67521802D01*
X112818199Y-67343173D01*
X112584810Y-67246500D01*
X112332191Y-67246500D01*
X112045750Y-67246500D01*
X111887000Y-67405250D01*
X111887000Y-68453000D01*
X112934750Y-68453000D01*
X113093500Y-68294250D01*
X113093500Y-68865750D01*
X112934750Y-68707000D01*
X111887000Y-68707000D01*
X111887000Y-68727000D01*
X111633000Y-68727000D01*
X111633000Y-68707000D01*
X111633000Y-68453000D01*
X111633000Y-67405250D01*
X111474250Y-67246500D01*
X111187809Y-67246500D01*
X110935190Y-67246500D01*
X110701801Y-67343173D01*
X110523173Y-67521802D01*
X110426500Y-67755191D01*
X110426500Y-68294250D01*
X110585250Y-68453000D01*
X111633000Y-68453000D01*
X111633000Y-68707000D01*
X110585250Y-68707000D01*
X110426500Y-68865750D01*
X110426500Y-69404809D01*
X110523173Y-69638198D01*
X110701801Y-69816827D01*
X110935190Y-69913500D01*
X111187809Y-69913500D01*
X111187990Y-69913500D01*
X111005620Y-69988854D01*
X110630173Y-70363647D01*
X110426732Y-70853587D01*
X110426269Y-71384086D01*
X110628854Y-71874380D01*
X111003647Y-72249827D01*
X111341446Y-72390093D01*
X111005620Y-72528854D01*
X110630173Y-72903647D01*
X110426732Y-73393587D01*
X110426269Y-73924086D01*
X110628854Y-74414380D01*
X111003647Y-74789827D01*
X111341446Y-74930093D01*
X111005620Y-75068854D01*
X110630173Y-75443647D01*
X110426732Y-75933587D01*
X110426269Y-76464086D01*
X110628854Y-76954380D01*
X111003647Y-77329827D01*
X111493587Y-77533268D01*
X112024086Y-77533731D01*
X112514380Y-77331146D01*
X112889827Y-76956353D01*
X113093268Y-76466413D01*
X113093731Y-75935914D01*
X112891146Y-75445620D01*
X112516353Y-75070173D01*
X112178553Y-74929906D01*
X112514380Y-74791146D01*
X112889827Y-74416353D01*
X113093268Y-73926413D01*
X113093731Y-73395914D01*
X112891146Y-72905620D01*
X112516353Y-72530173D01*
X112178779Y-72390000D01*
X116313948Y-72390000D01*
X118185851Y-74261903D01*
X118248854Y-74414380D01*
X118623647Y-74789827D01*
X118961446Y-74930093D01*
X118625620Y-75068854D01*
X118250173Y-75443647D01*
X118046732Y-75933587D01*
X118046269Y-76464086D01*
X118248854Y-76954380D01*
X118623647Y-77329827D01*
X119113587Y-77533268D01*
X119644086Y-77533731D01*
X120134380Y-77331146D01*
X120509827Y-76956353D01*
X120713268Y-76466413D01*
X120713731Y-75935914D01*
X120713731Y-80879561D01*
X120555314Y-80496163D01*
X120165887Y-80106056D01*
X119656816Y-79894671D01*
X119105602Y-79894190D01*
X118596163Y-80104686D01*
X118206056Y-80494113D01*
X117994671Y-81003184D01*
X117994190Y-81554398D01*
X118204686Y-82063837D01*
X118594113Y-82453944D01*
X118809496Y-82543378D01*
X118655735Y-82607069D01*
X118587675Y-82848070D01*
X119380000Y-83640395D01*
X120172325Y-82848070D01*
X120104265Y-82607069D01*
X119938959Y-82548231D01*
X120163837Y-82455314D01*
X120553944Y-82065887D01*
X120765329Y-81556816D01*
X120765810Y-81005602D01*
X120765810Y-83789561D01*
X120749805Y-83474462D01*
X120592931Y-83095735D01*
X120351930Y-83027675D01*
X119559605Y-83820000D01*
X120351930Y-84612325D01*
X120592931Y-84544265D01*
X120777767Y-84024966D01*
X120777767Y-104013000D01*
X120172325Y-104013000D01*
X120172325Y-84791930D01*
X119380000Y-83999605D01*
X119200395Y-84179210D01*
X119200395Y-83820000D01*
X118408070Y-83027675D01*
X118167069Y-83095735D01*
X117982233Y-83615034D01*
X118010195Y-84165538D01*
X118167069Y-84544265D01*
X118408070Y-84612325D01*
X119200395Y-83820000D01*
X119200395Y-84179210D01*
X118587675Y-84791930D01*
X118655735Y-85032931D01*
X119175034Y-85217767D01*
X119725538Y-85189805D01*
X120104265Y-85032931D01*
X120172325Y-84791930D01*
X120172325Y-104013000D01*
X116967767Y-104013000D01*
X116967767Y-99264966D01*
X116955810Y-99029561D01*
X116955810Y-93705602D01*
X116745314Y-93196163D01*
X116355887Y-92806056D01*
X115846816Y-92594671D01*
X115295602Y-92594190D01*
X115062767Y-92690395D01*
X115062767Y-89104966D01*
X115034805Y-88554462D01*
X114877931Y-88175735D01*
X114636930Y-88107675D01*
X114457325Y-88287280D01*
X114457325Y-87928070D01*
X114389265Y-87687069D01*
X113869966Y-87502233D01*
X113319462Y-87530195D01*
X112940735Y-87687069D01*
X112872675Y-87928070D01*
X113665000Y-88720395D01*
X114457325Y-87928070D01*
X114457325Y-88287280D01*
X113844605Y-88900000D01*
X114636930Y-89692325D01*
X114877931Y-89624265D01*
X115062767Y-89104966D01*
X115062767Y-92690395D01*
X114786163Y-92804686D01*
X114457325Y-93132950D01*
X114457325Y-89871930D01*
X113665000Y-89079605D01*
X113485395Y-89259210D01*
X113485395Y-88900000D01*
X112693070Y-88107675D01*
X112452069Y-88175735D01*
X112393231Y-88341040D01*
X112300314Y-88116163D01*
X111910887Y-87726056D01*
X111401816Y-87514671D01*
X110850602Y-87514190D01*
X110341163Y-87724686D01*
X109951056Y-88114113D01*
X109739671Y-88623184D01*
X109739190Y-89174398D01*
X109949686Y-89683837D01*
X110339113Y-90073944D01*
X110848184Y-90285329D01*
X111399398Y-90285810D01*
X111908837Y-90075314D01*
X112298944Y-89685887D01*
X112388378Y-89470503D01*
X112452069Y-89624265D01*
X112693070Y-89692325D01*
X113485395Y-88900000D01*
X113485395Y-89259210D01*
X112872675Y-89871930D01*
X112940735Y-90112931D01*
X113460034Y-90297767D01*
X114010538Y-90269805D01*
X114389265Y-90112931D01*
X114457325Y-89871930D01*
X114457325Y-93132950D01*
X114396056Y-93194113D01*
X114184671Y-93703184D01*
X114184190Y-94254398D01*
X114394686Y-94763837D01*
X114784113Y-95153944D01*
X115293184Y-95365329D01*
X115844398Y-95365810D01*
X116353837Y-95155314D01*
X116743944Y-94765887D01*
X116955329Y-94256816D01*
X116955810Y-93705602D01*
X116955810Y-99029561D01*
X116939805Y-98714462D01*
X116782931Y-98335735D01*
X116541930Y-98267675D01*
X116362325Y-98447280D01*
X116362325Y-98088070D01*
X116294265Y-97847069D01*
X115774966Y-97662233D01*
X115224462Y-97690195D01*
X114845735Y-97847069D01*
X114777675Y-98088070D01*
X115570000Y-98880395D01*
X116362325Y-98088070D01*
X116362325Y-98447280D01*
X115749605Y-99060000D01*
X116541930Y-99852325D01*
X116782931Y-99784265D01*
X116967767Y-99264966D01*
X116967767Y-104013000D01*
X116362325Y-104013000D01*
X116362325Y-100031930D01*
X115570000Y-99239605D01*
X115390395Y-99419210D01*
X115390395Y-99060000D01*
X114598070Y-98267675D01*
X114357069Y-98335735D01*
X114172233Y-98855034D01*
X114200195Y-99405538D01*
X114357069Y-99784265D01*
X114598070Y-99852325D01*
X115390395Y-99060000D01*
X115390395Y-99419210D01*
X114777675Y-100031930D01*
X114845735Y-100272931D01*
X115365034Y-100457767D01*
X115915538Y-100429805D01*
X116294265Y-100272931D01*
X116362325Y-100031930D01*
X116362325Y-104013000D01*
X113030000Y-104013000D01*
X109707680Y-104013000D01*
X109707680Y-80502760D01*
X109707680Y-79502000D01*
X109707680Y-79248000D01*
X109707680Y-78247240D01*
X109515616Y-77535671D01*
X109065867Y-76951767D01*
X108426903Y-76584422D01*
X108326930Y-76558624D01*
X108326930Y-69579490D01*
X108326930Y-67580510D01*
X108279953Y-67338387D01*
X108140163Y-67125583D01*
X107929130Y-66983133D01*
X107679490Y-66933070D01*
X105680510Y-66933070D01*
X105438387Y-66980047D01*
X105225583Y-67119837D01*
X105083133Y-67330870D01*
X105033070Y-67580510D01*
X105033070Y-69579490D01*
X105080047Y-69821613D01*
X105219837Y-70034417D01*
X105430870Y-70176867D01*
X105680510Y-70226930D01*
X107679490Y-70226930D01*
X107921613Y-70179953D01*
X108134417Y-70040163D01*
X108276867Y-69829130D01*
X108326930Y-69579490D01*
X108326930Y-76558624D01*
X108314774Y-76555487D01*
X108314774Y-73336306D01*
X108066462Y-72735345D01*
X107607073Y-72275154D01*
X107006547Y-72025794D01*
X106356306Y-72025226D01*
X105755345Y-72273538D01*
X105295154Y-72732927D01*
X105045794Y-73333453D01*
X105045226Y-73983694D01*
X105293538Y-74584655D01*
X105752927Y-75044846D01*
X106353453Y-75294206D01*
X107003694Y-75294774D01*
X107604655Y-75046462D01*
X108064846Y-74587073D01*
X108314206Y-73986547D01*
X108314774Y-73336306D01*
X108314774Y-76555487D01*
X108242595Y-76536862D01*
X107950000Y-76652989D01*
X107950000Y-79248000D01*
X109707680Y-79248000D01*
X109707680Y-79502000D01*
X107950000Y-79502000D01*
X107950000Y-82097011D01*
X108242595Y-82213138D01*
X108426903Y-82165578D01*
X109065867Y-81798233D01*
X109515616Y-81214329D01*
X109707680Y-80502760D01*
X109707680Y-104013000D01*
X109595401Y-104013000D01*
X109595401Y-100594418D01*
X109571341Y-99944623D01*
X109368965Y-99456042D01*
X109102163Y-99357443D01*
X108922557Y-99537048D01*
X108922557Y-99177837D01*
X108823958Y-98911035D01*
X108214418Y-98684599D01*
X107696000Y-98703794D01*
X107696000Y-82097011D01*
X107696000Y-79502000D01*
X107696000Y-79248000D01*
X107696000Y-76652989D01*
X107403405Y-76536862D01*
X107219097Y-76584422D01*
X106580133Y-76951767D01*
X106130384Y-77535671D01*
X105938320Y-78247240D01*
X105938320Y-79248000D01*
X107696000Y-79248000D01*
X107696000Y-79502000D01*
X105938320Y-79502000D01*
X105938320Y-80502760D01*
X106130384Y-81214329D01*
X106580133Y-81798233D01*
X107219097Y-82165578D01*
X107403405Y-82213138D01*
X107696000Y-82097011D01*
X107696000Y-98703794D01*
X107564623Y-98708659D01*
X107076042Y-98911035D01*
X106977443Y-99177837D01*
X107950000Y-100150395D01*
X108922557Y-99177837D01*
X108922557Y-99537048D01*
X108129605Y-100330000D01*
X109102163Y-101302557D01*
X109368965Y-101203958D01*
X109595401Y-100594418D01*
X109595401Y-104013000D01*
X108922557Y-104013000D01*
X108922557Y-101482163D01*
X107950000Y-100509605D01*
X107770395Y-100689210D01*
X107770395Y-100330000D01*
X106797837Y-99357443D01*
X106531035Y-99456042D01*
X106304599Y-100065582D01*
X106328659Y-100715377D01*
X106531035Y-101203958D01*
X106797837Y-101302557D01*
X107770395Y-100330000D01*
X107770395Y-100689210D01*
X106977443Y-101482163D01*
X107076042Y-101748965D01*
X107685582Y-101975401D01*
X108335377Y-101951341D01*
X108823958Y-101748965D01*
X108922557Y-101482163D01*
X108922557Y-104013000D01*
X107494605Y-104013000D01*
X105537000Y-102055395D01*
X105537000Y-74877395D01*
X104192605Y-73533000D01*
X98154602Y-73533000D01*
X98154774Y-73336306D01*
X98154774Y-68256306D01*
X97906462Y-67655345D01*
X97447073Y-67195154D01*
X96846547Y-66945794D01*
X96196306Y-66945226D01*
X95595345Y-67193538D01*
X95135154Y-67652927D01*
X94885794Y-68253453D01*
X94885226Y-68903694D01*
X95133538Y-69504655D01*
X95592927Y-69964846D01*
X96193453Y-70214206D01*
X96843694Y-70214774D01*
X97444655Y-69966462D01*
X97904846Y-69507073D01*
X98154206Y-68906547D01*
X98154774Y-68256306D01*
X98154774Y-73336306D01*
X97906462Y-72735345D01*
X97447073Y-72275154D01*
X96846547Y-72025794D01*
X96196306Y-72025226D01*
X95595345Y-72273538D01*
X95135154Y-72732927D01*
X94885794Y-73333453D01*
X94885619Y-73533000D01*
X92007723Y-73533000D01*
X92007723Y-61303813D01*
X92007723Y-56303813D01*
X91991497Y-55454613D01*
X91697739Y-54745418D01*
X91378970Y-54585635D01*
X91199365Y-54765240D01*
X91199365Y-54406030D01*
X91039582Y-54087261D01*
X90248813Y-53777277D01*
X89399613Y-53793503D01*
X88690418Y-54087261D01*
X88530635Y-54406030D01*
X89865000Y-55740395D01*
X91199365Y-54406030D01*
X91199365Y-54765240D01*
X90044605Y-55920000D01*
X91378970Y-57254365D01*
X91697739Y-57094582D01*
X92007723Y-56303813D01*
X92007723Y-61303813D01*
X91991497Y-60454613D01*
X91697739Y-59745418D01*
X91378970Y-59585635D01*
X91199365Y-59765240D01*
X91199365Y-59406030D01*
X91199365Y-57433970D01*
X89865000Y-56099605D01*
X89685395Y-56279210D01*
X89685395Y-55920000D01*
X88351030Y-54585635D01*
X88032261Y-54745418D01*
X87722277Y-55536187D01*
X87738503Y-56385387D01*
X88032261Y-57094582D01*
X88351030Y-57254365D01*
X89685395Y-55920000D01*
X89685395Y-56279210D01*
X88530635Y-57433970D01*
X88690418Y-57752739D01*
X89481187Y-58062723D01*
X90330387Y-58046497D01*
X91039582Y-57752739D01*
X91199365Y-57433970D01*
X91199365Y-59406030D01*
X91039582Y-59087261D01*
X90248813Y-58777277D01*
X89399613Y-58793503D01*
X88690418Y-59087261D01*
X88530635Y-59406030D01*
X89865000Y-60740395D01*
X91199365Y-59406030D01*
X91199365Y-59765240D01*
X90044605Y-60920000D01*
X91378970Y-62254365D01*
X91697739Y-62094582D01*
X92007723Y-61303813D01*
X92007723Y-73533000D01*
X91199365Y-73533000D01*
X91199365Y-62433970D01*
X89865000Y-61099605D01*
X89685395Y-61279210D01*
X89685395Y-60920000D01*
X88351030Y-59585635D01*
X88032261Y-59745418D01*
X87722277Y-60536187D01*
X87738503Y-61385387D01*
X88032261Y-62094582D01*
X88351030Y-62254365D01*
X89685395Y-60920000D01*
X89685395Y-61279210D01*
X88530635Y-62433970D01*
X88690418Y-62752739D01*
X89481187Y-63062723D01*
X90330387Y-63046497D01*
X91039582Y-62752739D01*
X91199365Y-62433970D01*
X91199365Y-73533000D01*
X84997723Y-73533000D01*
X84997723Y-61303813D01*
X84997723Y-56303813D01*
X84981497Y-55454613D01*
X84687739Y-54745418D01*
X84368970Y-54585635D01*
X84189365Y-54765240D01*
X84189365Y-54406030D01*
X84029582Y-54087261D01*
X83238813Y-53777277D01*
X82389613Y-53793503D01*
X81680418Y-54087261D01*
X81520635Y-54406030D01*
X82855000Y-55740395D01*
X84189365Y-54406030D01*
X84189365Y-54765240D01*
X83034605Y-55920000D01*
X84368970Y-57254365D01*
X84687739Y-57094582D01*
X84997723Y-56303813D01*
X84997723Y-61303813D01*
X84981497Y-60454613D01*
X84687739Y-59745418D01*
X84368970Y-59585635D01*
X84189365Y-59765240D01*
X84189365Y-59406030D01*
X84189365Y-57433970D01*
X82855000Y-56099605D01*
X82675395Y-56279210D01*
X82675395Y-55920000D01*
X81341030Y-54585635D01*
X81022261Y-54745418D01*
X80712277Y-55536187D01*
X80728503Y-56385387D01*
X81022261Y-57094582D01*
X81341030Y-57254365D01*
X82675395Y-55920000D01*
X82675395Y-56279210D01*
X81520635Y-57433970D01*
X81680418Y-57752739D01*
X82471187Y-58062723D01*
X83320387Y-58046497D01*
X84029582Y-57752739D01*
X84189365Y-57433970D01*
X84189365Y-59406030D01*
X84029582Y-59087261D01*
X83238813Y-58777277D01*
X82389613Y-58793503D01*
X81680418Y-59087261D01*
X81520635Y-59406030D01*
X82855000Y-60740395D01*
X84189365Y-59406030D01*
X84189365Y-59765240D01*
X83034605Y-60920000D01*
X84368970Y-62254365D01*
X84687739Y-62094582D01*
X84997723Y-61303813D01*
X84997723Y-73533000D01*
X84189365Y-73533000D01*
X84189365Y-62433970D01*
X82855000Y-61099605D01*
X82675395Y-61279210D01*
X82675395Y-60920000D01*
X81341030Y-59585635D01*
X81022261Y-59745418D01*
X80712277Y-60536187D01*
X80728503Y-61385387D01*
X81022261Y-62094582D01*
X81341030Y-62254365D01*
X82675395Y-60920000D01*
X82675395Y-61279210D01*
X81520635Y-62433970D01*
X81680418Y-62752739D01*
X82471187Y-63062723D01*
X83320387Y-63046497D01*
X84029582Y-62752739D01*
X84189365Y-62433970D01*
X84189365Y-73533000D01*
X80697605Y-73533000D01*
X78232000Y-71067395D01*
X78232000Y-53467000D01*
X141478000Y-53467000D01*
X141478000Y-104013000D01*
M02*
