G04 #@! TF.FileFunction,Legend,Top*
%FSLAX46Y46*%
G04 Gerber Fmt 4.6, Leading zero omitted, Abs format (unit mm)*
G04 Created by KiCad (PCBNEW 0.201502181246+5430~21~ubuntu14.04.1-product) date Sat 28 Feb 2015 06:36:47 PM PST*
%MOMM*%
G01*
G04 APERTURE LIST*
%ADD10C,0.100000*%
%ADD11C,0.150000*%
G04 APERTURE END LIST*
D10*
D11*
X118110000Y-62738000D02*
X118110000Y-61722000D01*
X118618000Y-62230000D02*
X117602000Y-62230000D01*
X120650000Y-59690000D02*
G75*
G03X120650000Y-59690000I-5080000J0D01*
G01*
X132130800Y-77470000D02*
X137160000Y-77470000D01*
X137160000Y-77470000D02*
X137160000Y-80010000D01*
X137160000Y-80010000D02*
X132080000Y-80010000D01*
X132080000Y-80010000D02*
X132080000Y-77470000D01*
X132080000Y-78105000D02*
X132715000Y-77470000D01*
X112522000Y-93980000D02*
X113538000Y-93980000D01*
X113030000Y-94488000D02*
X113030000Y-93472000D01*
X120650000Y-91440000D02*
G75*
G03X120650000Y-91440000I-5080000J0D01*
G01*
X120650000Y-80060800D02*
X120650000Y-85090000D01*
X120650000Y-85090000D02*
X118110000Y-85090000D01*
X118110000Y-85090000D02*
X118110000Y-80010000D01*
X118110000Y-80010000D02*
X120650000Y-80010000D01*
X120015000Y-80010000D02*
X120650000Y-80645000D01*
X127000000Y-73660000D02*
X127000000Y-74676000D01*
X127000000Y-68834000D02*
X127000000Y-67564000D01*
X125730000Y-69088000D02*
X128270000Y-69088000D01*
X125730000Y-69342000D02*
X128270000Y-69342000D01*
X125730000Y-69596000D02*
X128270000Y-69596000D01*
X125730000Y-68834000D02*
X128270000Y-68834000D01*
X125730000Y-69850000D02*
X128270000Y-68580000D01*
X125730000Y-68580000D02*
X128270000Y-69850000D01*
X125730000Y-69850000D02*
X128270000Y-69850000D01*
X125730000Y-69215000D02*
X128270000Y-69215000D01*
X128270000Y-68580000D02*
X125730000Y-68580000D01*
X125730000Y-68580000D02*
X125730000Y-73660000D01*
X125730000Y-73660000D02*
X128270000Y-73660000D01*
X128270000Y-73660000D02*
X128270000Y-68580000D01*
X127000000Y-83820000D02*
X127000000Y-82804000D01*
X127000000Y-88646000D02*
X127000000Y-89916000D01*
X128270000Y-88392000D02*
X125730000Y-88392000D01*
X128270000Y-88138000D02*
X125730000Y-88138000D01*
X128270000Y-87884000D02*
X125730000Y-87884000D01*
X128270000Y-88646000D02*
X125730000Y-88646000D01*
X128270000Y-87630000D02*
X125730000Y-88900000D01*
X128270000Y-88900000D02*
X125730000Y-87630000D01*
X128270000Y-87630000D02*
X125730000Y-87630000D01*
X128270000Y-88265000D02*
X125730000Y-88265000D01*
X125730000Y-88900000D02*
X128270000Y-88900000D01*
X128270000Y-88900000D02*
X128270000Y-83820000D01*
X128270000Y-83820000D02*
X125730000Y-83820000D01*
X125730000Y-83820000D02*
X125730000Y-88900000D01*
X99060000Y-68580000D02*
X98044000Y-68580000D01*
X103886000Y-68580000D02*
X105156000Y-68580000D01*
X103632000Y-67310000D02*
X103632000Y-69850000D01*
X103378000Y-67310000D02*
X103378000Y-69850000D01*
X103124000Y-67310000D02*
X103124000Y-69850000D01*
X103886000Y-67310000D02*
X103886000Y-69850000D01*
X102870000Y-67310000D02*
X104140000Y-69850000D01*
X104140000Y-67310000D02*
X102870000Y-69850000D01*
X102870000Y-67310000D02*
X102870000Y-69850000D01*
X103505000Y-67310000D02*
X103505000Y-69850000D01*
X104140000Y-69850000D02*
X104140000Y-67310000D01*
X104140000Y-67310000D02*
X99060000Y-67310000D01*
X99060000Y-67310000D02*
X99060000Y-69850000D01*
X99060000Y-69850000D02*
X104140000Y-69850000D01*
X91440000Y-90170000D02*
X92456000Y-90170000D01*
X86614000Y-90170000D02*
X85344000Y-90170000D01*
X86868000Y-91440000D02*
X86868000Y-88900000D01*
X87122000Y-91440000D02*
X87122000Y-88900000D01*
X87376000Y-91440000D02*
X87376000Y-88900000D01*
X86614000Y-91440000D02*
X86614000Y-88900000D01*
X87630000Y-91440000D02*
X86360000Y-88900000D01*
X86360000Y-91440000D02*
X87630000Y-88900000D01*
X87630000Y-91440000D02*
X87630000Y-88900000D01*
X86995000Y-91440000D02*
X86995000Y-88900000D01*
X86360000Y-88900000D02*
X86360000Y-91440000D01*
X86360000Y-91440000D02*
X91440000Y-91440000D01*
X91440000Y-91440000D02*
X91440000Y-88900000D01*
X91440000Y-88900000D02*
X86360000Y-88900000D01*
X107871260Y-90170000D02*
G75*
G03X107871260Y-90170000I-5001260J0D01*
G01*
X108869480Y-90170000D02*
X108869480Y-95171260D01*
X108869480Y-95171260D02*
X107871260Y-96169480D01*
X107871260Y-96169480D02*
X97868740Y-96169480D01*
X97868740Y-96169480D02*
X96870520Y-95171260D01*
X96870520Y-95171260D02*
X96870520Y-85168740D01*
X96870520Y-85168740D02*
X97868740Y-84170520D01*
X97868740Y-84170520D02*
X107871260Y-84170520D01*
X107871260Y-84170520D02*
X108869480Y-85168740D01*
X108869480Y-85168740D02*
X108869480Y-90170000D01*
X124460000Y-68580000D02*
X124460000Y-73660000D01*
X124460000Y-73660000D02*
X121920000Y-73660000D01*
X121920000Y-73660000D02*
X121920000Y-68580000D01*
X121920000Y-68580000D02*
X124460000Y-68580000D01*
X123190000Y-68580000D02*
X123190000Y-67310000D01*
X123190000Y-73660000D02*
X123190000Y-74930000D01*
X124460000Y-83820000D02*
X124460000Y-88900000D01*
X124460000Y-88900000D02*
X121920000Y-88900000D01*
X121920000Y-88900000D02*
X121920000Y-83820000D01*
X121920000Y-83820000D02*
X124460000Y-83820000D01*
X123190000Y-83820000D02*
X123190000Y-82550000D01*
X123190000Y-88900000D02*
X123190000Y-90170000D01*
X99060000Y-72390000D02*
X104140000Y-72390000D01*
X104140000Y-72390000D02*
X104140000Y-74930000D01*
X104140000Y-74930000D02*
X99060000Y-74930000D01*
X99060000Y-74930000D02*
X99060000Y-72390000D01*
X99060000Y-73660000D02*
X97790000Y-73660000D01*
X104140000Y-73660000D02*
X105410000Y-73660000D01*
X116840000Y-67310000D02*
X116840000Y-68580000D01*
X116840000Y-68580000D02*
X114300000Y-68580000D01*
X114300000Y-68580000D02*
X114300000Y-67310000D01*
X118110000Y-67310000D02*
X118110000Y-77470000D01*
X118110000Y-77470000D02*
X113030000Y-77470000D01*
X113030000Y-77470000D02*
X113030000Y-67310000D01*
X113030000Y-67310000D02*
X118110000Y-67310000D01*
X89611200Y-69596000D02*
X89611200Y-82804000D01*
X85547200Y-82804000D02*
X85547200Y-69596000D01*
X89611200Y-69596000D02*
X85547200Y-69596000D01*
X85547200Y-82804000D02*
X89611200Y-82804000D01*
X133350000Y-100330000D02*
X133350000Y-97790000D01*
X134620000Y-99060000D02*
X132080000Y-99060000D01*
X135358046Y-99060000D02*
G75*
G03X135358046Y-99060000I-2008046J0D01*
G01*
X131445000Y-103505000D02*
X132080000Y-102870000D01*
X132080000Y-102870000D02*
X134620000Y-102870000D01*
X134620000Y-102870000D02*
X135255000Y-103505000D01*
X135255000Y-94615000D02*
X134620000Y-95250000D01*
X134620000Y-95250000D02*
X132080000Y-95250000D01*
X132080000Y-95250000D02*
X131445000Y-94615000D01*
X139065000Y-94615000D02*
X135255000Y-94615000D01*
X139065000Y-103505000D02*
X135255000Y-103505000D01*
X127635000Y-103505000D02*
X131445000Y-103505000D01*
X127635000Y-94615000D02*
X131445000Y-94615000D01*
X127635000Y-103505000D02*
X127635000Y-94615000D01*
X139065000Y-94615000D02*
X139065000Y-103505000D01*
X133350000Y-59690000D02*
X133350000Y-57150000D01*
X134620000Y-58420000D02*
X132080000Y-58420000D01*
X135358046Y-58420000D02*
G75*
G03X135358046Y-58420000I-2008046J0D01*
G01*
X131445000Y-62865000D02*
X132080000Y-62230000D01*
X132080000Y-62230000D02*
X134620000Y-62230000D01*
X134620000Y-62230000D02*
X135255000Y-62865000D01*
X135255000Y-53975000D02*
X134620000Y-54610000D01*
X134620000Y-54610000D02*
X132080000Y-54610000D01*
X132080000Y-54610000D02*
X131445000Y-53975000D01*
X139065000Y-53975000D02*
X135255000Y-53975000D01*
X139065000Y-62865000D02*
X135255000Y-62865000D01*
X127635000Y-62865000D02*
X131445000Y-62865000D01*
X127635000Y-53975000D02*
X131445000Y-53975000D01*
X127635000Y-62865000D02*
X127635000Y-53975000D01*
X139065000Y-53975000D02*
X139065000Y-62865000D01*
X87630000Y-100330000D02*
X87630000Y-97790000D01*
X88900000Y-99060000D02*
X86360000Y-99060000D01*
X89638046Y-99060000D02*
G75*
G03X89638046Y-99060000I-2008046J0D01*
G01*
X85725000Y-103505000D02*
X86360000Y-102870000D01*
X86360000Y-102870000D02*
X88900000Y-102870000D01*
X88900000Y-102870000D02*
X89535000Y-103505000D01*
X89535000Y-94615000D02*
X88900000Y-95250000D01*
X88900000Y-95250000D02*
X86360000Y-95250000D01*
X86360000Y-95250000D02*
X85725000Y-94615000D01*
X93345000Y-94615000D02*
X89535000Y-94615000D01*
X93345000Y-103505000D02*
X89535000Y-103505000D01*
X81915000Y-103505000D02*
X85725000Y-103505000D01*
X81915000Y-94615000D02*
X85725000Y-94615000D01*
X81915000Y-103505000D02*
X81915000Y-94615000D01*
X93345000Y-94615000D02*
X93345000Y-103505000D01*
X87630000Y-59690000D02*
X87630000Y-57150000D01*
X88900000Y-58420000D02*
X86360000Y-58420000D01*
X89638046Y-58420000D02*
G75*
G03X89638046Y-58420000I-2008046J0D01*
G01*
X85725000Y-62865000D02*
X86360000Y-62230000D01*
X86360000Y-62230000D02*
X88900000Y-62230000D01*
X88900000Y-62230000D02*
X89535000Y-62865000D01*
X89535000Y-53975000D02*
X88900000Y-54610000D01*
X88900000Y-54610000D02*
X86360000Y-54610000D01*
X86360000Y-54610000D02*
X85725000Y-53975000D01*
X93345000Y-53975000D02*
X89535000Y-53975000D01*
X93345000Y-62865000D02*
X89535000Y-62865000D01*
X81915000Y-62865000D02*
X85725000Y-62865000D01*
X81915000Y-53975000D02*
X85725000Y-53975000D01*
X81915000Y-62865000D02*
X81915000Y-53975000D01*
X93345000Y-53975000D02*
X93345000Y-62865000D01*
X139065000Y-71120000D02*
X139700000Y-70485000D01*
X140970000Y-71120000D02*
X139065000Y-71120000D01*
X139065000Y-71120000D02*
X139700000Y-71755000D01*
X138430000Y-74295000D02*
X137795000Y-74930000D01*
X137795000Y-74930000D02*
X137795000Y-75565000D01*
X138430000Y-74295000D02*
X137160000Y-73660000D01*
X137160000Y-73660000D02*
X138430000Y-73025000D01*
X138430000Y-73025000D02*
X137160000Y-72390000D01*
X137160000Y-72390000D02*
X138430000Y-71755000D01*
X138430000Y-71755000D02*
X137160000Y-71120000D01*
X137160000Y-71120000D02*
X138430000Y-70485000D01*
X138430000Y-70485000D02*
X137160000Y-69850000D01*
X137160000Y-69850000D02*
X138430000Y-69215000D01*
X138430000Y-69215000D02*
X137160000Y-68580000D01*
X137160000Y-68580000D02*
X138430000Y-67945000D01*
X138430000Y-67945000D02*
X137795000Y-67310000D01*
X137795000Y-67310000D02*
X137795000Y-66675000D01*
X134685586Y-74978530D02*
G75*
G03X134620000Y-67310000I2804414J3858530D01*
G01*
X134620000Y-74930000D02*
X132410000Y-74930000D01*
X134620000Y-67310000D02*
X132410000Y-67310000D01*
X132410000Y-74930000D02*
X132410000Y-67310000D01*
X139065000Y-86360000D02*
X139700000Y-85725000D01*
X140970000Y-86360000D02*
X139065000Y-86360000D01*
X139065000Y-86360000D02*
X139700000Y-86995000D01*
X138430000Y-89535000D02*
X137795000Y-90170000D01*
X137795000Y-90170000D02*
X137795000Y-90805000D01*
X138430000Y-89535000D02*
X137160000Y-88900000D01*
X137160000Y-88900000D02*
X138430000Y-88265000D01*
X138430000Y-88265000D02*
X137160000Y-87630000D01*
X137160000Y-87630000D02*
X138430000Y-86995000D01*
X138430000Y-86995000D02*
X137160000Y-86360000D01*
X137160000Y-86360000D02*
X138430000Y-85725000D01*
X138430000Y-85725000D02*
X137160000Y-85090000D01*
X137160000Y-85090000D02*
X138430000Y-84455000D01*
X138430000Y-84455000D02*
X137160000Y-83820000D01*
X137160000Y-83820000D02*
X138430000Y-83185000D01*
X138430000Y-83185000D02*
X137795000Y-82550000D01*
X137795000Y-82550000D02*
X137795000Y-81915000D01*
X134685586Y-90218530D02*
G75*
G03X134620000Y-82550000I2804414J3858530D01*
G01*
X134620000Y-90170000D02*
X132410000Y-90170000D01*
X134620000Y-82550000D02*
X132410000Y-82550000D01*
X132410000Y-90170000D02*
X132410000Y-82550000D01*
X110363000Y-82169000D02*
X110363000Y-76581000D01*
X110363000Y-76581000D02*
X94107000Y-76581000D01*
X94107000Y-76581000D02*
X94107000Y-82169000D01*
X94107000Y-82169000D02*
X110363000Y-82169000D01*
X109053334Y-60047143D02*
X109005715Y-60094762D01*
X108862858Y-60142381D01*
X108767620Y-60142381D01*
X108624762Y-60094762D01*
X108529524Y-59999524D01*
X108481905Y-59904286D01*
X108434286Y-59713810D01*
X108434286Y-59570952D01*
X108481905Y-59380476D01*
X108529524Y-59285238D01*
X108624762Y-59190000D01*
X108767620Y-59142381D01*
X108862858Y-59142381D01*
X109005715Y-59190000D01*
X109053334Y-59237619D01*
X110005715Y-60142381D02*
X109434286Y-60142381D01*
X109720000Y-60142381D02*
X109720000Y-59142381D01*
X109624762Y-59285238D01*
X109529524Y-59380476D01*
X109434286Y-59428095D01*
X114498572Y-57602381D02*
X113927143Y-57602381D01*
X114212857Y-57602381D02*
X114212857Y-56602381D01*
X114117619Y-56745238D01*
X114022381Y-56840476D01*
X113927143Y-56888095D01*
X115117619Y-56602381D02*
X115212858Y-56602381D01*
X115308096Y-56650000D01*
X115355715Y-56697619D01*
X115403334Y-56792857D01*
X115450953Y-56983333D01*
X115450953Y-57221429D01*
X115403334Y-57411905D01*
X115355715Y-57507143D01*
X115308096Y-57554762D01*
X115212858Y-57602381D01*
X115117619Y-57602381D01*
X115022381Y-57554762D01*
X114974762Y-57507143D01*
X114927143Y-57411905D01*
X114879524Y-57221429D01*
X114879524Y-56983333D01*
X114927143Y-56792857D01*
X114974762Y-56697619D01*
X115022381Y-56650000D01*
X115117619Y-56602381D01*
X116308096Y-56935714D02*
X116308096Y-57602381D01*
X115879524Y-56935714D02*
X115879524Y-57459524D01*
X115927143Y-57554762D01*
X116022381Y-57602381D01*
X116165239Y-57602381D01*
X116260477Y-57554762D01*
X116308096Y-57507143D01*
X117117620Y-57078571D02*
X116784286Y-57078571D01*
X116784286Y-57602381D02*
X116784286Y-56602381D01*
X117260477Y-56602381D01*
X130643334Y-79097143D02*
X130595715Y-79144762D01*
X130452858Y-79192381D01*
X130357620Y-79192381D01*
X130214762Y-79144762D01*
X130119524Y-79049524D01*
X130071905Y-78954286D01*
X130024286Y-78763810D01*
X130024286Y-78620952D01*
X130071905Y-78430476D01*
X130119524Y-78335238D01*
X130214762Y-78240000D01*
X130357620Y-78192381D01*
X130452858Y-78192381D01*
X130595715Y-78240000D01*
X130643334Y-78287619D01*
X131024286Y-78287619D02*
X131071905Y-78240000D01*
X131167143Y-78192381D01*
X131405239Y-78192381D01*
X131500477Y-78240000D01*
X131548096Y-78287619D01*
X131595715Y-78382857D01*
X131595715Y-78478095D01*
X131548096Y-78620952D01*
X130976667Y-79192381D01*
X131595715Y-79192381D01*
X115403334Y-85447143D02*
X115355715Y-85494762D01*
X115212858Y-85542381D01*
X115117620Y-85542381D01*
X114974762Y-85494762D01*
X114879524Y-85399524D01*
X114831905Y-85304286D01*
X114784286Y-85113810D01*
X114784286Y-84970952D01*
X114831905Y-84780476D01*
X114879524Y-84685238D01*
X114974762Y-84590000D01*
X115117620Y-84542381D01*
X115212858Y-84542381D01*
X115355715Y-84590000D01*
X115403334Y-84637619D01*
X115736667Y-84542381D02*
X116355715Y-84542381D01*
X116022381Y-84923333D01*
X116165239Y-84923333D01*
X116260477Y-84970952D01*
X116308096Y-85018571D01*
X116355715Y-85113810D01*
X116355715Y-85351905D01*
X116308096Y-85447143D01*
X116260477Y-85494762D01*
X116165239Y-85542381D01*
X115879524Y-85542381D01*
X115784286Y-85494762D01*
X115736667Y-85447143D01*
X114498572Y-91892381D02*
X113927143Y-91892381D01*
X114212857Y-91892381D02*
X114212857Y-90892381D01*
X114117619Y-91035238D01*
X114022381Y-91130476D01*
X113927143Y-91178095D01*
X115117619Y-90892381D02*
X115212858Y-90892381D01*
X115308096Y-90940000D01*
X115355715Y-90987619D01*
X115403334Y-91082857D01*
X115450953Y-91273333D01*
X115450953Y-91511429D01*
X115403334Y-91701905D01*
X115355715Y-91797143D01*
X115308096Y-91844762D01*
X115212858Y-91892381D01*
X115117619Y-91892381D01*
X115022381Y-91844762D01*
X114974762Y-91797143D01*
X114927143Y-91701905D01*
X114879524Y-91511429D01*
X114879524Y-91273333D01*
X114927143Y-91082857D01*
X114974762Y-90987619D01*
X115022381Y-90940000D01*
X115117619Y-90892381D01*
X116308096Y-91225714D02*
X116308096Y-91892381D01*
X115879524Y-91225714D02*
X115879524Y-91749524D01*
X115927143Y-91844762D01*
X116022381Y-91892381D01*
X116165239Y-91892381D01*
X116260477Y-91844762D01*
X116308096Y-91797143D01*
X117117620Y-91368571D02*
X116784286Y-91368571D01*
X116784286Y-91892381D02*
X116784286Y-90892381D01*
X117260477Y-90892381D01*
X119213334Y-79097143D02*
X119165715Y-79144762D01*
X119022858Y-79192381D01*
X118927620Y-79192381D01*
X118784762Y-79144762D01*
X118689524Y-79049524D01*
X118641905Y-78954286D01*
X118594286Y-78763810D01*
X118594286Y-78620952D01*
X118641905Y-78430476D01*
X118689524Y-78335238D01*
X118784762Y-78240000D01*
X118927620Y-78192381D01*
X119022858Y-78192381D01*
X119165715Y-78240000D01*
X119213334Y-78287619D01*
X120118096Y-78192381D02*
X119641905Y-78192381D01*
X119594286Y-78668571D01*
X119641905Y-78620952D01*
X119737143Y-78573333D01*
X119975239Y-78573333D01*
X120070477Y-78620952D01*
X120118096Y-78668571D01*
X120165715Y-78763810D01*
X120165715Y-79001905D01*
X120118096Y-79097143D01*
X120070477Y-79144762D01*
X119975239Y-79192381D01*
X119737143Y-79192381D01*
X119641905Y-79144762D01*
X119594286Y-79097143D01*
X126261905Y-63952381D02*
X126261905Y-62952381D01*
X126500000Y-62952381D01*
X126642858Y-63000000D01*
X126738096Y-63095238D01*
X126785715Y-63190476D01*
X126833334Y-63380952D01*
X126833334Y-63523810D01*
X126785715Y-63714286D01*
X126738096Y-63809524D01*
X126642858Y-63904762D01*
X126500000Y-63952381D01*
X126261905Y-63952381D01*
X127785715Y-63952381D02*
X127214286Y-63952381D01*
X127500000Y-63952381D02*
X127500000Y-62952381D01*
X127404762Y-63095238D01*
X127309524Y-63190476D01*
X127214286Y-63238095D01*
X122451905Y-94432381D02*
X122451905Y-93432381D01*
X122690000Y-93432381D01*
X122832858Y-93480000D01*
X122928096Y-93575238D01*
X122975715Y-93670476D01*
X123023334Y-93860952D01*
X123023334Y-94003810D01*
X122975715Y-94194286D01*
X122928096Y-94289524D01*
X122832858Y-94384762D01*
X122690000Y-94432381D01*
X122451905Y-94432381D01*
X123404286Y-93527619D02*
X123451905Y-93480000D01*
X123547143Y-93432381D01*
X123785239Y-93432381D01*
X123880477Y-93480000D01*
X123928096Y-93527619D01*
X123975715Y-93622857D01*
X123975715Y-93718095D01*
X123928096Y-93860952D01*
X123356667Y-94432381D01*
X123975715Y-94432381D01*
X100861905Y-66492381D02*
X100861905Y-65492381D01*
X101100000Y-65492381D01*
X101242858Y-65540000D01*
X101338096Y-65635238D01*
X101385715Y-65730476D01*
X101433334Y-65920952D01*
X101433334Y-66063810D01*
X101385715Y-66254286D01*
X101338096Y-66349524D01*
X101242858Y-66444762D01*
X101100000Y-66492381D01*
X100861905Y-66492381D01*
X101766667Y-65492381D02*
X102385715Y-65492381D01*
X102052381Y-65873333D01*
X102195239Y-65873333D01*
X102290477Y-65920952D01*
X102338096Y-65968571D01*
X102385715Y-66063810D01*
X102385715Y-66301905D01*
X102338096Y-66397143D01*
X102290477Y-66444762D01*
X102195239Y-66492381D01*
X101909524Y-66492381D01*
X101814286Y-66444762D01*
X101766667Y-66397143D01*
X88161905Y-88082381D02*
X88161905Y-87082381D01*
X88400000Y-87082381D01*
X88542858Y-87130000D01*
X88638096Y-87225238D01*
X88685715Y-87320476D01*
X88733334Y-87510952D01*
X88733334Y-87653810D01*
X88685715Y-87844286D01*
X88638096Y-87939524D01*
X88542858Y-88034762D01*
X88400000Y-88082381D01*
X88161905Y-88082381D01*
X89590477Y-87415714D02*
X89590477Y-88082381D01*
X89352381Y-87034762D02*
X89114286Y-87749048D01*
X89733334Y-87749048D01*
X105021641Y-90237606D02*
X105021641Y-90713797D01*
X104021641Y-90713797D01*
X105021641Y-89380463D02*
X105021641Y-89951892D01*
X105021641Y-89666178D02*
X104021641Y-89666178D01*
X104164498Y-89761416D01*
X104259736Y-89856654D01*
X104307355Y-89951892D01*
X101521521Y-93622381D02*
X100521521Y-93622381D01*
X101521521Y-93146191D02*
X100521521Y-93146191D01*
X101521521Y-92574762D01*
X100521521Y-92574762D01*
X101521521Y-92098572D02*
X100521521Y-92098572D01*
X100521521Y-91860477D01*
X100569140Y-91717619D01*
X100664378Y-91622381D01*
X100759616Y-91574762D01*
X100950092Y-91527143D01*
X101092950Y-91527143D01*
X101283426Y-91574762D01*
X101378664Y-91622381D01*
X101473902Y-91717619D01*
X101521521Y-91860477D01*
X101521521Y-92098572D01*
X100521521Y-91098572D02*
X101331045Y-91098572D01*
X101426283Y-91050953D01*
X101473902Y-91003334D01*
X101521521Y-90908096D01*
X101521521Y-90717619D01*
X101473902Y-90622381D01*
X101426283Y-90574762D01*
X101331045Y-90527143D01*
X100521521Y-90527143D01*
X101426283Y-89479524D02*
X101473902Y-89527143D01*
X101521521Y-89670000D01*
X101521521Y-89765238D01*
X101473902Y-89908096D01*
X101378664Y-90003334D01*
X101283426Y-90050953D01*
X101092950Y-90098572D01*
X100950092Y-90098572D01*
X100759616Y-90050953D01*
X100664378Y-90003334D01*
X100569140Y-89908096D01*
X100521521Y-89765238D01*
X100521521Y-89670000D01*
X100569140Y-89527143D01*
X100616759Y-89479524D01*
X100521521Y-89193810D02*
X100521521Y-88622381D01*
X101521521Y-88908096D02*
X100521521Y-88908096D01*
X100521521Y-88098572D02*
X100521521Y-87908095D01*
X100569140Y-87812857D01*
X100664378Y-87717619D01*
X100854854Y-87670000D01*
X101188188Y-87670000D01*
X101378664Y-87717619D01*
X101473902Y-87812857D01*
X101521521Y-87908095D01*
X101521521Y-88098572D01*
X101473902Y-88193810D01*
X101378664Y-88289048D01*
X101188188Y-88336667D01*
X100854854Y-88336667D01*
X100664378Y-88289048D01*
X100569140Y-88193810D01*
X100521521Y-88098572D01*
X101521521Y-86670000D02*
X101045330Y-87003334D01*
X101521521Y-87241429D02*
X100521521Y-87241429D01*
X100521521Y-86860476D01*
X100569140Y-86765238D01*
X100616759Y-86717619D01*
X100711997Y-86670000D01*
X100854854Y-86670000D01*
X100950092Y-86717619D01*
X100997711Y-86765238D01*
X101045330Y-86860476D01*
X101045330Y-87241429D01*
X123023334Y-63952381D02*
X122690000Y-63476190D01*
X122451905Y-63952381D02*
X122451905Y-62952381D01*
X122832858Y-62952381D01*
X122928096Y-63000000D01*
X122975715Y-63047619D01*
X123023334Y-63142857D01*
X123023334Y-63285714D01*
X122975715Y-63380952D01*
X122928096Y-63428571D01*
X122832858Y-63476190D01*
X122451905Y-63476190D01*
X123975715Y-63952381D02*
X123404286Y-63952381D01*
X123690000Y-63952381D02*
X123690000Y-62952381D01*
X123594762Y-63095238D01*
X123499524Y-63190476D01*
X123404286Y-63238095D01*
X126833334Y-94432381D02*
X126500000Y-93956190D01*
X126261905Y-94432381D02*
X126261905Y-93432381D01*
X126642858Y-93432381D01*
X126738096Y-93480000D01*
X126785715Y-93527619D01*
X126833334Y-93622857D01*
X126833334Y-93765714D01*
X126785715Y-93860952D01*
X126738096Y-93908571D01*
X126642858Y-93956190D01*
X126261905Y-93956190D01*
X127214286Y-93527619D02*
X127261905Y-93480000D01*
X127357143Y-93432381D01*
X127595239Y-93432381D01*
X127690477Y-93480000D01*
X127738096Y-93527619D01*
X127785715Y-93622857D01*
X127785715Y-93718095D01*
X127738096Y-93860952D01*
X127166667Y-94432381D01*
X127785715Y-94432381D01*
X101433334Y-71572381D02*
X101100000Y-71096190D01*
X100861905Y-71572381D02*
X100861905Y-70572381D01*
X101242858Y-70572381D01*
X101338096Y-70620000D01*
X101385715Y-70667619D01*
X101433334Y-70762857D01*
X101433334Y-70905714D01*
X101385715Y-71000952D01*
X101338096Y-71048571D01*
X101242858Y-71096190D01*
X100861905Y-71096190D01*
X101766667Y-70572381D02*
X102385715Y-70572381D01*
X102052381Y-70953333D01*
X102195239Y-70953333D01*
X102290477Y-71000952D01*
X102338096Y-71048571D01*
X102385715Y-71143810D01*
X102385715Y-71381905D01*
X102338096Y-71477143D01*
X102290477Y-71524762D01*
X102195239Y-71572381D01*
X101909524Y-71572381D01*
X101814286Y-71524762D01*
X101766667Y-71477143D01*
X114808095Y-65492381D02*
X114808095Y-66301905D01*
X114855714Y-66397143D01*
X114903333Y-66444762D01*
X114998571Y-66492381D01*
X115189048Y-66492381D01*
X115284286Y-66444762D01*
X115331905Y-66397143D01*
X115379524Y-66301905D01*
X115379524Y-65492381D01*
X116379524Y-66492381D02*
X115808095Y-66492381D01*
X116093809Y-66492381D02*
X116093809Y-65492381D01*
X115998571Y-65635238D01*
X115903333Y-65730476D01*
X115808095Y-65778095D01*
X116022381Y-74604285D02*
X116022381Y-75080476D01*
X115022381Y-75080476D01*
X116022381Y-74270952D02*
X115022381Y-74270952D01*
X115736667Y-73937618D01*
X115022381Y-73604285D01*
X116022381Y-73604285D01*
X115022381Y-72651904D02*
X115022381Y-73128095D01*
X115498571Y-73175714D01*
X115450952Y-73128095D01*
X115403333Y-73032857D01*
X115403333Y-72794761D01*
X115450952Y-72699523D01*
X115498571Y-72651904D01*
X115593810Y-72604285D01*
X115831905Y-72604285D01*
X115927143Y-72651904D01*
X115974762Y-72699523D01*
X116022381Y-72794761D01*
X116022381Y-73032857D01*
X115974762Y-73128095D01*
X115927143Y-73175714D01*
X115022381Y-71699523D02*
X115022381Y-72175714D01*
X115498571Y-72223333D01*
X115450952Y-72175714D01*
X115403333Y-72080476D01*
X115403333Y-71842380D01*
X115450952Y-71747142D01*
X115498571Y-71699523D01*
X115593810Y-71651904D01*
X115831905Y-71651904D01*
X115927143Y-71699523D01*
X115974762Y-71747142D01*
X116022381Y-71842380D01*
X116022381Y-72080476D01*
X115974762Y-72175714D01*
X115927143Y-72223333D01*
X115022381Y-70747142D02*
X115022381Y-71223333D01*
X115498571Y-71270952D01*
X115450952Y-71223333D01*
X115403333Y-71128095D01*
X115403333Y-70889999D01*
X115450952Y-70794761D01*
X115498571Y-70747142D01*
X115593810Y-70699523D01*
X115831905Y-70699523D01*
X115927143Y-70747142D01*
X115974762Y-70794761D01*
X116022381Y-70889999D01*
X116022381Y-71128095D01*
X115974762Y-71223333D01*
X115927143Y-71270952D01*
X116022381Y-70270952D02*
X115022381Y-70270952D01*
X116022381Y-69699523D01*
X115022381Y-69699523D01*
X87463334Y-68937143D02*
X87415715Y-68984762D01*
X87272858Y-69032381D01*
X87177620Y-69032381D01*
X87034762Y-68984762D01*
X86939524Y-68889524D01*
X86891905Y-68794286D01*
X86844286Y-68603810D01*
X86844286Y-68460952D01*
X86891905Y-68270476D01*
X86939524Y-68175238D01*
X87034762Y-68080000D01*
X87177620Y-68032381D01*
X87272858Y-68032381D01*
X87415715Y-68080000D01*
X87463334Y-68127619D01*
X88320477Y-68365714D02*
X88320477Y-69032381D01*
X88082381Y-67984762D02*
X87844286Y-68699048D01*
X88463334Y-68699048D01*
X91289143Y-76676191D02*
X91336762Y-76628572D01*
X91384381Y-76676191D01*
X91336762Y-76723810D01*
X91289143Y-76676191D01*
X91384381Y-76676191D01*
X90432000Y-76866667D02*
X90384381Y-76771429D01*
X90384381Y-76533333D01*
X90432000Y-76438095D01*
X90527238Y-76390476D01*
X90622476Y-76390476D01*
X90717714Y-76438095D01*
X90765333Y-76485714D01*
X90812952Y-76580953D01*
X90860571Y-76628572D01*
X90955810Y-76676191D01*
X91003429Y-76676191D01*
X91289143Y-75819048D02*
X91336762Y-75771429D01*
X91384381Y-75819048D01*
X91336762Y-75866667D01*
X91289143Y-75819048D01*
X91384381Y-75819048D01*
X90432000Y-76009524D02*
X90384381Y-75914286D01*
X90384381Y-75676190D01*
X90432000Y-75580952D01*
X90527238Y-75533333D01*
X90622476Y-75533333D01*
X90717714Y-75580952D01*
X90765333Y-75628571D01*
X90812952Y-75723810D01*
X90860571Y-75771429D01*
X90955810Y-75819048D01*
X91003429Y-75819048D01*
X124622858Y-99738571D02*
X124622858Y-98238571D01*
X125194286Y-98238571D01*
X125337144Y-98310000D01*
X125408572Y-98381429D01*
X125480001Y-98524286D01*
X125480001Y-98738571D01*
X125408572Y-98881429D01*
X125337144Y-98952857D01*
X125194286Y-99024286D01*
X124622858Y-99024286D01*
X126908572Y-99738571D02*
X126051429Y-99738571D01*
X126480001Y-99738571D02*
X126480001Y-98238571D01*
X126337144Y-98452857D01*
X126194286Y-98595714D01*
X126051429Y-98667143D01*
X124622858Y-59098571D02*
X124622858Y-57598571D01*
X125194286Y-57598571D01*
X125337144Y-57670000D01*
X125408572Y-57741429D01*
X125480001Y-57884286D01*
X125480001Y-58098571D01*
X125408572Y-58241429D01*
X125337144Y-58312857D01*
X125194286Y-58384286D01*
X124622858Y-58384286D01*
X126051429Y-57741429D02*
X126122858Y-57670000D01*
X126265715Y-57598571D01*
X126622858Y-57598571D01*
X126765715Y-57670000D01*
X126837144Y-57741429D01*
X126908572Y-57884286D01*
X126908572Y-58027143D01*
X126837144Y-58241429D01*
X125980001Y-59098571D01*
X126908572Y-59098571D01*
X94142858Y-99738571D02*
X94142858Y-98238571D01*
X94714286Y-98238571D01*
X94857144Y-98310000D01*
X94928572Y-98381429D01*
X95000001Y-98524286D01*
X95000001Y-98738571D01*
X94928572Y-98881429D01*
X94857144Y-98952857D01*
X94714286Y-99024286D01*
X94142858Y-99024286D01*
X95500001Y-98238571D02*
X96428572Y-98238571D01*
X95928572Y-98810000D01*
X96142858Y-98810000D01*
X96285715Y-98881429D01*
X96357144Y-98952857D01*
X96428572Y-99095714D01*
X96428572Y-99452857D01*
X96357144Y-99595714D01*
X96285715Y-99667143D01*
X96142858Y-99738571D01*
X95714286Y-99738571D01*
X95571429Y-99667143D01*
X95500001Y-99595714D01*
X94142858Y-59098571D02*
X94142858Y-57598571D01*
X94714286Y-57598571D01*
X94857144Y-57670000D01*
X94928572Y-57741429D01*
X95000001Y-57884286D01*
X95000001Y-58098571D01*
X94928572Y-58241429D01*
X94857144Y-58312857D01*
X94714286Y-58384286D01*
X94142858Y-58384286D01*
X96285715Y-58098571D02*
X96285715Y-59098571D01*
X95928572Y-57527143D02*
X95571429Y-58598571D01*
X96500001Y-58598571D01*
X136568571Y-64392856D02*
X135854286Y-64892856D01*
X136568571Y-65249999D02*
X135068571Y-65249999D01*
X135068571Y-64678571D01*
X135140000Y-64535713D01*
X135211429Y-64464285D01*
X135354286Y-64392856D01*
X135568571Y-64392856D01*
X135711429Y-64464285D01*
X135782857Y-64535713D01*
X135854286Y-64678571D01*
X135854286Y-65249999D01*
X135068571Y-63964285D02*
X136568571Y-63464285D01*
X135068571Y-62964285D01*
X136568571Y-61678571D02*
X136568571Y-62535714D01*
X136568571Y-62107142D02*
X135068571Y-62107142D01*
X135282857Y-62249999D01*
X135425714Y-62392857D01*
X135497143Y-62535714D01*
X139108571Y-94872856D02*
X138394286Y-95372856D01*
X139108571Y-95729999D02*
X137608571Y-95729999D01*
X137608571Y-95158571D01*
X137680000Y-95015713D01*
X137751429Y-94944285D01*
X137894286Y-94872856D01*
X138108571Y-94872856D01*
X138251429Y-94944285D01*
X138322857Y-95015713D01*
X138394286Y-95158571D01*
X138394286Y-95729999D01*
X137608571Y-94444285D02*
X139108571Y-93944285D01*
X137608571Y-93444285D01*
X137751429Y-93015714D02*
X137680000Y-92944285D01*
X137608571Y-92801428D01*
X137608571Y-92444285D01*
X137680000Y-92301428D01*
X137751429Y-92229999D01*
X137894286Y-92158571D01*
X138037143Y-92158571D01*
X138251429Y-92229999D01*
X139108571Y-93087142D01*
X139108571Y-92158571D01*
X103409762Y-74842619D02*
X103314524Y-74795000D01*
X103219286Y-74699762D01*
X103076429Y-74556905D01*
X102981190Y-74509286D01*
X102885952Y-74509286D01*
X102933571Y-74747381D02*
X102838333Y-74699762D01*
X102743095Y-74604524D01*
X102695476Y-74414048D01*
X102695476Y-74080714D01*
X102743095Y-73890238D01*
X102838333Y-73795000D01*
X102933571Y-73747381D01*
X103124048Y-73747381D01*
X103219286Y-73795000D01*
X103314524Y-73890238D01*
X103362143Y-74080714D01*
X103362143Y-74414048D01*
X103314524Y-74604524D01*
X103219286Y-74699762D01*
X103124048Y-74747381D01*
X102933571Y-74747381D01*
X104314524Y-74747381D02*
X103743095Y-74747381D01*
X104028809Y-74747381D02*
X104028809Y-73747381D01*
X103933571Y-73890238D01*
X103838333Y-73985476D01*
X103743095Y-74033095D01*
M02*
