M48
;DRILL file {kicad 0.201502181246+5430~21~ubuntu14.04.1-product} date Sat 28 Feb 2015 06:36:53 PM PST
;FORMAT={-:-/ absolute / metric / decimal}
FMAT,2
METRIC,TZ
T1C0.762
T2C0.800
T3C0.813
T4C1.001
T5C1.270
T6C1.501
T7C1.850
%
G90
G05
M71
T1
X134.62Y-68.58
X134.62Y-71.12
X134.62Y-73.66
X134.62Y-83.82
X134.62Y-86.36
X134.62Y-88.9
T2
X87.63Y-71.12
X87.63Y-81.28
X113.03Y-59.69
X115.57Y-88.9
X115.57Y-93.98
X118.11Y-59.69
X119.38Y-81.28
X119.38Y-83.82
X133.35Y-78.74
X135.89Y-78.74
T3
X111.76Y-68.58
X111.76Y-71.12
X111.76Y-73.66
X111.76Y-76.2
X119.38Y-68.58
X119.38Y-71.12
X119.38Y-73.66
X119.38Y-76.2
T4
X83.82Y-90.17
X96.52Y-73.66
X106.68Y-68.58
X106.68Y-73.66
X123.19Y-66.04
X123.19Y-76.2
X123.19Y-81.28
X123.19Y-91.44
X127.Y-66.04
X127.Y-91.44
T5
X93.98Y-90.17
X96.52Y-68.58
X127.Y-76.2
X127.Y-81.28
T6
X96.647Y-79.375
X102.235Y-79.375
X107.823Y-79.375
T7
X84.125Y-55.92
X84.125Y-60.92
X84.125Y-96.56
X84.125Y-101.56
X91.135Y-55.92
X91.135Y-60.92
X91.135Y-96.56
X91.135Y-101.56
X129.845Y-55.92
X129.845Y-60.92
X129.845Y-96.56
X129.845Y-101.56
X136.855Y-55.92
X136.855Y-60.92
X136.855Y-96.56
X136.855Y-101.56
T0
M30
