G04 #@! TF.FileFunction,Soldermask,Top*
%FSLAX46Y46*%
G04 Gerber Fmt 4.6, Leading zero omitted, Abs format (unit mm)*
G04 Created by KiCad (PCBNEW 0.201502181246+5430~21~ubuntu14.04.1-product) date Sat 28 Feb 2015 09:09:28 PM PST*
%MOMM*%
G01*
G04 APERTURE LIST*
%ADD10C,0.100000*%
%ADD11C,1.501140*%
%ADD12C,1.998980*%
%ADD13R,1.998980X1.998980*%
%ADD14R,2.900680X5.400040*%
%ADD15R,1.397000X1.397000*%
%ADD16C,1.397000*%
%ADD17C,3.000000*%
%ADD18C,1.524000*%
%ADD19O,2.499360X4.500880*%
G04 APERTURE END LIST*
D10*
D11*
X113030000Y-59690000D03*
X118110000Y-59690000D03*
X133350000Y-78740000D03*
X135890000Y-78740000D03*
X115570000Y-99060000D03*
X115570000Y-93980000D03*
X119380000Y-81280000D03*
X119380000Y-83820000D03*
D12*
X127000000Y-76200000D03*
D13*
X127000000Y-66040000D03*
D12*
X127000000Y-81280000D03*
D13*
X127000000Y-91440000D03*
D12*
X96520000Y-68580000D03*
D13*
X106680000Y-68580000D03*
D12*
X93980000Y-90170000D03*
D13*
X93980000Y-100330000D03*
D14*
X107871260Y-90170000D03*
X97868740Y-90170000D03*
D12*
X123190000Y-66040000D03*
X123190000Y-76200000D03*
X123190000Y-81280000D03*
X123190000Y-91440000D03*
X96520000Y-73660000D03*
X106680000Y-73660000D03*
D15*
X111760000Y-68580000D03*
D16*
X111760000Y-71120000D03*
X111760000Y-73660000D03*
X111760000Y-76200000D03*
X119380000Y-76200000D03*
X119380000Y-73660000D03*
X119380000Y-71120000D03*
X119380000Y-68580000D03*
D12*
X97790000Y-100330000D03*
X107950000Y-100330000D03*
D17*
X136855000Y-96560000D03*
X136855000Y-101560000D03*
X129845000Y-101560000D03*
X129845000Y-96560000D03*
X136855000Y-55920000D03*
X136855000Y-60920000D03*
X129845000Y-60920000D03*
X129845000Y-55920000D03*
X89865000Y-96560000D03*
X89865000Y-101560000D03*
X82855000Y-101560000D03*
X82855000Y-96560000D03*
X91135000Y-55920000D03*
X91135000Y-60920000D03*
X84125000Y-60920000D03*
X84125000Y-55920000D03*
D18*
X134620000Y-73660000D03*
X134620000Y-71120000D03*
X134620000Y-68580000D03*
X134620000Y-88900000D03*
X134620000Y-86360000D03*
X134620000Y-83820000D03*
D19*
X102235000Y-79375000D03*
X96647000Y-79375000D03*
X107823000Y-79375000D03*
M02*
