G04 #@! TF.FileFunction,Copper,L2,Bot,Signal*
%FSLAX46Y46*%
G04 Gerber Fmt 4.6, Leading zero omitted, Abs format (unit mm)*
G04 Created by KiCad (PCBNEW 4.0.1-3.201512202202+6198~38~ubuntu14.04.1-stable) date Sat 26 Dec 2015 04:13:02 PM PST*
%MOMM*%
G01*
G04 APERTURE LIST*
%ADD10C,0.100000*%
%ADD11R,1.727200X1.727200*%
%ADD12O,1.727200X1.727200*%
%ADD13C,0.600000*%
%ADD14C,0.254000*%
G04 APERTURE END LIST*
D10*
D11*
X147320000Y-83820000D03*
D12*
X149860000Y-83820000D03*
X147320000Y-86360000D03*
X149860000Y-86360000D03*
X147320000Y-88900000D03*
X149860000Y-88900000D03*
X147320000Y-91440000D03*
X149860000Y-91440000D03*
X147320000Y-93980000D03*
X149860000Y-93980000D03*
D13*
X148526500Y-105156000D03*
X148526500Y-106934000D03*
D14*
G36*
X151690000Y-107020908D02*
X150835908Y-107875000D01*
X146344092Y-107875000D01*
X145490000Y-107020908D01*
X145490000Y-86360000D01*
X145792041Y-86360000D01*
X145906115Y-86933489D01*
X146230971Y-87419670D01*
X146545752Y-87630000D01*
X146230971Y-87840330D01*
X145906115Y-88326511D01*
X145792041Y-88900000D01*
X145906115Y-89473489D01*
X146230971Y-89959670D01*
X146545752Y-90170000D01*
X146230971Y-90380330D01*
X145906115Y-90866511D01*
X145792041Y-91440000D01*
X145906115Y-92013489D01*
X146230971Y-92499670D01*
X146545752Y-92710000D01*
X146230971Y-92920330D01*
X145906115Y-93406511D01*
X145792041Y-93980000D01*
X145906115Y-94553489D01*
X146230971Y-95039670D01*
X146717152Y-95364526D01*
X147290641Y-95478600D01*
X147349359Y-95478600D01*
X147922848Y-95364526D01*
X148409029Y-95039670D01*
X148590000Y-94768828D01*
X148770971Y-95039670D01*
X149257152Y-95364526D01*
X149830641Y-95478600D01*
X149889359Y-95478600D01*
X150462848Y-95364526D01*
X150949029Y-95039670D01*
X151273885Y-94553489D01*
X151387959Y-93980000D01*
X151273885Y-93406511D01*
X150949029Y-92920330D01*
X150634248Y-92710000D01*
X150949029Y-92499670D01*
X151273885Y-92013489D01*
X151387959Y-91440000D01*
X151273885Y-90866511D01*
X150949029Y-90380330D01*
X150634248Y-90170000D01*
X150949029Y-89959670D01*
X151273885Y-89473489D01*
X151387959Y-88900000D01*
X151273885Y-88326511D01*
X150949029Y-87840330D01*
X150634248Y-87630000D01*
X150949029Y-87419670D01*
X151273885Y-86933489D01*
X151387959Y-86360000D01*
X151273885Y-85786511D01*
X150949029Y-85300330D01*
X150625772Y-85084336D01*
X150748490Y-85026821D01*
X151142688Y-84594947D01*
X151314958Y-84179026D01*
X151193817Y-83947000D01*
X149987000Y-83947000D01*
X149987000Y-83967000D01*
X149733000Y-83967000D01*
X149733000Y-83947000D01*
X149713000Y-83947000D01*
X149713000Y-83693000D01*
X149733000Y-83693000D01*
X149733000Y-82485531D01*
X149987000Y-82485531D01*
X149987000Y-83693000D01*
X151193817Y-83693000D01*
X151314958Y-83460974D01*
X151142688Y-83045053D01*
X150748490Y-82613179D01*
X150219027Y-82365032D01*
X149987000Y-82485531D01*
X149733000Y-82485531D01*
X149500973Y-82365032D01*
X148971510Y-82613179D01*
X148801505Y-82799433D01*
X148786762Y-82721083D01*
X148647690Y-82504959D01*
X148435490Y-82359969D01*
X148183600Y-82308960D01*
X146456400Y-82308960D01*
X146221083Y-82353238D01*
X146004959Y-82492310D01*
X145859969Y-82704510D01*
X145808960Y-82956400D01*
X145808960Y-84683600D01*
X145853238Y-84918917D01*
X145992310Y-85135041D01*
X146204510Y-85280031D01*
X146248131Y-85288864D01*
X146230971Y-85300330D01*
X145906115Y-85786511D01*
X145792041Y-86360000D01*
X145490000Y-86360000D01*
X145490000Y-81990000D01*
X151690000Y-81990000D01*
X151690000Y-107020908D01*
X151690000Y-107020908D01*
G37*
X151690000Y-107020908D02*
X150835908Y-107875000D01*
X146344092Y-107875000D01*
X145490000Y-107020908D01*
X145490000Y-86360000D01*
X145792041Y-86360000D01*
X145906115Y-86933489D01*
X146230971Y-87419670D01*
X146545752Y-87630000D01*
X146230971Y-87840330D01*
X145906115Y-88326511D01*
X145792041Y-88900000D01*
X145906115Y-89473489D01*
X146230971Y-89959670D01*
X146545752Y-90170000D01*
X146230971Y-90380330D01*
X145906115Y-90866511D01*
X145792041Y-91440000D01*
X145906115Y-92013489D01*
X146230971Y-92499670D01*
X146545752Y-92710000D01*
X146230971Y-92920330D01*
X145906115Y-93406511D01*
X145792041Y-93980000D01*
X145906115Y-94553489D01*
X146230971Y-95039670D01*
X146717152Y-95364526D01*
X147290641Y-95478600D01*
X147349359Y-95478600D01*
X147922848Y-95364526D01*
X148409029Y-95039670D01*
X148590000Y-94768828D01*
X148770971Y-95039670D01*
X149257152Y-95364526D01*
X149830641Y-95478600D01*
X149889359Y-95478600D01*
X150462848Y-95364526D01*
X150949029Y-95039670D01*
X151273885Y-94553489D01*
X151387959Y-93980000D01*
X151273885Y-93406511D01*
X150949029Y-92920330D01*
X150634248Y-92710000D01*
X150949029Y-92499670D01*
X151273885Y-92013489D01*
X151387959Y-91440000D01*
X151273885Y-90866511D01*
X150949029Y-90380330D01*
X150634248Y-90170000D01*
X150949029Y-89959670D01*
X151273885Y-89473489D01*
X151387959Y-88900000D01*
X151273885Y-88326511D01*
X150949029Y-87840330D01*
X150634248Y-87630000D01*
X150949029Y-87419670D01*
X151273885Y-86933489D01*
X151387959Y-86360000D01*
X151273885Y-85786511D01*
X150949029Y-85300330D01*
X150625772Y-85084336D01*
X150748490Y-85026821D01*
X151142688Y-84594947D01*
X151314958Y-84179026D01*
X151193817Y-83947000D01*
X149987000Y-83947000D01*
X149987000Y-83967000D01*
X149733000Y-83967000D01*
X149733000Y-83947000D01*
X149713000Y-83947000D01*
X149713000Y-83693000D01*
X149733000Y-83693000D01*
X149733000Y-82485531D01*
X149987000Y-82485531D01*
X149987000Y-83693000D01*
X151193817Y-83693000D01*
X151314958Y-83460974D01*
X151142688Y-83045053D01*
X150748490Y-82613179D01*
X150219027Y-82365032D01*
X149987000Y-82485531D01*
X149733000Y-82485531D01*
X149500973Y-82365032D01*
X148971510Y-82613179D01*
X148801505Y-82799433D01*
X148786762Y-82721083D01*
X148647690Y-82504959D01*
X148435490Y-82359969D01*
X148183600Y-82308960D01*
X146456400Y-82308960D01*
X146221083Y-82353238D01*
X146004959Y-82492310D01*
X145859969Y-82704510D01*
X145808960Y-82956400D01*
X145808960Y-84683600D01*
X145853238Y-84918917D01*
X145992310Y-85135041D01*
X146204510Y-85280031D01*
X146248131Y-85288864D01*
X146230971Y-85300330D01*
X145906115Y-85786511D01*
X145792041Y-86360000D01*
X145490000Y-86360000D01*
X145490000Y-81990000D01*
X151690000Y-81990000D01*
X151690000Y-107020908D01*
M02*
