M48
;DRILL file {KiCad 4.0.4+e1-6308~48~ubuntu14.04.1-stable} date Sun Nov 27 15:19:41 2016
;FORMAT={-:-/ absolute / inch / decimal}
FMAT,2
INCH,TZ
T1C0.016
T2C0.040
T3C0.079
%
G90
G05
M72
T1
X4.585Y-3.91
X4.725Y-4.485
X4.9675Y-4.34
X5.13Y-4.3375
X5.88Y-4.0025
X5.9075Y-4.3275
X5.96Y-4.01
X5.96Y-4.185
X6.515Y-3.72
X6.515Y-3.8
X6.55Y-4.415
X6.634Y-3.681
X6.69Y-3.97
X6.69Y-4.055
X6.695Y-3.72
X6.89Y-4.04
T2
X4.9Y-3.6
X4.9Y-4.6
X5.Y-3.6
X5.Y-4.6
X5.1Y-3.6
X5.1Y-4.6
X5.2Y-3.6
X5.2Y-4.6
X5.3Y-3.6
X5.3Y-4.6
X5.4Y-3.6
X5.4Y-4.6
X5.5Y-3.6
X5.5Y-4.6
X5.6Y-3.6
X5.6Y-4.6
X5.75Y-3.85
X5.75Y-3.95
X5.75Y-4.05
X5.75Y-4.15
X5.75Y-4.25
X5.75Y-4.35
T3
X4.2933Y-4.1
X7.2067Y-4.1
T0
M30
