G04 #@! TF.FileFunction,Legend,Top*
%FSLAX46Y46*%
G04 Gerber Fmt 4.6, Leading zero omitted, Abs format (unit mm)*
G04 Created by KiCad (PCBNEW 4.0.4+e1-6308~48~ubuntu14.04.1-stable) date Sun Nov 27 15:19:37 2016*
%MOMM*%
%LPD*%
G01*
G04 APERTURE LIST*
%ADD10C,0.100000*%
%ADD11C,0.200000*%
%ADD12C,0.150000*%
G04 APERTURE END LIST*
D10*
D11*
X182118000Y-104140000D02*
X109982000Y-104140000D01*
D12*
X172435000Y-103597000D02*
X171735000Y-103597000D01*
X171735000Y-102397000D02*
X172435000Y-102397000D01*
X113022000Y-114594000D02*
X112022000Y-114594000D01*
X112022000Y-113244000D02*
X113022000Y-113244000D01*
X152535000Y-92289000D02*
X153535000Y-92289000D01*
X153535000Y-93639000D02*
X152535000Y-93639000D01*
X147320000Y-99060000D02*
X147320000Y-111760000D01*
X147320000Y-111760000D02*
X144780000Y-111760000D01*
X144780000Y-111760000D02*
X144780000Y-99060000D01*
X147600000Y-96240000D02*
X147600000Y-97790000D01*
X147320000Y-99060000D02*
X144780000Y-99060000D01*
X144500000Y-97790000D02*
X144500000Y-96240000D01*
X144500000Y-96240000D02*
X147600000Y-96240000D01*
X125730000Y-115570000D02*
X143510000Y-115570000D01*
X143510000Y-115570000D02*
X143510000Y-118110000D01*
X143510000Y-118110000D02*
X125730000Y-118110000D01*
X122910000Y-115290000D02*
X124460000Y-115290000D01*
X125730000Y-115570000D02*
X125730000Y-118110000D01*
X124460000Y-118390000D02*
X122910000Y-118390000D01*
X122910000Y-118390000D02*
X122910000Y-115290000D01*
X125730000Y-90170000D02*
X143510000Y-90170000D01*
X143510000Y-90170000D02*
X143510000Y-92710000D01*
X143510000Y-92710000D02*
X125730000Y-92710000D01*
X122910000Y-89890000D02*
X124460000Y-89890000D01*
X125730000Y-90170000D02*
X125730000Y-92710000D01*
X124460000Y-92990000D02*
X122910000Y-92990000D01*
X122910000Y-92990000D02*
X122910000Y-89890000D01*
X167055800Y-97003820D02*
X166354760Y-97003820D01*
X166354760Y-97003820D02*
X166354760Y-96754900D01*
X166354760Y-94204840D02*
X166354760Y-94004180D01*
X166354760Y-94004180D02*
X167055800Y-94004180D01*
X165267000Y-98941000D02*
X165267000Y-99941000D01*
X163917000Y-99941000D02*
X163917000Y-98941000D01*
X150709000Y-99941000D02*
X150709000Y-98941000D01*
X152059000Y-98941000D02*
X152059000Y-99941000D01*
X163917000Y-109339000D02*
X163917000Y-108339000D01*
X165267000Y-108339000D02*
X165267000Y-109339000D01*
X152059000Y-108339000D02*
X152059000Y-109339000D01*
X150709000Y-109339000D02*
X150709000Y-108339000D01*
X117134000Y-106053000D02*
X117134000Y-107053000D01*
X115784000Y-107053000D02*
X115784000Y-106053000D01*
X117134000Y-101227000D02*
X117134000Y-102227000D01*
X115784000Y-102227000D02*
X115784000Y-101227000D01*
X171712000Y-100163000D02*
X172712000Y-100163000D01*
X172712000Y-101513000D02*
X171712000Y-101513000D01*
X175411000Y-104280000D02*
X176411000Y-105280000D01*
X176411000Y-105280000D02*
X178411000Y-105280000D01*
X178411000Y-105280000D02*
X178411000Y-103000000D01*
X178411000Y-103000000D02*
X175411000Y-103000000D01*
X175411000Y-103000000D02*
X175411000Y-104280000D01*
X172712000Y-108244000D02*
X171712000Y-108244000D01*
X171712000Y-106894000D02*
X172712000Y-106894000D01*
X172712000Y-105958000D02*
X171712000Y-105958000D01*
X171712000Y-104608000D02*
X172712000Y-104608000D01*
X159638000Y-99441000D02*
G75*
G03X159638000Y-99441000I-1650000J0D01*
G01*
X154988000Y-96141000D02*
X160988000Y-96141000D01*
X154988000Y-102741000D02*
X154988000Y-96141000D01*
X160988000Y-102741000D02*
X154988000Y-102741000D01*
X160988000Y-96141000D02*
X160988000Y-102741000D01*
X159638000Y-108839000D02*
G75*
G03X159638000Y-108839000I-1650000J0D01*
G01*
X160988000Y-112139000D02*
X154988000Y-112139000D01*
X160988000Y-105539000D02*
X160988000Y-112139000D01*
X154988000Y-105539000D02*
X160988000Y-105539000D01*
X154988000Y-112139000D02*
X154988000Y-105539000D01*
X141463500Y-112140000D02*
X141463500Y-96140000D01*
X141463500Y-96140000D02*
X120863500Y-96140000D01*
X120863500Y-96140000D02*
X120863500Y-112140000D01*
X120863500Y-112140000D02*
X141463500Y-112140000D01*
X168997334Y-103354143D02*
X168949715Y-103401762D01*
X168806858Y-103449381D01*
X168711620Y-103449381D01*
X168568762Y-103401762D01*
X168473524Y-103306524D01*
X168425905Y-103211286D01*
X168378286Y-103020810D01*
X168378286Y-102877952D01*
X168425905Y-102687476D01*
X168473524Y-102592238D01*
X168568762Y-102497000D01*
X168711620Y-102449381D01*
X168806858Y-102449381D01*
X168949715Y-102497000D01*
X168997334Y-102544619D01*
X169949715Y-103449381D02*
X169378286Y-103449381D01*
X169664000Y-103449381D02*
X169664000Y-102449381D01*
X169568762Y-102592238D01*
X169473524Y-102687476D01*
X169378286Y-102735095D01*
X111688667Y-111471381D02*
X111688667Y-112185667D01*
X111641047Y-112328524D01*
X111545809Y-112423762D01*
X111402952Y-112471381D01*
X111307714Y-112471381D01*
X112164857Y-112471381D02*
X112164857Y-111471381D01*
X112545810Y-111471381D01*
X112641048Y-111519000D01*
X112688667Y-111566619D01*
X112736286Y-111661857D01*
X112736286Y-111804714D01*
X112688667Y-111899952D01*
X112641048Y-111947571D01*
X112545810Y-111995190D01*
X112164857Y-111995190D01*
X113688667Y-112471381D02*
X113117238Y-112471381D01*
X113402952Y-112471381D02*
X113402952Y-111471381D01*
X113307714Y-111614238D01*
X113212476Y-111709476D01*
X113117238Y-111757095D01*
X152201667Y-94316381D02*
X152201667Y-95030667D01*
X152154047Y-95173524D01*
X152058809Y-95268762D01*
X151915952Y-95316381D01*
X151820714Y-95316381D01*
X152677857Y-95316381D02*
X152677857Y-94316381D01*
X153058810Y-94316381D01*
X153154048Y-94364000D01*
X153201667Y-94411619D01*
X153249286Y-94506857D01*
X153249286Y-94649714D01*
X153201667Y-94744952D01*
X153154048Y-94792571D01*
X153058810Y-94840190D01*
X152677857Y-94840190D01*
X153630238Y-94411619D02*
X153677857Y-94364000D01*
X153773095Y-94316381D01*
X154011191Y-94316381D01*
X154106429Y-94364000D01*
X154154048Y-94411619D01*
X154201667Y-94506857D01*
X154201667Y-94602095D01*
X154154048Y-94744952D01*
X153582619Y-95316381D01*
X154201667Y-95316381D01*
X145311905Y-93142381D02*
X145311905Y-92142381D01*
X145692858Y-92142381D01*
X145788096Y-92190000D01*
X145835715Y-92237619D01*
X145883334Y-92332857D01*
X145883334Y-92475714D01*
X145835715Y-92570952D01*
X145788096Y-92618571D01*
X145692858Y-92666190D01*
X145311905Y-92666190D01*
X146835715Y-93142381D02*
X146264286Y-93142381D01*
X146550000Y-93142381D02*
X146550000Y-92142381D01*
X146454762Y-92285238D01*
X146359524Y-92380476D01*
X146264286Y-92428095D01*
X120800905Y-117292381D02*
X120800905Y-116292381D01*
X121181858Y-116292381D01*
X121277096Y-116340000D01*
X121324715Y-116387619D01*
X121372334Y-116482857D01*
X121372334Y-116625714D01*
X121324715Y-116720952D01*
X121277096Y-116768571D01*
X121181858Y-116816190D01*
X120800905Y-116816190D01*
X121753286Y-116387619D02*
X121800905Y-116340000D01*
X121896143Y-116292381D01*
X122134239Y-116292381D01*
X122229477Y-116340000D01*
X122277096Y-116387619D01*
X122324715Y-116482857D01*
X122324715Y-116578095D01*
X122277096Y-116720952D01*
X121705667Y-117292381D01*
X122324715Y-117292381D01*
X120927905Y-91892381D02*
X120927905Y-90892381D01*
X121308858Y-90892381D01*
X121404096Y-90940000D01*
X121451715Y-90987619D01*
X121499334Y-91082857D01*
X121499334Y-91225714D01*
X121451715Y-91320952D01*
X121404096Y-91368571D01*
X121308858Y-91416190D01*
X120927905Y-91416190D01*
X121832667Y-90892381D02*
X122451715Y-90892381D01*
X122118381Y-91273333D01*
X122261239Y-91273333D01*
X122356477Y-91320952D01*
X122404096Y-91368571D01*
X122451715Y-91463810D01*
X122451715Y-91701905D01*
X122404096Y-91797143D01*
X122356477Y-91844762D01*
X122261239Y-91892381D01*
X121975524Y-91892381D01*
X121880286Y-91844762D01*
X121832667Y-91797143D01*
X163099762Y-96051619D02*
X163004524Y-96004000D01*
X162909286Y-95908762D01*
X162766429Y-95765905D01*
X162671190Y-95718286D01*
X162575952Y-95718286D01*
X162623571Y-95956381D02*
X162528333Y-95908762D01*
X162433095Y-95813524D01*
X162385476Y-95623048D01*
X162385476Y-95289714D01*
X162433095Y-95099238D01*
X162528333Y-95004000D01*
X162623571Y-94956381D01*
X162814048Y-94956381D01*
X162909286Y-95004000D01*
X163004524Y-95099238D01*
X163052143Y-95289714D01*
X163052143Y-95623048D01*
X163004524Y-95813524D01*
X162909286Y-95908762D01*
X162814048Y-95956381D01*
X162623571Y-95956381D01*
X164004524Y-95956381D02*
X163433095Y-95956381D01*
X163718809Y-95956381D02*
X163718809Y-94956381D01*
X163623571Y-95099238D01*
X163528333Y-95194476D01*
X163433095Y-95242095D01*
X166330334Y-99893381D02*
X165997000Y-99417190D01*
X165758905Y-99893381D02*
X165758905Y-98893381D01*
X166139858Y-98893381D01*
X166235096Y-98941000D01*
X166282715Y-98988619D01*
X166330334Y-99083857D01*
X166330334Y-99226714D01*
X166282715Y-99321952D01*
X166235096Y-99369571D01*
X166139858Y-99417190D01*
X165758905Y-99417190D01*
X167282715Y-99893381D02*
X166711286Y-99893381D01*
X166997000Y-99893381D02*
X166997000Y-98893381D01*
X166901762Y-99036238D01*
X166806524Y-99131476D01*
X166711286Y-99179095D01*
X149312334Y-99893381D02*
X148979000Y-99417190D01*
X148740905Y-99893381D02*
X148740905Y-98893381D01*
X149121858Y-98893381D01*
X149217096Y-98941000D01*
X149264715Y-98988619D01*
X149312334Y-99083857D01*
X149312334Y-99226714D01*
X149264715Y-99321952D01*
X149217096Y-99369571D01*
X149121858Y-99417190D01*
X148740905Y-99417190D01*
X149693286Y-98988619D02*
X149740905Y-98941000D01*
X149836143Y-98893381D01*
X150074239Y-98893381D01*
X150169477Y-98941000D01*
X150217096Y-98988619D01*
X150264715Y-99083857D01*
X150264715Y-99179095D01*
X150217096Y-99321952D01*
X149645667Y-99893381D01*
X150264715Y-99893381D01*
X166330334Y-109291381D02*
X165997000Y-108815190D01*
X165758905Y-109291381D02*
X165758905Y-108291381D01*
X166139858Y-108291381D01*
X166235096Y-108339000D01*
X166282715Y-108386619D01*
X166330334Y-108481857D01*
X166330334Y-108624714D01*
X166282715Y-108719952D01*
X166235096Y-108767571D01*
X166139858Y-108815190D01*
X165758905Y-108815190D01*
X166663667Y-108291381D02*
X167282715Y-108291381D01*
X166949381Y-108672333D01*
X167092239Y-108672333D01*
X167187477Y-108719952D01*
X167235096Y-108767571D01*
X167282715Y-108862810D01*
X167282715Y-109100905D01*
X167235096Y-109196143D01*
X167187477Y-109243762D01*
X167092239Y-109291381D01*
X166806524Y-109291381D01*
X166711286Y-109243762D01*
X166663667Y-109196143D01*
X149317334Y-109291381D02*
X148984000Y-108815190D01*
X148745905Y-109291381D02*
X148745905Y-108291381D01*
X149126858Y-108291381D01*
X149222096Y-108339000D01*
X149269715Y-108386619D01*
X149317334Y-108481857D01*
X149317334Y-108624714D01*
X149269715Y-108719952D01*
X149222096Y-108767571D01*
X149126858Y-108815190D01*
X148745905Y-108815190D01*
X150174477Y-108624714D02*
X150174477Y-109291381D01*
X149936381Y-108243762D02*
X149698286Y-108958048D01*
X150317334Y-108958048D01*
X114392334Y-107005381D02*
X114059000Y-106529190D01*
X113820905Y-107005381D02*
X113820905Y-106005381D01*
X114201858Y-106005381D01*
X114297096Y-106053000D01*
X114344715Y-106100619D01*
X114392334Y-106195857D01*
X114392334Y-106338714D01*
X114344715Y-106433952D01*
X114297096Y-106481571D01*
X114201858Y-106529190D01*
X113820905Y-106529190D01*
X115297096Y-106005381D02*
X114820905Y-106005381D01*
X114773286Y-106481571D01*
X114820905Y-106433952D01*
X114916143Y-106386333D01*
X115154239Y-106386333D01*
X115249477Y-106433952D01*
X115297096Y-106481571D01*
X115344715Y-106576810D01*
X115344715Y-106814905D01*
X115297096Y-106910143D01*
X115249477Y-106957762D01*
X115154239Y-107005381D01*
X114916143Y-107005381D01*
X114820905Y-106957762D01*
X114773286Y-106910143D01*
X114392334Y-102179381D02*
X114059000Y-101703190D01*
X113820905Y-102179381D02*
X113820905Y-101179381D01*
X114201858Y-101179381D01*
X114297096Y-101227000D01*
X114344715Y-101274619D01*
X114392334Y-101369857D01*
X114392334Y-101512714D01*
X114344715Y-101607952D01*
X114297096Y-101655571D01*
X114201858Y-101703190D01*
X113820905Y-101703190D01*
X115249477Y-101179381D02*
X115059000Y-101179381D01*
X114963762Y-101227000D01*
X114916143Y-101274619D01*
X114820905Y-101417476D01*
X114773286Y-101607952D01*
X114773286Y-101988905D01*
X114820905Y-102084143D01*
X114868524Y-102131762D01*
X114963762Y-102179381D01*
X115154239Y-102179381D01*
X115249477Y-102131762D01*
X115297096Y-102084143D01*
X115344715Y-101988905D01*
X115344715Y-101750810D01*
X115297096Y-101655571D01*
X115249477Y-101607952D01*
X115154239Y-101560333D01*
X114963762Y-101560333D01*
X114868524Y-101607952D01*
X114820905Y-101655571D01*
X114773286Y-101750810D01*
X168997334Y-101290381D02*
X168664000Y-100814190D01*
X168425905Y-101290381D02*
X168425905Y-100290381D01*
X168806858Y-100290381D01*
X168902096Y-100338000D01*
X168949715Y-100385619D01*
X168997334Y-100480857D01*
X168997334Y-100623714D01*
X168949715Y-100718952D01*
X168902096Y-100766571D01*
X168806858Y-100814190D01*
X168425905Y-100814190D01*
X169330667Y-100290381D02*
X169997334Y-100290381D01*
X169568762Y-101290381D01*
X175996714Y-106022857D02*
X175996714Y-106994286D01*
X176053857Y-107108571D01*
X176111000Y-107165714D01*
X176225286Y-107222857D01*
X176453857Y-107222857D01*
X176568143Y-107165714D01*
X176625286Y-107108571D01*
X176682429Y-106994286D01*
X176682429Y-106022857D01*
X177139572Y-106022857D02*
X177882429Y-106022857D01*
X177482429Y-106480000D01*
X177653857Y-106480000D01*
X177768143Y-106537143D01*
X177825286Y-106594286D01*
X177882429Y-106708571D01*
X177882429Y-106994286D01*
X177825286Y-107108571D01*
X177768143Y-107165714D01*
X177653857Y-107222857D01*
X177311000Y-107222857D01*
X177196714Y-107165714D01*
X177139572Y-107108571D01*
X168997334Y-108148381D02*
X168664000Y-107672190D01*
X168425905Y-108148381D02*
X168425905Y-107148381D01*
X168806858Y-107148381D01*
X168902096Y-107196000D01*
X168949715Y-107243619D01*
X168997334Y-107338857D01*
X168997334Y-107481714D01*
X168949715Y-107576952D01*
X168902096Y-107624571D01*
X168806858Y-107672190D01*
X168425905Y-107672190D01*
X169568762Y-107576952D02*
X169473524Y-107529333D01*
X169425905Y-107481714D01*
X169378286Y-107386476D01*
X169378286Y-107338857D01*
X169425905Y-107243619D01*
X169473524Y-107196000D01*
X169568762Y-107148381D01*
X169759239Y-107148381D01*
X169854477Y-107196000D01*
X169902096Y-107243619D01*
X169949715Y-107338857D01*
X169949715Y-107386476D01*
X169902096Y-107481714D01*
X169854477Y-107529333D01*
X169759239Y-107576952D01*
X169568762Y-107576952D01*
X169473524Y-107624571D01*
X169425905Y-107672190D01*
X169378286Y-107767429D01*
X169378286Y-107957905D01*
X169425905Y-108053143D01*
X169473524Y-108100762D01*
X169568762Y-108148381D01*
X169759239Y-108148381D01*
X169854477Y-108100762D01*
X169902096Y-108053143D01*
X169949715Y-107957905D01*
X169949715Y-107767429D01*
X169902096Y-107672190D01*
X169854477Y-107624571D01*
X169759239Y-107576952D01*
X168997334Y-105735381D02*
X168664000Y-105259190D01*
X168425905Y-105735381D02*
X168425905Y-104735381D01*
X168806858Y-104735381D01*
X168902096Y-104783000D01*
X168949715Y-104830619D01*
X168997334Y-104925857D01*
X168997334Y-105068714D01*
X168949715Y-105163952D01*
X168902096Y-105211571D01*
X168806858Y-105259190D01*
X168425905Y-105259190D01*
X169473524Y-105735381D02*
X169664000Y-105735381D01*
X169759239Y-105687762D01*
X169806858Y-105640143D01*
X169902096Y-105497286D01*
X169949715Y-105306810D01*
X169949715Y-104925857D01*
X169902096Y-104830619D01*
X169854477Y-104783000D01*
X169759239Y-104735381D01*
X169568762Y-104735381D01*
X169473524Y-104783000D01*
X169425905Y-104830619D01*
X169378286Y-104925857D01*
X169378286Y-105163952D01*
X169425905Y-105259190D01*
X169473524Y-105306810D01*
X169568762Y-105354429D01*
X169759239Y-105354429D01*
X169854477Y-105306810D01*
X169902096Y-105259190D01*
X169949715Y-105163952D01*
X156654667Y-104036762D02*
X156797524Y-104084381D01*
X157035620Y-104084381D01*
X157130858Y-104036762D01*
X157178477Y-103989143D01*
X157226096Y-103893905D01*
X157226096Y-103798667D01*
X157178477Y-103703429D01*
X157130858Y-103655810D01*
X157035620Y-103608190D01*
X156845143Y-103560571D01*
X156749905Y-103512952D01*
X156702286Y-103465333D01*
X156654667Y-103370095D01*
X156654667Y-103274857D01*
X156702286Y-103179619D01*
X156749905Y-103132000D01*
X156845143Y-103084381D01*
X157083239Y-103084381D01*
X157226096Y-103132000D01*
X157559429Y-103084381D02*
X157797524Y-104084381D01*
X157988001Y-103370095D01*
X158178477Y-104084381D01*
X158416572Y-103084381D01*
X159321334Y-104084381D02*
X158749905Y-104084381D01*
X159035619Y-104084381D02*
X159035619Y-103084381D01*
X158940381Y-103227238D01*
X158845143Y-103322476D01*
X158749905Y-103370095D01*
X156654667Y-105179762D02*
X156797524Y-105227381D01*
X157035620Y-105227381D01*
X157130858Y-105179762D01*
X157178477Y-105132143D01*
X157226096Y-105036905D01*
X157226096Y-104941667D01*
X157178477Y-104846429D01*
X157130858Y-104798810D01*
X157035620Y-104751190D01*
X156845143Y-104703571D01*
X156749905Y-104655952D01*
X156702286Y-104608333D01*
X156654667Y-104513095D01*
X156654667Y-104417857D01*
X156702286Y-104322619D01*
X156749905Y-104275000D01*
X156845143Y-104227381D01*
X157083239Y-104227381D01*
X157226096Y-104275000D01*
X157559429Y-104227381D02*
X157797524Y-105227381D01*
X157988001Y-104513095D01*
X158178477Y-105227381D01*
X158416572Y-104227381D01*
X158749905Y-104322619D02*
X158797524Y-104275000D01*
X158892762Y-104227381D01*
X159130858Y-104227381D01*
X159226096Y-104275000D01*
X159273715Y-104322619D01*
X159321334Y-104417857D01*
X159321334Y-104513095D01*
X159273715Y-104655952D01*
X158702286Y-105227381D01*
X159321334Y-105227381D01*
X142465881Y-104901905D02*
X143275405Y-104901905D01*
X143370643Y-104854286D01*
X143418262Y-104806667D01*
X143465881Y-104711429D01*
X143465881Y-104520952D01*
X143418262Y-104425714D01*
X143370643Y-104378095D01*
X143275405Y-104330476D01*
X142465881Y-104330476D01*
X142561119Y-103901905D02*
X142513500Y-103854286D01*
X142465881Y-103759048D01*
X142465881Y-103520952D01*
X142513500Y-103425714D01*
X142561119Y-103378095D01*
X142656357Y-103330476D01*
X142751595Y-103330476D01*
X142894452Y-103378095D01*
X143465881Y-103949524D01*
X143465881Y-103330476D01*
M02*
