G04 #@! TF.FileFunction,Legend,Top*
%FSLAX46Y46*%
G04 Gerber Fmt 4.6, Leading zero omitted, Abs format (unit mm)*
G04 Created by KiCad (PCBNEW 4.0.1-3.201512221402+6198~38~ubuntu14.04.1-stable) date Mon 25 Jan 2016 02:37:38 AM PST*
%MOMM*%
G01*
G04 APERTURE LIST*
%ADD10C,0.100000*%
%ADD11C,0.200000*%
%ADD12C,0.150000*%
G04 APERTURE END LIST*
D10*
D11*
X41910000Y-114300000D02*
X41910000Y-116840000D01*
X41910000Y-106680000D02*
X41910000Y-104140000D01*
X40640000Y-105410000D02*
X43180000Y-105410000D01*
D12*
X115285000Y-122900000D02*
X103285000Y-122900000D01*
X103285000Y-122900000D02*
X103285000Y-118400000D01*
X103285000Y-118400000D02*
X115285000Y-118400000D01*
X115285000Y-118400000D02*
X115285000Y-122900000D01*
X122775000Y-112740000D02*
X110775000Y-112740000D01*
X110775000Y-112740000D02*
X110775000Y-108240000D01*
X110775000Y-108240000D02*
X122775000Y-108240000D01*
X122775000Y-108240000D02*
X122775000Y-112740000D01*
X130395000Y-122900000D02*
X118395000Y-122900000D01*
X118395000Y-122900000D02*
X118395000Y-118400000D01*
X118395000Y-118400000D02*
X130395000Y-118400000D01*
X130395000Y-118400000D02*
X130395000Y-122900000D01*
X138145000Y-112740000D02*
X126145000Y-112740000D01*
X126145000Y-112740000D02*
X126145000Y-108240000D01*
X126145000Y-108240000D02*
X138145000Y-108240000D01*
X138145000Y-108240000D02*
X138145000Y-112740000D01*
X145635000Y-122900000D02*
X133635000Y-122900000D01*
X133635000Y-122900000D02*
X133635000Y-118400000D01*
X133635000Y-118400000D02*
X145635000Y-118400000D01*
X145635000Y-118400000D02*
X145635000Y-122900000D01*
X153255000Y-112740000D02*
X141255000Y-112740000D01*
X141255000Y-112740000D02*
X141255000Y-108240000D01*
X141255000Y-108240000D02*
X153255000Y-108240000D01*
X153255000Y-108240000D02*
X153255000Y-112740000D01*
X161005000Y-122900000D02*
X149005000Y-122900000D01*
X149005000Y-122900000D02*
X149005000Y-118400000D01*
X149005000Y-118400000D02*
X161005000Y-118400000D01*
X161005000Y-118400000D02*
X161005000Y-122900000D01*
X168625000Y-112740000D02*
X156625000Y-112740000D01*
X156625000Y-112740000D02*
X156625000Y-108240000D01*
X156625000Y-108240000D02*
X168625000Y-108240000D01*
X168625000Y-108240000D02*
X168625000Y-112740000D01*
X176115000Y-122900000D02*
X164115000Y-122900000D01*
X164115000Y-122900000D02*
X164115000Y-118400000D01*
X164115000Y-118400000D02*
X176115000Y-118400000D01*
X176115000Y-118400000D02*
X176115000Y-122900000D01*
X183865000Y-112740000D02*
X171865000Y-112740000D01*
X171865000Y-112740000D02*
X171865000Y-108240000D01*
X171865000Y-108240000D02*
X183865000Y-108240000D01*
X183865000Y-108240000D02*
X183865000Y-112740000D01*
X191355000Y-122900000D02*
X179355000Y-122900000D01*
X179355000Y-122900000D02*
X179355000Y-118400000D01*
X179355000Y-118400000D02*
X191355000Y-118400000D01*
X191355000Y-118400000D02*
X191355000Y-122900000D01*
X198975000Y-112740000D02*
X186975000Y-112740000D01*
X186975000Y-112740000D02*
X186975000Y-108240000D01*
X186975000Y-108240000D02*
X198975000Y-108240000D01*
X198975000Y-108240000D02*
X198975000Y-112740000D01*
X111760000Y-116840000D02*
X110744000Y-116840000D01*
X116586000Y-116840000D02*
X117856000Y-116840000D01*
X116332000Y-118110000D02*
X116332000Y-115570000D01*
X116078000Y-118110000D02*
X116078000Y-115570000D01*
X115824000Y-118110000D02*
X115824000Y-115570000D01*
X116586000Y-118110000D02*
X116586000Y-115570000D01*
X115570000Y-118110000D02*
X116840000Y-115570000D01*
X116840000Y-118110000D02*
X115570000Y-115570000D01*
X115570000Y-118110000D02*
X115570000Y-115570000D01*
X116205000Y-118110000D02*
X116205000Y-115570000D01*
X116840000Y-115570000D02*
X116840000Y-118110000D01*
X116840000Y-118110000D02*
X111760000Y-118110000D01*
X111760000Y-118110000D02*
X111760000Y-115570000D01*
X111760000Y-115570000D02*
X116840000Y-115570000D01*
X119380000Y-114300000D02*
X118364000Y-114300000D01*
X124206000Y-114300000D02*
X125476000Y-114300000D01*
X123952000Y-115570000D02*
X123952000Y-113030000D01*
X123698000Y-115570000D02*
X123698000Y-113030000D01*
X123444000Y-115570000D02*
X123444000Y-113030000D01*
X124206000Y-115570000D02*
X124206000Y-113030000D01*
X123190000Y-115570000D02*
X124460000Y-113030000D01*
X124460000Y-115570000D02*
X123190000Y-113030000D01*
X123190000Y-115570000D02*
X123190000Y-113030000D01*
X123825000Y-115570000D02*
X123825000Y-113030000D01*
X124460000Y-113030000D02*
X124460000Y-115570000D01*
X124460000Y-115570000D02*
X119380000Y-115570000D01*
X119380000Y-115570000D02*
X119380000Y-113030000D01*
X119380000Y-113030000D02*
X124460000Y-113030000D01*
X127000000Y-116840000D02*
X125984000Y-116840000D01*
X131826000Y-116840000D02*
X133096000Y-116840000D01*
X131572000Y-118110000D02*
X131572000Y-115570000D01*
X131318000Y-118110000D02*
X131318000Y-115570000D01*
X131064000Y-118110000D02*
X131064000Y-115570000D01*
X131826000Y-118110000D02*
X131826000Y-115570000D01*
X130810000Y-118110000D02*
X132080000Y-115570000D01*
X132080000Y-118110000D02*
X130810000Y-115570000D01*
X130810000Y-118110000D02*
X130810000Y-115570000D01*
X131445000Y-118110000D02*
X131445000Y-115570000D01*
X132080000Y-115570000D02*
X132080000Y-118110000D01*
X132080000Y-118110000D02*
X127000000Y-118110000D01*
X127000000Y-118110000D02*
X127000000Y-115570000D01*
X127000000Y-115570000D02*
X132080000Y-115570000D01*
X134620000Y-114302540D02*
X133604000Y-114302540D01*
X139446000Y-114302540D02*
X140716000Y-114302540D01*
X139192000Y-115572540D02*
X139192000Y-113032540D01*
X138938000Y-115572540D02*
X138938000Y-113032540D01*
X138684000Y-115572540D02*
X138684000Y-113032540D01*
X139446000Y-115572540D02*
X139446000Y-113032540D01*
X138430000Y-115572540D02*
X139700000Y-113032540D01*
X139700000Y-115572540D02*
X138430000Y-113032540D01*
X138430000Y-115572540D02*
X138430000Y-113032540D01*
X139065000Y-115572540D02*
X139065000Y-113032540D01*
X139700000Y-113032540D02*
X139700000Y-115572540D01*
X139700000Y-115572540D02*
X134620000Y-115572540D01*
X134620000Y-115572540D02*
X134620000Y-113032540D01*
X134620000Y-113032540D02*
X139700000Y-113032540D01*
X142240000Y-116842540D02*
X141224000Y-116842540D01*
X147066000Y-116842540D02*
X148336000Y-116842540D01*
X146812000Y-118112540D02*
X146812000Y-115572540D01*
X146558000Y-118112540D02*
X146558000Y-115572540D01*
X146304000Y-118112540D02*
X146304000Y-115572540D01*
X147066000Y-118112540D02*
X147066000Y-115572540D01*
X146050000Y-118112540D02*
X147320000Y-115572540D01*
X147320000Y-118112540D02*
X146050000Y-115572540D01*
X146050000Y-118112540D02*
X146050000Y-115572540D01*
X146685000Y-118112540D02*
X146685000Y-115572540D01*
X147320000Y-115572540D02*
X147320000Y-118112540D01*
X147320000Y-118112540D02*
X142240000Y-118112540D01*
X142240000Y-118112540D02*
X142240000Y-115572540D01*
X142240000Y-115572540D02*
X147320000Y-115572540D01*
X149860000Y-114300000D02*
X148844000Y-114300000D01*
X154686000Y-114300000D02*
X155956000Y-114300000D01*
X154432000Y-115570000D02*
X154432000Y-113030000D01*
X154178000Y-115570000D02*
X154178000Y-113030000D01*
X153924000Y-115570000D02*
X153924000Y-113030000D01*
X154686000Y-115570000D02*
X154686000Y-113030000D01*
X153670000Y-115570000D02*
X154940000Y-113030000D01*
X154940000Y-115570000D02*
X153670000Y-113030000D01*
X153670000Y-115570000D02*
X153670000Y-113030000D01*
X154305000Y-115570000D02*
X154305000Y-113030000D01*
X154940000Y-113030000D02*
X154940000Y-115570000D01*
X154940000Y-115570000D02*
X149860000Y-115570000D01*
X149860000Y-115570000D02*
X149860000Y-113030000D01*
X149860000Y-113030000D02*
X154940000Y-113030000D01*
X157480000Y-116840000D02*
X156464000Y-116840000D01*
X162306000Y-116840000D02*
X163576000Y-116840000D01*
X162052000Y-118110000D02*
X162052000Y-115570000D01*
X161798000Y-118110000D02*
X161798000Y-115570000D01*
X161544000Y-118110000D02*
X161544000Y-115570000D01*
X162306000Y-118110000D02*
X162306000Y-115570000D01*
X161290000Y-118110000D02*
X162560000Y-115570000D01*
X162560000Y-118110000D02*
X161290000Y-115570000D01*
X161290000Y-118110000D02*
X161290000Y-115570000D01*
X161925000Y-118110000D02*
X161925000Y-115570000D01*
X162560000Y-115570000D02*
X162560000Y-118110000D01*
X162560000Y-118110000D02*
X157480000Y-118110000D01*
X157480000Y-118110000D02*
X157480000Y-115570000D01*
X157480000Y-115570000D02*
X162560000Y-115570000D01*
X165100000Y-114300000D02*
X164084000Y-114300000D01*
X169926000Y-114300000D02*
X171196000Y-114300000D01*
X169672000Y-115570000D02*
X169672000Y-113030000D01*
X169418000Y-115570000D02*
X169418000Y-113030000D01*
X169164000Y-115570000D02*
X169164000Y-113030000D01*
X169926000Y-115570000D02*
X169926000Y-113030000D01*
X168910000Y-115570000D02*
X170180000Y-113030000D01*
X170180000Y-115570000D02*
X168910000Y-113030000D01*
X168910000Y-115570000D02*
X168910000Y-113030000D01*
X169545000Y-115570000D02*
X169545000Y-113030000D01*
X170180000Y-113030000D02*
X170180000Y-115570000D01*
X170180000Y-115570000D02*
X165100000Y-115570000D01*
X165100000Y-115570000D02*
X165100000Y-113030000D01*
X165100000Y-113030000D02*
X170180000Y-113030000D01*
X172720000Y-116840000D02*
X171704000Y-116840000D01*
X177546000Y-116840000D02*
X178816000Y-116840000D01*
X177292000Y-118110000D02*
X177292000Y-115570000D01*
X177038000Y-118110000D02*
X177038000Y-115570000D01*
X176784000Y-118110000D02*
X176784000Y-115570000D01*
X177546000Y-118110000D02*
X177546000Y-115570000D01*
X176530000Y-118110000D02*
X177800000Y-115570000D01*
X177800000Y-118110000D02*
X176530000Y-115570000D01*
X176530000Y-118110000D02*
X176530000Y-115570000D01*
X177165000Y-118110000D02*
X177165000Y-115570000D01*
X177800000Y-115570000D02*
X177800000Y-118110000D01*
X177800000Y-118110000D02*
X172720000Y-118110000D01*
X172720000Y-118110000D02*
X172720000Y-115570000D01*
X172720000Y-115570000D02*
X177800000Y-115570000D01*
X180340000Y-114300000D02*
X179324000Y-114300000D01*
X185166000Y-114300000D02*
X186436000Y-114300000D01*
X184912000Y-115570000D02*
X184912000Y-113030000D01*
X184658000Y-115570000D02*
X184658000Y-113030000D01*
X184404000Y-115570000D02*
X184404000Y-113030000D01*
X185166000Y-115570000D02*
X185166000Y-113030000D01*
X184150000Y-115570000D02*
X185420000Y-113030000D01*
X185420000Y-115570000D02*
X184150000Y-113030000D01*
X184150000Y-115570000D02*
X184150000Y-113030000D01*
X184785000Y-115570000D02*
X184785000Y-113030000D01*
X185420000Y-113030000D02*
X185420000Y-115570000D01*
X185420000Y-115570000D02*
X180340000Y-115570000D01*
X180340000Y-115570000D02*
X180340000Y-113030000D01*
X180340000Y-113030000D02*
X185420000Y-113030000D01*
X187960000Y-116840000D02*
X186944000Y-116840000D01*
X192786000Y-116840000D02*
X194056000Y-116840000D01*
X192532000Y-118110000D02*
X192532000Y-115570000D01*
X192278000Y-118110000D02*
X192278000Y-115570000D01*
X192024000Y-118110000D02*
X192024000Y-115570000D01*
X192786000Y-118110000D02*
X192786000Y-115570000D01*
X191770000Y-118110000D02*
X193040000Y-115570000D01*
X193040000Y-118110000D02*
X191770000Y-115570000D01*
X191770000Y-118110000D02*
X191770000Y-115570000D01*
X192405000Y-118110000D02*
X192405000Y-115570000D01*
X193040000Y-115570000D02*
X193040000Y-118110000D01*
X193040000Y-118110000D02*
X187960000Y-118110000D01*
X187960000Y-118110000D02*
X187960000Y-115570000D01*
X187960000Y-115570000D02*
X193040000Y-115570000D01*
X195580000Y-114300000D02*
X194564000Y-114300000D01*
X200406000Y-114300000D02*
X201676000Y-114300000D01*
X200152000Y-115570000D02*
X200152000Y-113030000D01*
X199898000Y-115570000D02*
X199898000Y-113030000D01*
X199644000Y-115570000D02*
X199644000Y-113030000D01*
X200406000Y-115570000D02*
X200406000Y-113030000D01*
X199390000Y-115570000D02*
X200660000Y-113030000D01*
X200660000Y-115570000D02*
X199390000Y-113030000D01*
X199390000Y-115570000D02*
X199390000Y-113030000D01*
X200025000Y-115570000D02*
X200025000Y-113030000D01*
X200660000Y-113030000D02*
X200660000Y-115570000D01*
X200660000Y-115570000D02*
X195580000Y-115570000D01*
X195580000Y-115570000D02*
X195580000Y-113030000D01*
X195580000Y-113030000D02*
X200660000Y-113030000D01*
X100330000Y-120650000D02*
X100330000Y-100330000D01*
X46990000Y-120650000D02*
X100330000Y-120650000D01*
X46990000Y-100330000D02*
X46990000Y-120650000D01*
X100330000Y-100330000D02*
X46990000Y-100330000D01*
X207010000Y-100870000D02*
X207010000Y-101470000D01*
X203010000Y-100870000D02*
X207010000Y-100870000D01*
X203010000Y-100870000D02*
X203510000Y-101370000D01*
X203010000Y-100870000D02*
X203510000Y-100370000D01*
X197010000Y-101470000D02*
X197010000Y-100870000D01*
X201010000Y-100870000D02*
X197010000Y-100870000D01*
X201010000Y-100870000D02*
X200510000Y-101370000D01*
X200510000Y-100370000D02*
X201010000Y-100870000D01*
X209010000Y-115570000D02*
X208410000Y-115570000D01*
X209010000Y-111570000D02*
X209010000Y-115570000D01*
X209010000Y-111570000D02*
X208510000Y-112070000D01*
X209010000Y-111570000D02*
X209510000Y-112070000D01*
X208410000Y-105570000D02*
X209010000Y-105570000D01*
X209010000Y-109570000D02*
X209010000Y-105570000D01*
X209010000Y-109570000D02*
X208510000Y-109070000D01*
X209510000Y-109070000D02*
X209010000Y-109570000D01*
X40640000Y-110490000D02*
X40640000Y-107950000D01*
X40360000Y-113310000D02*
X40360000Y-111760000D01*
X40640000Y-110490000D02*
X43180000Y-110490000D01*
X43460000Y-111760000D02*
X43460000Y-113310000D01*
X43460000Y-113310000D02*
X40360000Y-113310000D01*
X43180000Y-110490000D02*
X43180000Y-107950000D01*
X43180000Y-107950000D02*
X40640000Y-107950000D01*
X109053334Y-121007143D02*
X109005715Y-121054762D01*
X108862858Y-121102381D01*
X108767620Y-121102381D01*
X108624762Y-121054762D01*
X108529524Y-120959524D01*
X108481905Y-120864286D01*
X108434286Y-120673810D01*
X108434286Y-120530952D01*
X108481905Y-120340476D01*
X108529524Y-120245238D01*
X108624762Y-120150000D01*
X108767620Y-120102381D01*
X108862858Y-120102381D01*
X109005715Y-120150000D01*
X109053334Y-120197619D01*
X110005715Y-121102381D02*
X109434286Y-121102381D01*
X109720000Y-121102381D02*
X109720000Y-120102381D01*
X109624762Y-120245238D01*
X109529524Y-120340476D01*
X109434286Y-120388095D01*
X116673334Y-110847143D02*
X116625715Y-110894762D01*
X116482858Y-110942381D01*
X116387620Y-110942381D01*
X116244762Y-110894762D01*
X116149524Y-110799524D01*
X116101905Y-110704286D01*
X116054286Y-110513810D01*
X116054286Y-110370952D01*
X116101905Y-110180476D01*
X116149524Y-110085238D01*
X116244762Y-109990000D01*
X116387620Y-109942381D01*
X116482858Y-109942381D01*
X116625715Y-109990000D01*
X116673334Y-110037619D01*
X117054286Y-110037619D02*
X117101905Y-109990000D01*
X117197143Y-109942381D01*
X117435239Y-109942381D01*
X117530477Y-109990000D01*
X117578096Y-110037619D01*
X117625715Y-110132857D01*
X117625715Y-110228095D01*
X117578096Y-110370952D01*
X117006667Y-110942381D01*
X117625715Y-110942381D01*
X124293334Y-121007143D02*
X124245715Y-121054762D01*
X124102858Y-121102381D01*
X124007620Y-121102381D01*
X123864762Y-121054762D01*
X123769524Y-120959524D01*
X123721905Y-120864286D01*
X123674286Y-120673810D01*
X123674286Y-120530952D01*
X123721905Y-120340476D01*
X123769524Y-120245238D01*
X123864762Y-120150000D01*
X124007620Y-120102381D01*
X124102858Y-120102381D01*
X124245715Y-120150000D01*
X124293334Y-120197619D01*
X124626667Y-120102381D02*
X125245715Y-120102381D01*
X124912381Y-120483333D01*
X125055239Y-120483333D01*
X125150477Y-120530952D01*
X125198096Y-120578571D01*
X125245715Y-120673810D01*
X125245715Y-120911905D01*
X125198096Y-121007143D01*
X125150477Y-121054762D01*
X125055239Y-121102381D01*
X124769524Y-121102381D01*
X124674286Y-121054762D01*
X124626667Y-121007143D01*
X131913334Y-110847143D02*
X131865715Y-110894762D01*
X131722858Y-110942381D01*
X131627620Y-110942381D01*
X131484762Y-110894762D01*
X131389524Y-110799524D01*
X131341905Y-110704286D01*
X131294286Y-110513810D01*
X131294286Y-110370952D01*
X131341905Y-110180476D01*
X131389524Y-110085238D01*
X131484762Y-109990000D01*
X131627620Y-109942381D01*
X131722858Y-109942381D01*
X131865715Y-109990000D01*
X131913334Y-110037619D01*
X132770477Y-110275714D02*
X132770477Y-110942381D01*
X132532381Y-109894762D02*
X132294286Y-110609048D01*
X132913334Y-110609048D01*
X139468334Y-121007143D02*
X139420715Y-121054762D01*
X139277858Y-121102381D01*
X139182620Y-121102381D01*
X139039762Y-121054762D01*
X138944524Y-120959524D01*
X138896905Y-120864286D01*
X138849286Y-120673810D01*
X138849286Y-120530952D01*
X138896905Y-120340476D01*
X138944524Y-120245238D01*
X139039762Y-120150000D01*
X139182620Y-120102381D01*
X139277858Y-120102381D01*
X139420715Y-120150000D01*
X139468334Y-120197619D01*
X140373096Y-120102381D02*
X139896905Y-120102381D01*
X139849286Y-120578571D01*
X139896905Y-120530952D01*
X139992143Y-120483333D01*
X140230239Y-120483333D01*
X140325477Y-120530952D01*
X140373096Y-120578571D01*
X140420715Y-120673810D01*
X140420715Y-120911905D01*
X140373096Y-121007143D01*
X140325477Y-121054762D01*
X140230239Y-121102381D01*
X139992143Y-121102381D01*
X139896905Y-121054762D01*
X139849286Y-121007143D01*
X147088334Y-110847143D02*
X147040715Y-110894762D01*
X146897858Y-110942381D01*
X146802620Y-110942381D01*
X146659762Y-110894762D01*
X146564524Y-110799524D01*
X146516905Y-110704286D01*
X146469286Y-110513810D01*
X146469286Y-110370952D01*
X146516905Y-110180476D01*
X146564524Y-110085238D01*
X146659762Y-109990000D01*
X146802620Y-109942381D01*
X146897858Y-109942381D01*
X147040715Y-109990000D01*
X147088334Y-110037619D01*
X147945477Y-109942381D02*
X147755000Y-109942381D01*
X147659762Y-109990000D01*
X147612143Y-110037619D01*
X147516905Y-110180476D01*
X147469286Y-110370952D01*
X147469286Y-110751905D01*
X147516905Y-110847143D01*
X147564524Y-110894762D01*
X147659762Y-110942381D01*
X147850239Y-110942381D01*
X147945477Y-110894762D01*
X147993096Y-110847143D01*
X148040715Y-110751905D01*
X148040715Y-110513810D01*
X147993096Y-110418571D01*
X147945477Y-110370952D01*
X147850239Y-110323333D01*
X147659762Y-110323333D01*
X147564524Y-110370952D01*
X147516905Y-110418571D01*
X147469286Y-110513810D01*
X154773334Y-121007143D02*
X154725715Y-121054762D01*
X154582858Y-121102381D01*
X154487620Y-121102381D01*
X154344762Y-121054762D01*
X154249524Y-120959524D01*
X154201905Y-120864286D01*
X154154286Y-120673810D01*
X154154286Y-120530952D01*
X154201905Y-120340476D01*
X154249524Y-120245238D01*
X154344762Y-120150000D01*
X154487620Y-120102381D01*
X154582858Y-120102381D01*
X154725715Y-120150000D01*
X154773334Y-120197619D01*
X155106667Y-120102381D02*
X155773334Y-120102381D01*
X155344762Y-121102381D01*
X162393334Y-110847143D02*
X162345715Y-110894762D01*
X162202858Y-110942381D01*
X162107620Y-110942381D01*
X161964762Y-110894762D01*
X161869524Y-110799524D01*
X161821905Y-110704286D01*
X161774286Y-110513810D01*
X161774286Y-110370952D01*
X161821905Y-110180476D01*
X161869524Y-110085238D01*
X161964762Y-109990000D01*
X162107620Y-109942381D01*
X162202858Y-109942381D01*
X162345715Y-109990000D01*
X162393334Y-110037619D01*
X162964762Y-110370952D02*
X162869524Y-110323333D01*
X162821905Y-110275714D01*
X162774286Y-110180476D01*
X162774286Y-110132857D01*
X162821905Y-110037619D01*
X162869524Y-109990000D01*
X162964762Y-109942381D01*
X163155239Y-109942381D01*
X163250477Y-109990000D01*
X163298096Y-110037619D01*
X163345715Y-110132857D01*
X163345715Y-110180476D01*
X163298096Y-110275714D01*
X163250477Y-110323333D01*
X163155239Y-110370952D01*
X162964762Y-110370952D01*
X162869524Y-110418571D01*
X162821905Y-110466190D01*
X162774286Y-110561429D01*
X162774286Y-110751905D01*
X162821905Y-110847143D01*
X162869524Y-110894762D01*
X162964762Y-110942381D01*
X163155239Y-110942381D01*
X163250477Y-110894762D01*
X163298096Y-110847143D01*
X163345715Y-110751905D01*
X163345715Y-110561429D01*
X163298096Y-110466190D01*
X163250477Y-110418571D01*
X163155239Y-110370952D01*
X169948334Y-121007143D02*
X169900715Y-121054762D01*
X169757858Y-121102381D01*
X169662620Y-121102381D01*
X169519762Y-121054762D01*
X169424524Y-120959524D01*
X169376905Y-120864286D01*
X169329286Y-120673810D01*
X169329286Y-120530952D01*
X169376905Y-120340476D01*
X169424524Y-120245238D01*
X169519762Y-120150000D01*
X169662620Y-120102381D01*
X169757858Y-120102381D01*
X169900715Y-120150000D01*
X169948334Y-120197619D01*
X170424524Y-121102381D02*
X170615000Y-121102381D01*
X170710239Y-121054762D01*
X170757858Y-121007143D01*
X170853096Y-120864286D01*
X170900715Y-120673810D01*
X170900715Y-120292857D01*
X170853096Y-120197619D01*
X170805477Y-120150000D01*
X170710239Y-120102381D01*
X170519762Y-120102381D01*
X170424524Y-120150000D01*
X170376905Y-120197619D01*
X170329286Y-120292857D01*
X170329286Y-120530952D01*
X170376905Y-120626190D01*
X170424524Y-120673810D01*
X170519762Y-120721429D01*
X170710239Y-120721429D01*
X170805477Y-120673810D01*
X170853096Y-120626190D01*
X170900715Y-120530952D01*
X177157143Y-110847143D02*
X177109524Y-110894762D01*
X176966667Y-110942381D01*
X176871429Y-110942381D01*
X176728571Y-110894762D01*
X176633333Y-110799524D01*
X176585714Y-110704286D01*
X176538095Y-110513810D01*
X176538095Y-110370952D01*
X176585714Y-110180476D01*
X176633333Y-110085238D01*
X176728571Y-109990000D01*
X176871429Y-109942381D01*
X176966667Y-109942381D01*
X177109524Y-109990000D01*
X177157143Y-110037619D01*
X178109524Y-110942381D02*
X177538095Y-110942381D01*
X177823809Y-110942381D02*
X177823809Y-109942381D01*
X177728571Y-110085238D01*
X177633333Y-110180476D01*
X177538095Y-110228095D01*
X178728571Y-109942381D02*
X178823810Y-109942381D01*
X178919048Y-109990000D01*
X178966667Y-110037619D01*
X179014286Y-110132857D01*
X179061905Y-110323333D01*
X179061905Y-110561429D01*
X179014286Y-110751905D01*
X178966667Y-110847143D01*
X178919048Y-110894762D01*
X178823810Y-110942381D01*
X178728571Y-110942381D01*
X178633333Y-110894762D01*
X178585714Y-110847143D01*
X178538095Y-110751905D01*
X178490476Y-110561429D01*
X178490476Y-110323333D01*
X178538095Y-110132857D01*
X178585714Y-110037619D01*
X178633333Y-109990000D01*
X178728571Y-109942381D01*
X184712143Y-121007143D02*
X184664524Y-121054762D01*
X184521667Y-121102381D01*
X184426429Y-121102381D01*
X184283571Y-121054762D01*
X184188333Y-120959524D01*
X184140714Y-120864286D01*
X184093095Y-120673810D01*
X184093095Y-120530952D01*
X184140714Y-120340476D01*
X184188333Y-120245238D01*
X184283571Y-120150000D01*
X184426429Y-120102381D01*
X184521667Y-120102381D01*
X184664524Y-120150000D01*
X184712143Y-120197619D01*
X185664524Y-121102381D02*
X185093095Y-121102381D01*
X185378809Y-121102381D02*
X185378809Y-120102381D01*
X185283571Y-120245238D01*
X185188333Y-120340476D01*
X185093095Y-120388095D01*
X186616905Y-121102381D02*
X186045476Y-121102381D01*
X186331190Y-121102381D02*
X186331190Y-120102381D01*
X186235952Y-120245238D01*
X186140714Y-120340476D01*
X186045476Y-120388095D01*
X192332143Y-110847143D02*
X192284524Y-110894762D01*
X192141667Y-110942381D01*
X192046429Y-110942381D01*
X191903571Y-110894762D01*
X191808333Y-110799524D01*
X191760714Y-110704286D01*
X191713095Y-110513810D01*
X191713095Y-110370952D01*
X191760714Y-110180476D01*
X191808333Y-110085238D01*
X191903571Y-109990000D01*
X192046429Y-109942381D01*
X192141667Y-109942381D01*
X192284524Y-109990000D01*
X192332143Y-110037619D01*
X193284524Y-110942381D02*
X192713095Y-110942381D01*
X192998809Y-110942381D02*
X192998809Y-109942381D01*
X192903571Y-110085238D01*
X192808333Y-110180476D01*
X192713095Y-110228095D01*
X193665476Y-110037619D02*
X193713095Y-109990000D01*
X193808333Y-109942381D01*
X194046429Y-109942381D01*
X194141667Y-109990000D01*
X194189286Y-110037619D01*
X194236905Y-110132857D01*
X194236905Y-110228095D01*
X194189286Y-110370952D01*
X193617857Y-110942381D01*
X194236905Y-110942381D01*
X113561905Y-114752381D02*
X113561905Y-113752381D01*
X113800000Y-113752381D01*
X113942858Y-113800000D01*
X114038096Y-113895238D01*
X114085715Y-113990476D01*
X114133334Y-114180952D01*
X114133334Y-114323810D01*
X114085715Y-114514286D01*
X114038096Y-114609524D01*
X113942858Y-114704762D01*
X113800000Y-114752381D01*
X113561905Y-114752381D01*
X115085715Y-114752381D02*
X114514286Y-114752381D01*
X114800000Y-114752381D02*
X114800000Y-113752381D01*
X114704762Y-113895238D01*
X114609524Y-113990476D01*
X114514286Y-114038095D01*
X121181905Y-117292381D02*
X121181905Y-116292381D01*
X121420000Y-116292381D01*
X121562858Y-116340000D01*
X121658096Y-116435238D01*
X121705715Y-116530476D01*
X121753334Y-116720952D01*
X121753334Y-116863810D01*
X121705715Y-117054286D01*
X121658096Y-117149524D01*
X121562858Y-117244762D01*
X121420000Y-117292381D01*
X121181905Y-117292381D01*
X122134286Y-116387619D02*
X122181905Y-116340000D01*
X122277143Y-116292381D01*
X122515239Y-116292381D01*
X122610477Y-116340000D01*
X122658096Y-116387619D01*
X122705715Y-116482857D01*
X122705715Y-116578095D01*
X122658096Y-116720952D01*
X122086667Y-117292381D01*
X122705715Y-117292381D01*
X128801905Y-114752381D02*
X128801905Y-113752381D01*
X129040000Y-113752381D01*
X129182858Y-113800000D01*
X129278096Y-113895238D01*
X129325715Y-113990476D01*
X129373334Y-114180952D01*
X129373334Y-114323810D01*
X129325715Y-114514286D01*
X129278096Y-114609524D01*
X129182858Y-114704762D01*
X129040000Y-114752381D01*
X128801905Y-114752381D01*
X129706667Y-113752381D02*
X130325715Y-113752381D01*
X129992381Y-114133333D01*
X130135239Y-114133333D01*
X130230477Y-114180952D01*
X130278096Y-114228571D01*
X130325715Y-114323810D01*
X130325715Y-114561905D01*
X130278096Y-114657143D01*
X130230477Y-114704762D01*
X130135239Y-114752381D01*
X129849524Y-114752381D01*
X129754286Y-114704762D01*
X129706667Y-114657143D01*
X136421905Y-117292381D02*
X136421905Y-116292381D01*
X136660000Y-116292381D01*
X136802858Y-116340000D01*
X136898096Y-116435238D01*
X136945715Y-116530476D01*
X136993334Y-116720952D01*
X136993334Y-116863810D01*
X136945715Y-117054286D01*
X136898096Y-117149524D01*
X136802858Y-117244762D01*
X136660000Y-117292381D01*
X136421905Y-117292381D01*
X137850477Y-116625714D02*
X137850477Y-117292381D01*
X137612381Y-116244762D02*
X137374286Y-116959048D01*
X137993334Y-116959048D01*
X144041905Y-114754921D02*
X144041905Y-113754921D01*
X144280000Y-113754921D01*
X144422858Y-113802540D01*
X144518096Y-113897778D01*
X144565715Y-113993016D01*
X144613334Y-114183492D01*
X144613334Y-114326350D01*
X144565715Y-114516826D01*
X144518096Y-114612064D01*
X144422858Y-114707302D01*
X144280000Y-114754921D01*
X144041905Y-114754921D01*
X145518096Y-113754921D02*
X145041905Y-113754921D01*
X144994286Y-114231111D01*
X145041905Y-114183492D01*
X145137143Y-114135873D01*
X145375239Y-114135873D01*
X145470477Y-114183492D01*
X145518096Y-114231111D01*
X145565715Y-114326350D01*
X145565715Y-114564445D01*
X145518096Y-114659683D01*
X145470477Y-114707302D01*
X145375239Y-114754921D01*
X145137143Y-114754921D01*
X145041905Y-114707302D01*
X144994286Y-114659683D01*
X151661905Y-117292381D02*
X151661905Y-116292381D01*
X151900000Y-116292381D01*
X152042858Y-116340000D01*
X152138096Y-116435238D01*
X152185715Y-116530476D01*
X152233334Y-116720952D01*
X152233334Y-116863810D01*
X152185715Y-117054286D01*
X152138096Y-117149524D01*
X152042858Y-117244762D01*
X151900000Y-117292381D01*
X151661905Y-117292381D01*
X153090477Y-116292381D02*
X152900000Y-116292381D01*
X152804762Y-116340000D01*
X152757143Y-116387619D01*
X152661905Y-116530476D01*
X152614286Y-116720952D01*
X152614286Y-117101905D01*
X152661905Y-117197143D01*
X152709524Y-117244762D01*
X152804762Y-117292381D01*
X152995239Y-117292381D01*
X153090477Y-117244762D01*
X153138096Y-117197143D01*
X153185715Y-117101905D01*
X153185715Y-116863810D01*
X153138096Y-116768571D01*
X153090477Y-116720952D01*
X152995239Y-116673333D01*
X152804762Y-116673333D01*
X152709524Y-116720952D01*
X152661905Y-116768571D01*
X152614286Y-116863810D01*
X159281905Y-114752381D02*
X159281905Y-113752381D01*
X159520000Y-113752381D01*
X159662858Y-113800000D01*
X159758096Y-113895238D01*
X159805715Y-113990476D01*
X159853334Y-114180952D01*
X159853334Y-114323810D01*
X159805715Y-114514286D01*
X159758096Y-114609524D01*
X159662858Y-114704762D01*
X159520000Y-114752381D01*
X159281905Y-114752381D01*
X160186667Y-113752381D02*
X160853334Y-113752381D01*
X160424762Y-114752381D01*
X166901905Y-117292381D02*
X166901905Y-116292381D01*
X167140000Y-116292381D01*
X167282858Y-116340000D01*
X167378096Y-116435238D01*
X167425715Y-116530476D01*
X167473334Y-116720952D01*
X167473334Y-116863810D01*
X167425715Y-117054286D01*
X167378096Y-117149524D01*
X167282858Y-117244762D01*
X167140000Y-117292381D01*
X166901905Y-117292381D01*
X168044762Y-116720952D02*
X167949524Y-116673333D01*
X167901905Y-116625714D01*
X167854286Y-116530476D01*
X167854286Y-116482857D01*
X167901905Y-116387619D01*
X167949524Y-116340000D01*
X168044762Y-116292381D01*
X168235239Y-116292381D01*
X168330477Y-116340000D01*
X168378096Y-116387619D01*
X168425715Y-116482857D01*
X168425715Y-116530476D01*
X168378096Y-116625714D01*
X168330477Y-116673333D01*
X168235239Y-116720952D01*
X168044762Y-116720952D01*
X167949524Y-116768571D01*
X167901905Y-116816190D01*
X167854286Y-116911429D01*
X167854286Y-117101905D01*
X167901905Y-117197143D01*
X167949524Y-117244762D01*
X168044762Y-117292381D01*
X168235239Y-117292381D01*
X168330477Y-117244762D01*
X168378096Y-117197143D01*
X168425715Y-117101905D01*
X168425715Y-116911429D01*
X168378096Y-116816190D01*
X168330477Y-116768571D01*
X168235239Y-116720952D01*
X174521905Y-114752381D02*
X174521905Y-113752381D01*
X174760000Y-113752381D01*
X174902858Y-113800000D01*
X174998096Y-113895238D01*
X175045715Y-113990476D01*
X175093334Y-114180952D01*
X175093334Y-114323810D01*
X175045715Y-114514286D01*
X174998096Y-114609524D01*
X174902858Y-114704762D01*
X174760000Y-114752381D01*
X174521905Y-114752381D01*
X175569524Y-114752381D02*
X175760000Y-114752381D01*
X175855239Y-114704762D01*
X175902858Y-114657143D01*
X175998096Y-114514286D01*
X176045715Y-114323810D01*
X176045715Y-113942857D01*
X175998096Y-113847619D01*
X175950477Y-113800000D01*
X175855239Y-113752381D01*
X175664762Y-113752381D01*
X175569524Y-113800000D01*
X175521905Y-113847619D01*
X175474286Y-113942857D01*
X175474286Y-114180952D01*
X175521905Y-114276190D01*
X175569524Y-114323810D01*
X175664762Y-114371429D01*
X175855239Y-114371429D01*
X175950477Y-114323810D01*
X175998096Y-114276190D01*
X176045715Y-114180952D01*
X181665714Y-117292381D02*
X181665714Y-116292381D01*
X181903809Y-116292381D01*
X182046667Y-116340000D01*
X182141905Y-116435238D01*
X182189524Y-116530476D01*
X182237143Y-116720952D01*
X182237143Y-116863810D01*
X182189524Y-117054286D01*
X182141905Y-117149524D01*
X182046667Y-117244762D01*
X181903809Y-117292381D01*
X181665714Y-117292381D01*
X183189524Y-117292381D02*
X182618095Y-117292381D01*
X182903809Y-117292381D02*
X182903809Y-116292381D01*
X182808571Y-116435238D01*
X182713333Y-116530476D01*
X182618095Y-116578095D01*
X183808571Y-116292381D02*
X183903810Y-116292381D01*
X183999048Y-116340000D01*
X184046667Y-116387619D01*
X184094286Y-116482857D01*
X184141905Y-116673333D01*
X184141905Y-116911429D01*
X184094286Y-117101905D01*
X184046667Y-117197143D01*
X183999048Y-117244762D01*
X183903810Y-117292381D01*
X183808571Y-117292381D01*
X183713333Y-117244762D01*
X183665714Y-117197143D01*
X183618095Y-117101905D01*
X183570476Y-116911429D01*
X183570476Y-116673333D01*
X183618095Y-116482857D01*
X183665714Y-116387619D01*
X183713333Y-116340000D01*
X183808571Y-116292381D01*
X189285714Y-114752381D02*
X189285714Y-113752381D01*
X189523809Y-113752381D01*
X189666667Y-113800000D01*
X189761905Y-113895238D01*
X189809524Y-113990476D01*
X189857143Y-114180952D01*
X189857143Y-114323810D01*
X189809524Y-114514286D01*
X189761905Y-114609524D01*
X189666667Y-114704762D01*
X189523809Y-114752381D01*
X189285714Y-114752381D01*
X190809524Y-114752381D02*
X190238095Y-114752381D01*
X190523809Y-114752381D02*
X190523809Y-113752381D01*
X190428571Y-113895238D01*
X190333333Y-113990476D01*
X190238095Y-114038095D01*
X191761905Y-114752381D02*
X191190476Y-114752381D01*
X191476190Y-114752381D02*
X191476190Y-113752381D01*
X191380952Y-113895238D01*
X191285714Y-113990476D01*
X191190476Y-114038095D01*
X196905714Y-117292381D02*
X196905714Y-116292381D01*
X197143809Y-116292381D01*
X197286667Y-116340000D01*
X197381905Y-116435238D01*
X197429524Y-116530476D01*
X197477143Y-116720952D01*
X197477143Y-116863810D01*
X197429524Y-117054286D01*
X197381905Y-117149524D01*
X197286667Y-117244762D01*
X197143809Y-117292381D01*
X196905714Y-117292381D01*
X198429524Y-117292381D02*
X197858095Y-117292381D01*
X198143809Y-117292381D02*
X198143809Y-116292381D01*
X198048571Y-116435238D01*
X197953333Y-116530476D01*
X197858095Y-116578095D01*
X198810476Y-116387619D02*
X198858095Y-116340000D01*
X198953333Y-116292381D01*
X199191429Y-116292381D01*
X199286667Y-116340000D01*
X199334286Y-116387619D01*
X199381905Y-116482857D01*
X199381905Y-116578095D01*
X199334286Y-116720952D01*
X198762857Y-117292381D01*
X199381905Y-117292381D01*
X73096667Y-113482381D02*
X73096667Y-112482381D01*
X73430001Y-113196667D01*
X73763334Y-112482381D01*
X73763334Y-113482381D01*
X74430000Y-112482381D02*
X74620477Y-112482381D01*
X74715715Y-112530000D01*
X74810953Y-112625238D01*
X74858572Y-112815714D01*
X74858572Y-113149048D01*
X74810953Y-113339524D01*
X74715715Y-113434762D01*
X74620477Y-113482381D01*
X74430000Y-113482381D01*
X74334762Y-113434762D01*
X74239524Y-113339524D01*
X74191905Y-113149048D01*
X74191905Y-112815714D01*
X74239524Y-112625238D01*
X74334762Y-112530000D01*
X74430000Y-112482381D01*
X75287143Y-113482381D02*
X75287143Y-112482381D01*
X75525238Y-112482381D01*
X75668096Y-112530000D01*
X75763334Y-112625238D01*
X75810953Y-112720476D01*
X75858572Y-112910952D01*
X75858572Y-113053810D01*
X75810953Y-113244286D01*
X75763334Y-113339524D01*
X75668096Y-113434762D01*
X75525238Y-113482381D01*
X75287143Y-113482381D01*
X76810953Y-113482381D02*
X76239524Y-113482381D01*
X76525238Y-113482381D02*
X76525238Y-112482381D01*
X76430000Y-112625238D01*
X76334762Y-112720476D01*
X76239524Y-112768095D01*
X200748095Y-104874762D02*
X200890952Y-104922381D01*
X201129048Y-104922381D01*
X201224286Y-104874762D01*
X201271905Y-104827143D01*
X201319524Y-104731905D01*
X201319524Y-104636667D01*
X201271905Y-104541429D01*
X201224286Y-104493810D01*
X201129048Y-104446190D01*
X200938571Y-104398571D01*
X200843333Y-104350952D01*
X200795714Y-104303333D01*
X200748095Y-104208095D01*
X200748095Y-104112857D01*
X200795714Y-104017619D01*
X200843333Y-103970000D01*
X200938571Y-103922381D01*
X201176667Y-103922381D01*
X201319524Y-103970000D01*
X202271905Y-103970000D02*
X202176667Y-103922381D01*
X202033810Y-103922381D01*
X201890952Y-103970000D01*
X201795714Y-104065238D01*
X201748095Y-104160476D01*
X201700476Y-104350952D01*
X201700476Y-104493810D01*
X201748095Y-104684286D01*
X201795714Y-104779524D01*
X201890952Y-104874762D01*
X202033810Y-104922381D01*
X202129048Y-104922381D01*
X202271905Y-104874762D01*
X202319524Y-104827143D01*
X202319524Y-104493810D01*
X202129048Y-104493810D01*
X203271905Y-104922381D02*
X202700476Y-104922381D01*
X202986190Y-104922381D02*
X202986190Y-103922381D01*
X202890952Y-104065238D01*
X202795714Y-104160476D01*
X202700476Y-104208095D01*
X205814762Y-111831905D02*
X205862381Y-111689048D01*
X205862381Y-111450952D01*
X205814762Y-111355714D01*
X205767143Y-111308095D01*
X205671905Y-111260476D01*
X205576667Y-111260476D01*
X205481429Y-111308095D01*
X205433810Y-111355714D01*
X205386190Y-111450952D01*
X205338571Y-111641429D01*
X205290952Y-111736667D01*
X205243333Y-111784286D01*
X205148095Y-111831905D01*
X205052857Y-111831905D01*
X204957619Y-111784286D01*
X204910000Y-111736667D01*
X204862381Y-111641429D01*
X204862381Y-111403333D01*
X204910000Y-111260476D01*
X204910000Y-110308095D02*
X204862381Y-110403333D01*
X204862381Y-110546190D01*
X204910000Y-110689048D01*
X205005238Y-110784286D01*
X205100476Y-110831905D01*
X205290952Y-110879524D01*
X205433810Y-110879524D01*
X205624286Y-110831905D01*
X205719524Y-110784286D01*
X205814762Y-110689048D01*
X205862381Y-110546190D01*
X205862381Y-110450952D01*
X205814762Y-110308095D01*
X205767143Y-110260476D01*
X205433810Y-110260476D01*
X205433810Y-110450952D01*
X204957619Y-109879524D02*
X204910000Y-109831905D01*
X204862381Y-109736667D01*
X204862381Y-109498571D01*
X204910000Y-109403333D01*
X204957619Y-109355714D01*
X205052857Y-109308095D01*
X205148095Y-109308095D01*
X205290952Y-109355714D01*
X205862381Y-109927143D01*
X205862381Y-109308095D01*
X39822381Y-111228095D02*
X38822381Y-111228095D01*
X38822381Y-110847142D01*
X38870000Y-110751904D01*
X38917619Y-110704285D01*
X39012857Y-110656666D01*
X39155714Y-110656666D01*
X39250952Y-110704285D01*
X39298571Y-110751904D01*
X39346190Y-110847142D01*
X39346190Y-111228095D01*
X39822381Y-109704285D02*
X39822381Y-110275714D01*
X39822381Y-109990000D02*
X38822381Y-109990000D01*
X38965238Y-110085238D01*
X39060476Y-110180476D01*
X39108095Y-110275714D01*
M02*
