G04 #@! TF.FileFunction,Copper,L2,Bot,Signal*
%FSLAX46Y46*%
G04 Gerber Fmt 4.6, Leading zero omitted, Abs format (unit mm)*
G04 Created by KiCad (PCBNEW 4.0.1-3.201512221402+6198~38~ubuntu14.04.1-stable) date Mon 25 Jan 2016 02:37:38 AM PST*
%MOMM*%
G01*
G04 APERTURE LIST*
%ADD10C,0.100000*%
%ADD11R,1.400000X1.400000*%
%ADD12C,1.400000*%
%ADD13C,1.998980*%
%ADD14R,1.998980X1.998980*%
%ADD15C,1.524000*%
%ADD16C,2.000000*%
%ADD17R,2.032000X2.032000*%
%ADD18O,2.032000X2.032000*%
G04 APERTURE END LIST*
D10*
D11*
X113160000Y-120650000D03*
D12*
X105410000Y-120650000D03*
D11*
X120650000Y-110490000D03*
D12*
X112900000Y-110490000D03*
D11*
X128270000Y-120650000D03*
D12*
X120520000Y-120650000D03*
D11*
X136020000Y-110490000D03*
D12*
X128270000Y-110490000D03*
D11*
X143510000Y-120650000D03*
D12*
X135760000Y-120650000D03*
D11*
X151130000Y-110490000D03*
D12*
X143380000Y-110490000D03*
D11*
X158880000Y-120650000D03*
D12*
X151130000Y-120650000D03*
D11*
X166500000Y-110490000D03*
D12*
X158750000Y-110490000D03*
D11*
X173990000Y-120650000D03*
D12*
X166240000Y-120650000D03*
D11*
X181740000Y-110490000D03*
D12*
X173990000Y-110490000D03*
D11*
X189230000Y-120650000D03*
D12*
X181480000Y-120650000D03*
D11*
X196850000Y-110490000D03*
D12*
X189100000Y-110490000D03*
D13*
X109220000Y-116840000D03*
D14*
X119380000Y-116840000D03*
D13*
X116840000Y-114300000D03*
D14*
X127000000Y-114300000D03*
D13*
X124460000Y-116840000D03*
D14*
X134620000Y-116840000D03*
D13*
X132080000Y-114302540D03*
D14*
X142240000Y-114302540D03*
D13*
X139700000Y-116842540D03*
D14*
X149860000Y-116842540D03*
D13*
X147320000Y-114300000D03*
D14*
X157480000Y-114300000D03*
D13*
X154940000Y-116840000D03*
D14*
X165100000Y-116840000D03*
D13*
X162560000Y-114300000D03*
D14*
X172720000Y-114300000D03*
D13*
X170180000Y-116840000D03*
D14*
X180340000Y-116840000D03*
D13*
X177800000Y-114300000D03*
D14*
X187960000Y-114300000D03*
D13*
X185420000Y-116840000D03*
D14*
X195580000Y-116840000D03*
D13*
X193040000Y-114300000D03*
D14*
X203200000Y-114300000D03*
D15*
X49530000Y-102870000D03*
X49530000Y-118110000D03*
X92710000Y-118110000D03*
X97790000Y-118110000D03*
X97790000Y-102870000D03*
D16*
X197010000Y-102870000D03*
X207010000Y-102870000D03*
X207010000Y-105570000D03*
X207010000Y-115570000D03*
D17*
X41910000Y-111760000D03*
D18*
X41910000Y-109220000D03*
M02*
