M48
;DRILL file {KiCad 4.0.1-3.201512221402+6198~38~ubuntu14.04.1-stable} date Mon 25 Jan 2016 02:37:32 AM PST
;FORMAT={-:-/ absolute / inch / decimal}
FMAT,2
INCH,TZ
T1C0.030
T2C0.035
T3C0.039
T4C0.040
T5C0.050
%
G90
G05
M72
T1
X1.95Y-4.05
X1.95Y-4.65
X3.65Y-4.65
X3.85Y-4.05
X3.85Y-4.65
T2
X4.15Y-4.75
X4.4449Y-4.35
X4.4551Y-4.75
X4.7449Y-4.75
X4.75Y-4.35
X5.05Y-4.35
X5.05Y-4.75
X5.3449Y-4.75
X5.3551Y-4.35
X5.6449Y-4.35
X5.65Y-4.75
X5.95Y-4.35
X5.95Y-4.75
X6.25Y-4.35
X6.2551Y-4.75
X6.5449Y-4.75
X6.5551Y-4.35
X6.85Y-4.35
X6.85Y-4.75
X7.1449Y-4.75
X7.1551Y-4.35
X7.4449Y-4.35
X7.45Y-4.75
X7.75Y-4.35
T3
X4.7Y-4.6
X5.Y-4.5
X5.3Y-4.6
X5.6Y-4.5001
X5.9Y-4.6001
X6.2Y-4.5
X6.5Y-4.6
X6.8Y-4.5
X7.1Y-4.6
X7.4Y-4.5
X7.7Y-4.6
X8.Y-4.5
T4
X1.65Y-4.3
X1.65Y-4.4
T5
X4.3Y-4.6
X4.6Y-4.5
X4.9Y-4.6
X5.2Y-4.5001
X5.5Y-4.6001
X5.8Y-4.5
X6.1Y-4.6
X6.4Y-4.5
X6.7Y-4.6
X7.Y-4.5
X7.3Y-4.6
X7.6Y-4.5
X7.7563Y-4.05
X8.15Y-4.05
X8.15Y-4.1563
X8.15Y-4.55
T0
M30
